<svg width="157" height="232" viewBox="0 0 157 232" fill="none" xmlns="http://www.w3.org/2000/svg">
<path d="M17.2939 192.63C30.0997 184.53 42.327 175.603 54.8514 167.081C66.8284 158.919 79.3372 151.571 91.2517 143.331C94.0349 141.408 96.7399 139.406 99.4293 137.374C102.166 135.294 104.886 133.183 107.576 131.041C105.308 132.699 105.543 132.511 108.279 130.494C114.268 126.179 120.475 122.192 126.479 117.876C131.28 114.436 136.033 110.856 140.567 107.056L140.583 107.791C140.63 108.323 140.661 108.87 140.661 109.402C140.661 111.215 140.364 112.982 139.817 114.687C140.364 116.391 140.661 118.158 140.661 119.971C140.661 120.831 140.599 121.691 140.474 122.536L140.583 129.931C140.63 130.463 140.661 131.01 140.661 131.542C140.661 133.434 140.333 135.279 139.754 137.045C140.348 138.812 140.661 140.657 140.661 142.549C140.661 143.409 140.599 144.269 140.474 145.113L140.583 152.509C140.63 153.04 140.661 153.588 140.661 154.119C140.661 155.558 140.474 156.981 140.114 158.357C140.458 159.732 140.661 161.155 140.661 162.594C140.661 163.454 140.599 164.314 140.474 165.158L140.583 172.554C140.63 173.085 140.661 173.632 140.661 174.164C140.661 175.853 140.411 177.494 139.942 179.089C139.27 181.372 138.128 183.53 136.596 185.531C136.486 185.687 136.361 185.828 136.252 185.985C134.188 188.549 131.483 190.832 128.293 192.723C127.98 192.911 127.668 193.083 127.339 193.271C121.304 196.601 113.658 198.587 105.34 198.587C97.381 198.587 90.0478 196.773 84.1374 193.693C84.2312 194.428 84.2937 195.163 84.2937 195.929C84.2937 196.789 84.2312 197.649 84.1061 198.493L84.2156 205.889C84.2625 206.42 84.2937 206.967 84.2937 207.499C84.2937 210.454 83.5432 213.284 82.1516 215.895C81.9484 216.271 81.7451 216.646 81.5262 217.005C81.0728 217.74 80.588 218.444 80.0408 219.148C79.775 219.491 79.4935 219.835 79.1964 220.164C78.3052 221.164 77.3201 222.134 76.2413 223.041C75.8816 223.338 75.5064 223.635 75.1311 223.932C68.6735 228.842 59.3545 231.937 48.9879 231.937C38.8871 231.937 29.7714 228.998 23.345 224.292C22.7978 223.885 22.2505 223.479 21.7502 223.041C20.6713 222.134 19.6862 221.18 18.795 220.164C18.3259 219.632 17.9037 219.085 17.4972 218.538C17.1219 218.037 16.778 217.521 16.4652 217.005C16.2463 216.646 16.0274 216.271 15.8398 215.895C14.4482 213.269 13.6977 210.454 13.6977 207.499V195.913C13.6977 195.382 13.7446 194.866 13.8071 194.35C14.9798 193.912 16.1682 193.333 17.2939 192.63Z" fill="#D6D6D6"/>
<path d="M74.5055 157.95C80.4784 150.304 92.1584 145.098 105.605 145.098C119.052 145.098 130.748 150.304 136.705 157.95H140.692L140.849 168.473C140.864 168.832 140.927 169.176 140.927 169.536C140.927 183.029 125.119 193.974 105.605 193.974C86.1073 193.974 70.2838 183.029 70.2838 169.536V157.95H74.5055Z" fill="#00DEBF"/>
<path d="M105.605 193.959C86.0978 193.959 70.2838 183.017 70.2838 169.52C70.2838 156.023 86.0978 145.082 105.605 145.082C125.113 145.082 140.927 156.023 140.927 169.52C140.927 183.017 125.113 193.959 105.605 193.959Z" fill="white"/>
<path d="M74.5055 157.95C80.4784 150.304 92.1584 145.098 105.605 145.098C119.052 145.098 130.748 150.304 136.705 157.95H140.692L140.849 168.473C140.864 168.832 140.927 169.176 140.927 169.536C140.927 183.029 125.119 193.974 105.605 193.974C86.1073 193.974 70.2838 183.029 70.2838 169.536V157.95H74.5055V157.95Z" stroke="#222D4E" stroke-width="0.75" stroke-miterlimit="10" stroke-linejoin="round"/>
<path d="M105.605 193.959C86.0978 193.959 70.2838 183.017 70.2838 169.52C70.2838 156.023 86.0978 145.082 105.605 145.082C125.113 145.082 140.927 156.023 140.927 169.52C140.927 183.017 125.113 193.959 105.605 193.959Z" stroke="#222D4E" stroke-width="0.75" stroke-miterlimit="10" stroke-linejoin="round"/>
<path d="M105.605 182.388C86.0978 182.388 70.2838 171.447 70.2838 157.95C70.2838 144.453 86.0978 133.512 105.605 133.512C125.113 133.512 140.927 144.453 140.927 157.95C140.927 171.447 125.113 182.388 105.605 182.388Z" fill="white"/>
<path d="M105.605 182.388C86.0978 182.388 70.2838 171.447 70.2838 157.95C70.2838 144.453 86.0978 133.512 105.605 133.512C125.113 133.512 140.927 144.453 140.927 157.95C140.927 171.447 125.113 182.388 105.605 182.388Z" stroke="#222D4E" stroke-width="0.75" stroke-miterlimit="10" stroke-linejoin="round"/>
<path d="M105.402 193.911C105.418 193.63 105.402 193.349 105.371 193.067V182.482" stroke="#222D4E" stroke-width="0.75" stroke-miterlimit="10" stroke-linejoin="round"/>
<path d="M97.7246 193.13V181.841" stroke="#222D4E" stroke-width="0.75" stroke-miterlimit="10" stroke-linejoin="round"/>
<path d="M90.4385 191.504V180.215" stroke="#222D4E" stroke-width="0.75" stroke-miterlimit="10" stroke-linejoin="round"/>
<path d="M83.7148 188.783V177.432" stroke="#222D4E" stroke-width="0.75" stroke-miterlimit="10" stroke-linejoin="round"/>
<path d="M77.9766 184.968V173.554" stroke="#222D4E" stroke-width="0.75" stroke-miterlimit="10" stroke-linejoin="round"/>
<path d="M72.7695 178.542V167.19" stroke="#222D4E" stroke-width="0.75" stroke-miterlimit="10" stroke-linejoin="round"/>
<path d="M113.22 193.13V181.841" stroke="#222D4E" stroke-width="0.75" stroke-miterlimit="10" stroke-linejoin="round"/>
<path d="M120.521 191.504V180.215" stroke="#222D4E" stroke-width="0.75" stroke-miterlimit="10" stroke-linejoin="round"/>
<path d="M127.229 188.783V177.432" stroke="#222D4E" stroke-width="0.75" stroke-miterlimit="10" stroke-linejoin="round"/>
<path d="M132.968 184.968V173.554" stroke="#222D4E" stroke-width="0.75" stroke-miterlimit="10" stroke-linejoin="round"/>
<path d="M138.175 178.542V167.19" stroke="#222D4E" stroke-width="0.75" stroke-miterlimit="10" stroke-linejoin="round"/>
<path d="M105.605 176.838C90.5275 176.838 78.3047 168.381 78.3047 157.95C78.3047 147.519 90.5275 139.062 105.605 139.062C120.683 139.062 132.905 147.519 132.905 157.95C132.905 168.381 120.683 176.838 105.605 176.838Z" fill="white"/>
<path d="M105.605 176.838C90.5275 176.838 78.3047 168.381 78.3047 157.95C78.3047 147.519 90.5275 139.062 105.605 139.062C120.683 139.062 132.905 147.519 132.905 157.95C132.905 168.381 120.683 176.838 105.605 176.838Z" stroke="#222D4E" stroke-width="0.75" stroke-miterlimit="10" stroke-linejoin="round"/>
<path d="M103.651 150.992L110.765 153.916L112.016 153.228C113.345 152.493 114.299 152.04 114.877 151.884C115.456 151.727 116.003 151.759 116.55 151.977C116.988 152.149 117.129 152.384 116.988 152.681C116.847 152.963 116.425 153.306 115.721 153.697C114.533 154.354 113.486 154.729 112.563 154.808C111.656 154.886 109.451 154.87 105.965 154.761C102.994 154.651 100.883 154.651 99.6009 154.714C98.3343 154.792 96.8958 155.042 95.3166 155.48C93.7374 155.918 92.1113 156.606 90.4226 157.544C87.7332 159.029 86.2322 160.452 85.9195 161.812C85.6067 163.173 86.4823 164.439 88.5619 165.643L85.7162 167.222L88.9841 168.567L91.9236 166.941C94.0188 167.613 96.458 167.863 99.2256 167.707C101.993 167.535 105.073 166.519 108.435 164.658L109.905 163.845L102.791 160.921L100.946 161.953C98.9129 163.079 97.5838 163.751 96.9428 163.954C96.3017 164.173 95.7075 164.158 95.1446 163.923C94.6599 163.72 94.4723 163.485 94.5817 163.188C94.6912 162.907 95.0821 162.578 95.7544 162.203C97.4431 161.265 98.7722 160.64 99.7259 160.327C100.68 160.014 102.228 159.889 104.401 159.952C108.013 160.045 110.562 160.061 112.016 160.014C113.47 159.952 115.112 159.701 116.91 159.264C118.708 158.81 120.397 158.154 121.945 157.294C124.196 156.043 125.369 154.808 125.447 153.604C125.525 152.4 124.509 151.211 122.414 150.054L124.822 148.71L121.554 147.365L119.146 148.71C116.66 147.975 114.236 147.725 111.875 147.975C109.514 148.225 107.231 148.975 104.995 150.211C104.698 150.351 104.245 150.617 103.651 150.992Z" fill="white"/>
<path d="M103.651 150.992L110.765 153.916L112.016 153.228C113.345 152.493 114.299 152.04 114.877 151.884C115.456 151.727 116.003 151.759 116.55 151.977C116.988 152.149 117.129 152.384 116.988 152.681C116.847 152.963 116.425 153.306 115.721 153.697C114.533 154.354 113.486 154.729 112.563 154.808C111.656 154.886 109.451 154.87 105.965 154.761C102.994 154.651 100.883 154.651 99.6009 154.714C98.3343 154.792 96.8958 155.042 95.3166 155.48C93.7374 155.918 92.1113 156.606 90.4226 157.544C87.7332 159.029 86.2322 160.452 85.9195 161.812C85.6067 163.173 86.4823 164.439 88.5619 165.643L85.7162 167.222L88.9841 168.567L91.9236 166.941C94.0188 167.613 96.458 167.863 99.2256 167.707C101.993 167.535 105.073 166.519 108.435 164.658L109.905 163.845L102.791 160.921L100.946 161.953C98.9129 163.079 97.5838 163.751 96.9428 163.954C96.3017 164.173 95.7075 164.158 95.1446 163.923C94.6599 163.72 94.4723 163.485 94.5817 163.188C94.6912 162.907 95.0821 162.578 95.7544 162.203C97.4431 161.265 98.7722 160.64 99.7259 160.327C100.68 160.014 102.228 159.889 104.401 159.952C108.013 160.045 110.562 160.061 112.016 160.014C113.47 159.952 115.112 159.701 116.91 159.264C118.708 158.81 120.397 158.154 121.945 157.294C124.196 156.043 125.369 154.808 125.447 153.604C125.525 152.4 124.509 151.211 122.414 150.054L124.822 148.71L121.554 147.365L119.146 148.71C116.66 147.975 114.236 147.725 111.875 147.975C109.514 148.225 107.231 148.975 104.995 150.211C104.698 150.351 104.245 150.617 103.651 150.992Z" stroke="#222D4E" stroke-width="0.75" stroke-miterlimit="10" stroke-linejoin="round"/>
<path d="M74.5055 137.89C80.4784 130.244 92.1584 125.037 105.605 125.037C119.052 125.037 130.748 130.244 136.705 137.89H140.692L140.849 148.412C140.864 148.772 140.927 149.116 140.927 149.476C140.927 162.969 125.119 173.914 105.605 173.914C86.1073 173.914 70.2838 162.969 70.2838 149.476V137.89H74.5055Z" fill="#00DEBF"/>
<path d="M105.605 173.914C86.0978 173.914 70.2838 162.973 70.2838 149.476C70.2838 135.979 86.0978 125.037 105.605 125.037C125.113 125.037 140.927 135.979 140.927 149.476C140.927 162.973 125.113 173.914 105.605 173.914Z" fill="white"/>
<path d="M74.5055 137.89C80.4784 130.244 92.1584 125.037 105.605 125.037C119.052 125.037 130.748 130.244 136.705 137.89H140.692L140.849 148.412C140.864 148.772 140.927 149.116 140.927 149.476C140.927 162.969 125.119 173.914 105.605 173.914C86.1073 173.914 70.2838 162.969 70.2838 149.476V137.89H74.5055V137.89Z" stroke="#222D4E" stroke-width="0.75" stroke-miterlimit="10" stroke-linejoin="round"/>
<path d="M105.605 173.914C86.0978 173.914 70.2838 162.973 70.2838 149.476C70.2838 135.979 86.0978 125.037 105.605 125.037C125.113 125.037 140.927 135.979 140.927 149.476C140.927 162.973 125.113 173.914 105.605 173.914Z" stroke="#222D4E" stroke-width="0.75" stroke-miterlimit="10" stroke-linejoin="round"/>
<path d="M105.605 162.328C86.0978 162.328 70.2838 151.387 70.2838 137.89C70.2838 124.393 86.0978 113.451 105.605 113.451C125.113 113.451 140.927 124.393 140.927 137.89C140.927 151.387 125.113 162.328 105.605 162.328Z" fill="white"/>
<path d="M105.605 162.328C86.0978 162.328 70.2838 151.387 70.2838 137.89C70.2838 124.393 86.0978 113.451 105.605 113.451C125.113 113.451 140.927 124.393 140.927 137.89C140.927 151.387 125.113 162.328 105.605 162.328Z" stroke="#222D4E" stroke-width="0.75" stroke-miterlimit="10" stroke-linejoin="round"/>
<path d="M105.402 173.867C105.418 173.586 105.402 173.304 105.371 173.023V162.438" stroke="#222D4E" stroke-width="0.75" stroke-miterlimit="10" stroke-linejoin="round"/>
<path d="M97.7246 173.07V161.781" stroke="#222D4E" stroke-width="0.75" stroke-miterlimit="10" stroke-linejoin="round"/>
<path d="M90.4385 171.444V160.155" stroke="#222D4E" stroke-width="0.75" stroke-miterlimit="10" stroke-linejoin="round"/>
<path d="M83.7148 168.723V157.387" stroke="#222D4E" stroke-width="0.75" stroke-miterlimit="10" stroke-linejoin="round"/>
<path d="M77.9766 164.908V153.494" stroke="#222D4E" stroke-width="0.75" stroke-miterlimit="10" stroke-linejoin="round"/>
<path d="M72.7695 158.482V147.13" stroke="#222D4E" stroke-width="0.75" stroke-miterlimit="10" stroke-linejoin="round"/>
<path d="M113.22 173.07V161.781" stroke="#222D4E" stroke-width="0.75" stroke-miterlimit="10" stroke-linejoin="round"/>
<path d="M120.521 171.444V160.155" stroke="#222D4E" stroke-width="0.75" stroke-miterlimit="10" stroke-linejoin="round"/>
<path d="M127.229 168.723V157.387" stroke="#222D4E" stroke-width="0.75" stroke-miterlimit="10" stroke-linejoin="round"/>
<path d="M132.968 164.908V153.494" stroke="#222D4E" stroke-width="0.75" stroke-miterlimit="10" stroke-linejoin="round"/>
<path d="M138.175 158.482V147.13" stroke="#222D4E" stroke-width="0.75" stroke-miterlimit="10" stroke-linejoin="round"/>
<path d="M105.605 156.777C90.5275 156.777 78.3047 148.321 78.3047 137.89C78.3047 127.458 90.5275 119.002 105.605 119.002C120.683 119.002 132.905 127.458 132.905 137.89C132.905 148.321 120.683 156.777 105.605 156.777Z" fill="white"/>
<path d="M105.605 156.777C90.5275 156.777 78.3047 148.321 78.3047 137.89C78.3047 127.458 90.5275 119.002 105.605 119.002C120.683 119.002 132.905 127.458 132.905 137.89C132.905 148.321 120.683 156.777 105.605 156.777Z" stroke="#222D4E" stroke-width="0.75" stroke-miterlimit="10" stroke-linejoin="round"/>
<path d="M103.651 130.932L110.765 133.856L112.016 133.168C113.345 132.433 114.299 131.979 114.877 131.823C115.456 131.667 116.003 131.698 116.55 131.917C116.988 132.089 117.129 132.323 116.988 132.621C116.847 132.918 116.425 133.246 115.721 133.637C114.533 134.294 113.486 134.669 112.563 134.747C111.656 134.825 109.451 134.81 105.965 134.7C102.994 134.591 100.883 134.591 99.6009 134.653C98.3343 134.731 96.8958 134.981 95.3166 135.419C93.7374 135.857 92.1113 136.545 90.4226 137.483C87.7332 138.969 86.2322 140.391 85.9195 141.752C85.6067 143.112 86.4823 144.378 88.5619 145.582L85.7162 147.162L88.9841 148.506L91.9236 146.88C94.0188 147.552 96.458 147.803 99.2256 147.646C101.993 147.474 105.073 146.458 108.435 144.597L109.905 143.784L102.791 140.86L100.946 141.892C98.9129 143.018 97.5838 143.69 96.9428 143.894C96.3017 144.113 95.7075 144.097 95.1446 143.862C94.6599 143.659 94.4723 143.425 94.5817 143.128C94.6912 142.846 95.0821 142.518 95.7544 142.143C97.4431 141.204 98.7722 140.579 99.7259 140.266C100.68 139.954 102.228 139.829 104.401 139.891C108.013 139.985 110.562 140.001 112.016 139.954C113.47 139.891 115.112 139.641 116.91 139.203C118.708 138.75 120.397 138.093 121.945 137.233C124.196 135.982 125.369 134.747 125.447 133.543C125.525 132.339 124.509 131.151 122.414 129.994L124.822 128.649L121.554 127.304L119.146 128.649C116.66 127.914 114.236 127.664 111.875 127.914C109.514 128.164 107.231 128.915 104.995 130.15C104.698 130.291 104.245 130.572 103.651 130.932Z" fill="white"/>
<path d="M103.651 130.932L110.765 133.856L112.016 133.168C113.345 132.433 114.299 131.979 114.877 131.823C115.456 131.667 116.003 131.698 116.55 131.917C116.988 132.089 117.129 132.323 116.988 132.621C116.847 132.918 116.425 133.246 115.721 133.637C114.533 134.294 113.486 134.669 112.563 134.747C111.656 134.825 109.451 134.81 105.965 134.7C102.994 134.591 100.883 134.591 99.6009 134.653C98.3343 134.731 96.8958 134.981 95.3166 135.419C93.7374 135.857 92.1113 136.545 90.4226 137.483C87.7332 138.969 86.2322 140.391 85.9195 141.752C85.6067 143.112 86.4823 144.378 88.5619 145.582L85.7162 147.162L88.9841 148.506L91.9236 146.88C94.0188 147.552 96.458 147.803 99.2256 147.646C101.993 147.474 105.073 146.458 108.435 144.597L109.905 143.784L102.791 140.86L100.946 141.892C98.9129 143.018 97.5838 143.69 96.9428 143.894C96.3017 144.113 95.7075 144.097 95.1446 143.862C94.6599 143.659 94.4723 143.425 94.5817 143.128C94.6912 142.846 95.0821 142.518 95.7544 142.143C97.4431 141.204 98.7722 140.579 99.7259 140.266C100.68 139.954 102.228 139.829 104.401 139.891C108.013 139.985 110.562 140.001 112.016 139.954C113.47 139.891 115.112 139.641 116.91 139.203C118.708 138.75 120.397 138.093 121.945 137.233C124.196 135.982 125.369 134.747 125.447 133.543C125.525 132.339 124.509 131.151 122.414 129.994L124.822 128.649L121.554 127.304L119.146 128.649C116.66 127.914 114.236 127.664 111.875 127.914C109.514 128.164 107.231 128.915 104.995 130.15C104.698 130.291 104.245 130.572 103.651 130.932Z" stroke="#222D4E" stroke-width="0.75" stroke-miterlimit="10" stroke-linejoin="round"/>
<path d="M74.5055 115.312C80.4784 107.666 92.1584 102.459 105.605 102.459C119.052 102.459 130.748 107.666 136.705 115.312H140.692L140.849 125.835C140.864 126.194 140.927 126.538 140.927 126.898C140.927 140.391 125.119 151.336 105.605 151.336C86.1073 151.336 70.2838 140.391 70.2838 126.898V115.312H74.5055Z" fill="#00DEBF"/>
<path d="M105.605 151.321C86.0978 151.321 70.2838 140.379 70.2838 126.882C70.2838 113.385 86.0978 102.444 105.605 102.444C125.113 102.444 140.927 113.385 140.927 126.882C140.927 140.379 125.113 151.321 105.605 151.321Z" fill="white"/>
<path d="M74.5055 115.312C80.4784 107.666 92.1584 102.459 105.605 102.459C119.052 102.459 130.748 107.666 136.705 115.312H140.692L140.849 125.835C140.864 126.194 140.927 126.538 140.927 126.898C140.927 140.391 125.119 151.336 105.605 151.336C86.1073 151.336 70.2838 140.391 70.2838 126.898V115.312H74.5055V115.312Z" stroke="#222D4E" stroke-width="0.75" stroke-miterlimit="10" stroke-linejoin="round"/>
<path d="M105.605 151.321C86.0978 151.321 70.2838 140.379 70.2838 126.882C70.2838 113.385 86.0978 102.444 105.605 102.444C125.113 102.444 140.927 113.385 140.927 126.882C140.927 140.379 125.113 151.321 105.605 151.321Z" stroke="#222D4E" stroke-width="0.75" stroke-miterlimit="10" stroke-linejoin="round"/>
<path d="M105.605 139.75C86.0978 139.75 70.2838 128.809 70.2838 115.312C70.2838 101.815 86.0978 90.8735 105.605 90.8735C125.113 90.8735 140.927 101.815 140.927 115.312C140.927 128.809 125.113 139.75 105.605 139.75Z" fill="white"/>
<path d="M105.605 139.75C86.0978 139.75 70.2838 128.809 70.2838 115.312C70.2838 101.815 86.0978 90.8735 105.605 90.8735C125.113 90.8735 140.927 101.815 140.927 115.312C140.927 128.809 125.113 139.75 105.605 139.75Z" stroke="#222D4E" stroke-width="0.75" stroke-miterlimit="10" stroke-linejoin="round"/>
<path d="M105.402 151.274C105.418 150.992 105.402 150.711 105.371 150.429V139.844" stroke="#222D4E" stroke-width="0.75" stroke-miterlimit="10" stroke-linejoin="round"/>
<path d="M97.7246 150.492V139.203" stroke="#222D4E" stroke-width="0.75" stroke-miterlimit="10" stroke-linejoin="round"/>
<path d="M90.4385 148.866V137.577" stroke="#222D4E" stroke-width="0.75" stroke-miterlimit="10" stroke-linejoin="round"/>
<path d="M83.7148 146.145V134.794" stroke="#222D4E" stroke-width="0.75" stroke-miterlimit="10" stroke-linejoin="round"/>
<path d="M77.9766 142.33V130.916" stroke="#222D4E" stroke-width="0.75" stroke-miterlimit="10" stroke-linejoin="round"/>
<path d="M72.7695 135.904V124.552" stroke="#222D4E" stroke-width="0.75" stroke-miterlimit="10" stroke-linejoin="round"/>
<path d="M113.22 150.492V139.203" stroke="#222D4E" stroke-width="0.75" stroke-miterlimit="10" stroke-linejoin="round"/>
<path d="M120.521 148.866V137.577" stroke="#222D4E" stroke-width="0.75" stroke-miterlimit="10" stroke-linejoin="round"/>
<path d="M127.229 146.145V134.794" stroke="#222D4E" stroke-width="0.75" stroke-miterlimit="10" stroke-linejoin="round"/>
<path d="M132.968 142.33V130.916" stroke="#222D4E" stroke-width="0.75" stroke-miterlimit="10" stroke-linejoin="round"/>
<path d="M138.175 135.904V124.552" stroke="#222D4E" stroke-width="0.75" stroke-miterlimit="10" stroke-linejoin="round"/>
<path d="M105.605 134.2C90.5275 134.2 78.3047 125.743 78.3047 115.312C78.3047 104.88 90.5275 96.4241 105.605 96.4241C120.683 96.4241 132.905 104.88 132.905 115.312C132.905 125.743 120.683 134.2 105.605 134.2Z" fill="white"/>
<path d="M105.605 134.2C90.5275 134.2 78.3047 125.743 78.3047 115.312C78.3047 104.88 90.5275 96.4241 105.605 96.4241C120.683 96.4241 132.905 104.88 132.905 115.312C132.905 125.743 120.683 134.2 105.605 134.2Z" stroke="#222D4E" stroke-width="0.75" stroke-miterlimit="10" stroke-linejoin="round"/>
<path d="M103.651 108.354L110.765 111.278L112.016 110.59C113.345 109.855 114.299 109.402 114.877 109.245C115.456 109.089 116.003 109.12 116.55 109.339C116.988 109.511 117.129 109.746 116.988 110.043C116.847 110.34 116.425 110.668 115.721 111.059C114.533 111.716 113.486 112.091 112.563 112.169C111.656 112.247 109.451 112.232 105.965 112.122C102.994 112.013 100.883 112.013 99.6009 112.075C98.3343 112.153 96.8958 112.404 95.3166 112.841C93.7374 113.279 92.1113 113.967 90.4226 114.905C87.7332 116.391 86.2322 117.813 85.9195 119.174C85.6067 120.534 86.4823 121.801 88.5619 123.004L85.7162 124.584L88.9841 125.928L91.9236 124.302C94.0188 124.975 96.458 125.225 99.2256 125.068C101.993 124.896 105.073 123.88 108.435 122.019L109.905 121.206L102.791 118.283L100.946 119.315C98.9129 120.44 97.5838 121.113 96.9428 121.316C96.3017 121.535 95.7075 121.519 95.1446 121.285C94.6599 121.081 94.4723 120.847 94.5817 120.55C94.6912 120.268 95.0821 119.94 95.7544 119.565C97.4431 118.627 98.7722 118.001 99.7259 117.688C100.68 117.376 102.228 117.251 104.401 117.313C108.013 117.407 110.562 117.423 112.016 117.376C113.47 117.313 115.112 117.063 116.91 116.625C118.708 116.172 120.397 115.515 121.945 114.655C124.196 113.404 125.369 112.169 125.447 110.965C125.525 109.761 124.509 108.573 122.414 107.416L124.822 106.071L121.554 104.727L119.146 106.071C116.66 105.336 114.236 105.086 111.875 105.336C109.514 105.587 107.231 106.337 104.995 107.572C104.698 107.713 104.245 107.979 103.651 108.354Z" fill="white"/>
<path d="M103.651 108.354L110.765 111.278L112.016 110.59C113.345 109.855 114.299 109.402 114.877 109.245C115.456 109.089 116.003 109.12 116.55 109.339C116.988 109.511 117.129 109.746 116.988 110.043C116.847 110.34 116.425 110.668 115.721 111.059C114.533 111.716 113.486 112.091 112.563 112.169C111.656 112.247 109.451 112.232 105.965 112.122C102.994 112.013 100.883 112.013 99.6009 112.075C98.3343 112.153 96.8958 112.404 95.3166 112.841C93.7374 113.279 92.1113 113.967 90.4226 114.905C87.7332 116.391 86.2322 117.813 85.9195 119.174C85.6067 120.534 86.4823 121.801 88.5619 123.004L85.7162 124.584L88.9841 125.928L91.9236 124.302C94.0188 124.975 96.458 125.225 99.2256 125.068C101.993 124.896 105.073 123.88 108.435 122.019L109.905 121.206L102.791 118.283L100.946 119.315C98.9129 120.44 97.5838 121.113 96.9428 121.316C96.3017 121.535 95.7075 121.519 95.1446 121.285C94.6599 121.081 94.4723 120.847 94.5817 120.55C94.6912 120.268 95.0821 119.94 95.7544 119.565C97.4431 118.627 98.7722 118.001 99.7259 117.688C100.68 117.376 102.228 117.251 104.401 117.313C108.013 117.407 110.562 117.423 112.016 117.376C113.47 117.313 115.112 117.063 116.91 116.625C118.708 116.172 120.397 115.515 121.945 114.655C124.196 113.404 125.369 112.169 125.447 110.965C125.525 109.761 124.509 108.573 122.414 107.416L124.822 106.071L121.554 104.727L119.146 106.071C116.66 105.336 114.236 105.086 111.875 105.336C109.514 105.587 107.231 106.337 104.995 107.572C104.698 107.713 104.245 107.979 103.651 108.354Z" stroke="#222D4E" stroke-width="0.75" stroke-miterlimit="10" stroke-linejoin="round"/>
<path d="M74.5055 93.1407C80.4784 85.495 92.1584 80.2883 105.605 80.2883C119.052 80.2883 130.748 85.495 136.705 93.1407H140.692L140.849 103.663C140.864 104.023 140.927 104.367 140.927 104.727C140.927 118.22 125.119 129.165 105.605 129.165C86.1073 129.165 70.2838 118.22 70.2838 104.727V93.1407H74.5055Z" fill="#00DEBF"/>
<path d="M105.605 129.165C86.0978 129.165 70.2838 118.224 70.2838 104.727C70.2838 91.2298 86.0978 80.2883 105.605 80.2883C125.113 80.2883 140.927 91.2298 140.927 104.727C140.927 118.224 125.113 129.165 105.605 129.165Z" fill="white"/>
<path d="M74.5055 93.1407C80.4784 85.495 92.1584 80.2883 105.605 80.2883C119.052 80.2883 130.748 85.495 136.705 93.1407H140.692L140.849 103.663C140.864 104.023 140.927 104.367 140.927 104.727C140.927 118.22 125.119 129.165 105.605 129.165C86.1073 129.165 70.2838 118.22 70.2838 104.727V93.1407H74.5055V93.1407Z" stroke="#222D4E" stroke-width="0.75" stroke-miterlimit="10" stroke-linejoin="round"/>
<path d="M105.605 129.165C86.0978 129.165 70.2838 118.224 70.2838 104.727C70.2838 91.2298 86.0978 80.2883 105.605 80.2883C125.113 80.2883 140.927 91.2298 140.927 104.727C140.927 118.224 125.113 129.165 105.605 129.165Z" stroke="#222D4E" stroke-width="0.75" stroke-miterlimit="10" stroke-linejoin="round"/>
<path d="M105.605 117.579C86.0978 117.579 70.2838 106.638 70.2838 93.1407C70.2838 79.6438 86.0978 68.7024 105.605 68.7024C125.113 68.7024 140.927 79.6438 140.927 93.1407C140.927 106.638 125.113 117.579 105.605 117.579Z" fill="white"/>
<path d="M105.605 117.579C86.0978 117.579 70.2838 106.638 70.2838 93.1407C70.2838 79.6438 86.0978 68.7024 105.605 68.7024C125.113 68.7024 140.927 79.6438 140.927 93.1407C140.927 106.638 125.113 117.579 105.605 117.579Z" stroke="#222D4E" stroke-width="0.75" stroke-miterlimit="10" stroke-linejoin="round"/>
<path d="M105.402 129.118C105.418 128.837 105.402 128.555 105.371 128.274V117.688" stroke="#222D4E" stroke-width="0.75" stroke-miterlimit="10" stroke-linejoin="round"/>
<path d="M97.7246 128.321V117.032" stroke="#222D4E" stroke-width="0.75" stroke-miterlimit="10" stroke-linejoin="round"/>
<path d="M90.4385 126.695V115.406" stroke="#222D4E" stroke-width="0.75" stroke-miterlimit="10" stroke-linejoin="round"/>
<path d="M83.7148 123.974V112.638" stroke="#222D4E" stroke-width="0.75" stroke-miterlimit="10" stroke-linejoin="round"/>
<path d="M77.9766 120.159V108.745" stroke="#222D4E" stroke-width="0.75" stroke-miterlimit="10" stroke-linejoin="round"/>
<path d="M72.7695 113.733V102.381" stroke="#222D4E" stroke-width="0.75" stroke-miterlimit="10" stroke-linejoin="round"/>
<path d="M113.22 128.321V117.032" stroke="#222D4E" stroke-width="0.75" stroke-miterlimit="10" stroke-linejoin="round"/>
<path d="M120.521 126.695V115.406" stroke="#222D4E" stroke-width="0.75" stroke-miterlimit="10" stroke-linejoin="round"/>
<path d="M127.229 123.974V112.638" stroke="#222D4E" stroke-width="0.75" stroke-miterlimit="10" stroke-linejoin="round"/>
<path d="M132.968 120.159V108.745" stroke="#222D4E" stroke-width="0.75" stroke-miterlimit="10" stroke-linejoin="round"/>
<path d="M138.175 113.733V102.381" stroke="#222D4E" stroke-width="0.75" stroke-miterlimit="10" stroke-linejoin="round"/>
<path d="M105.605 112.028C90.5275 112.028 78.3047 103.572 78.3047 93.1407C78.3047 82.7092 90.5275 74.2529 105.605 74.2529C120.683 74.2529 132.905 82.7092 132.905 93.1407C132.905 103.572 120.683 112.028 105.605 112.028Z" fill="white"/>
<path d="M105.605 112.028C90.5275 112.028 78.3047 103.572 78.3047 93.1407C78.3047 82.7092 90.5275 74.2529 105.605 74.2529C120.683 74.2529 132.905 82.7092 132.905 93.1407C132.905 103.572 120.683 112.028 105.605 112.028Z" stroke="#222D4E" stroke-width="0.75" stroke-miterlimit="10" stroke-linejoin="round"/>
<path d="M103.651 86.1831L110.765 89.1226L112.016 88.4346C113.345 87.6997 114.299 87.2463 114.877 87.09C115.456 86.9336 116.003 86.9649 116.55 87.1838C116.988 87.3558 117.129 87.5903 116.988 87.8874C116.847 88.1688 116.425 88.5128 115.721 88.9037C114.533 89.5604 113.486 89.9356 112.563 90.0138C111.656 90.092 109.451 90.0763 105.965 89.9669C102.994 89.8574 100.883 89.8574 99.6009 89.92C98.3343 89.9982 96.8958 90.2483 95.3166 90.6861C93.7374 91.1239 92.1113 91.8119 90.4226 92.75C87.7332 94.2354 86.2322 95.6582 85.9195 97.0185C85.6067 98.3788 86.4823 99.6453 88.5619 100.849L85.7162 102.428L88.9841 103.773L91.9236 102.147C94.0188 102.819 96.458 103.069 99.2256 102.913C101.993 102.741 105.073 101.725 108.435 99.8642L109.905 99.0511L102.791 96.1273L100.946 97.1592C98.9129 98.285 97.5838 98.9573 96.9428 99.1606C96.3017 99.3795 95.7075 99.3638 95.1446 99.1293C94.6599 98.9261 94.4723 98.6915 94.5817 98.3944C94.6912 98.113 95.0821 97.7847 95.7544 97.4094C97.4431 96.4713 98.7722 95.8458 99.7259 95.5331C100.68 95.2204 102.228 95.0953 104.401 95.1579C108.013 95.2517 110.562 95.2673 112.016 95.2204C113.47 95.1579 115.112 94.9077 116.91 94.4699C118.708 94.0165 120.397 93.3598 121.945 92.4998C124.196 91.249 125.369 90.0138 125.447 88.8099C125.525 87.6059 124.509 86.4176 122.414 85.2606L124.822 83.9159L121.554 82.5713L119.146 83.9159C116.66 83.1811 114.236 82.9309 111.875 83.1811C109.514 83.4312 107.231 84.1817 104.995 85.417C104.698 85.542 104.245 85.8235 103.651 86.1831Z" fill="white"/>
<path d="M103.651 86.1831L110.765 89.1226L112.016 88.4346C113.345 87.6997 114.299 87.2463 114.877 87.09C115.456 86.9336 116.003 86.9649 116.55 87.1838C116.988 87.3558 117.129 87.5903 116.988 87.8874C116.847 88.1688 116.425 88.5128 115.721 88.9037C114.533 89.5604 113.486 89.9356 112.563 90.0138C111.656 90.092 109.451 90.0763 105.965 89.9669C102.994 89.8574 100.883 89.8574 99.6009 89.92C98.3343 89.9982 96.8958 90.2483 95.3166 90.6861C93.7374 91.1239 92.1113 91.8119 90.4226 92.75C87.7332 94.2354 86.2322 95.6582 85.9195 97.0185C85.6067 98.3788 86.4823 99.6453 88.5619 100.849L85.7162 102.428L88.9841 103.773L91.9236 102.147C94.0188 102.819 96.458 103.069 99.2256 102.913C101.993 102.741 105.073 101.725 108.435 99.8642L109.905 99.0511L102.791 96.1273L100.946 97.1592C98.9129 98.285 97.5838 98.9573 96.9428 99.1606C96.3017 99.3795 95.7075 99.3638 95.1446 99.1293C94.6599 98.9261 94.4723 98.6915 94.5817 98.3944C94.6912 98.113 95.0821 97.7847 95.7544 97.4094C97.4431 96.4713 98.7722 95.8459 99.7259 95.5331C100.68 95.2204 102.228 95.0953 104.401 95.1579C108.013 95.2517 110.562 95.2673 112.016 95.2204C113.47 95.1579 115.112 94.9077 116.91 94.4699C118.708 94.0165 120.397 93.3598 121.945 92.4998C124.196 91.249 125.369 90.0138 125.447 88.8099C125.525 87.6059 124.509 86.4176 122.414 85.2606L124.822 83.9159L121.554 82.5713L119.146 83.9159C116.66 83.1811 114.236 82.9309 111.875 83.1811C109.514 83.4312 107.231 84.1817 104.995 85.417C104.698 85.542 104.245 85.8235 103.651 86.1831Z" stroke="#222D4E" stroke-width="0.75" stroke-miterlimit="10" stroke-linejoin="round"/>
<path d="M18.1383 191.301C24.0956 183.655 35.7912 178.448 49.2381 178.448C62.685 178.448 74.3806 183.655 80.3379 191.301H84.325L84.4814 201.823C84.497 202.183 84.5596 202.527 84.5596 202.887C84.5596 216.38 68.7517 227.325 49.2381 227.325C29.7401 227.325 13.9166 216.38 13.9166 202.887V191.301H18.1383Z" fill="#00DEBF"/>
<path d="M49.2381 227.309C29.7306 227.309 13.9166 216.368 13.9166 202.871C13.9166 189.374 29.7306 178.433 49.2381 178.433C68.7456 178.433 84.5596 189.374 84.5596 202.871C84.5596 216.368 68.7456 227.309 49.2381 227.309Z" fill="white"/>
<path d="M18.1383 191.301C24.0956 183.655 35.7912 178.448 49.2381 178.448C62.685 178.448 74.3806 183.655 80.3379 191.301H84.325L84.4814 201.823C84.497 202.183 84.5596 202.527 84.5596 202.887C84.5596 216.38 68.7517 227.325 49.2381 227.325C29.7401 227.325 13.9166 216.38 13.9166 202.887V191.301H18.1383Z" stroke="#222D4E" stroke-width="0.75" stroke-miterlimit="10" stroke-linejoin="round"/>
<path d="M49.2381 227.309C29.7306 227.309 13.9166 216.368 13.9166 202.871C13.9166 189.374 29.7306 178.433 49.2381 178.433C68.7456 178.433 84.5596 189.374 84.5596 202.871C84.5596 216.368 68.7456 227.309 49.2381 227.309Z" stroke="#222D4E" stroke-width="0.75" stroke-miterlimit="10" stroke-linejoin="round"/>
<path d="M49.2381 215.739C29.7306 215.739 13.9166 204.798 13.9166 191.301C13.9166 177.804 29.7306 166.862 49.2381 166.862C68.7456 166.862 84.5596 177.804 84.5596 191.301C84.5596 204.798 68.7456 215.739 49.2381 215.739Z" fill="white"/>
<path d="M49.2381 215.739C29.7306 215.739 13.9166 204.798 13.9166 191.301C13.9166 177.804 29.7306 166.862 49.2381 166.862C68.7456 166.862 84.5596 177.804 84.5596 191.301C84.5596 204.798 68.7456 215.739 49.2381 215.739Z" stroke="#222D4E" stroke-width="0.75" stroke-miterlimit="10" stroke-linejoin="round"/>
<path d="M49.0505 227.262C49.0661 226.981 49.0505 226.699 49.0192 226.418V215.833" stroke="#222D4E" stroke-width="0.75" stroke-miterlimit="10" stroke-linejoin="round"/>
<path d="M41.373 226.48V215.191" stroke="#222D4E" stroke-width="0.75" stroke-miterlimit="10" stroke-linejoin="round"/>
<path d="M34.0713 224.854V213.565" stroke="#222D4E" stroke-width="0.75" stroke-miterlimit="10" stroke-linejoin="round"/>
<path d="M27.3633 222.134V210.782" stroke="#222D4E" stroke-width="0.75" stroke-miterlimit="10" stroke-linejoin="round"/>
<path d="M21.625 218.319V206.905" stroke="#222D4E" stroke-width="0.75" stroke-miterlimit="10" stroke-linejoin="round"/>
<path d="M16.418 211.892V200.541" stroke="#222D4E" stroke-width="0.75" stroke-miterlimit="10" stroke-linejoin="round"/>
<path d="M56.8682 226.48V215.191" stroke="#222D4E" stroke-width="0.75" stroke-miterlimit="10" stroke-linejoin="round"/>
<path d="M64.1553 224.854V213.565" stroke="#222D4E" stroke-width="0.75" stroke-miterlimit="10" stroke-linejoin="round"/>
<path d="M70.8779 222.134V210.782" stroke="#222D4E" stroke-width="0.75" stroke-miterlimit="10" stroke-linejoin="round"/>
<path d="M76.6006 218.319V206.905" stroke="#222D4E" stroke-width="0.75" stroke-miterlimit="10" stroke-linejoin="round"/>
<path d="M81.8232 211.892V200.541" stroke="#222D4E" stroke-width="0.75" stroke-miterlimit="10" stroke-linejoin="round"/>
<path d="M49.2378 210.189C34.1603 210.189 21.9375 201.732 21.9375 191.301C21.9375 180.869 34.1603 172.413 49.2378 172.413C64.3153 172.413 76.5381 180.869 76.5381 191.301C76.5381 201.732 64.3153 210.189 49.2378 210.189Z" fill="white"/>
<path d="M49.2378 210.189C34.1603 210.189 21.9375 201.732 21.9375 191.301C21.9375 180.869 34.1603 172.413 49.2378 172.413C64.3153 172.413 76.5381 180.869 76.5381 191.301C76.5381 201.732 64.3153 210.189 49.2378 210.189Z" stroke="#222D4E" stroke-width="0.75" stroke-miterlimit="10" stroke-linejoin="round"/>
<path d="M47.299 184.343L54.4133 187.267L55.6642 186.579C56.9932 185.844 57.947 185.39 58.5256 185.234C59.1041 185.078 59.6513 185.109 60.1986 185.328C60.6364 185.5 60.7771 185.734 60.6364 186.031C60.4957 186.313 60.0735 186.657 59.3699 187.048C58.1816 187.704 57.134 188.08 56.2115 188.158C55.3046 188.236 53.0999 188.22 49.6131 188.111C46.6423 188.001 44.5314 188.001 43.2493 188.064C41.9828 188.142 40.5443 188.392 38.9651 188.83C37.3858 189.268 35.7597 189.956 34.071 190.894C31.3817 192.379 29.8806 193.802 29.5679 195.163C29.2552 196.523 30.1308 197.789 32.2104 198.993L29.3646 200.572L32.6325 201.917L35.5721 200.291C37.6673 200.963 40.1065 201.214 42.874 201.057C45.6416 200.885 48.7219 199.869 52.0836 198.008L53.5533 197.195L46.439 194.271L44.594 195.303C42.5613 196.429 41.2323 197.101 40.5912 197.305C39.9501 197.524 39.356 197.508 38.7931 197.273C38.3084 197.07 38.1207 196.836 38.2302 196.538C38.3396 196.257 38.7305 195.929 39.4029 195.553C41.0915 194.615 42.4206 193.99 43.3744 193.677C44.3282 193.364 45.8761 193.239 48.0495 193.302C51.6614 193.396 54.2101 193.411 55.6642 193.364C57.1183 193.302 58.7601 193.052 60.5582 192.614C62.3564 192.161 64.045 191.504 65.593 190.644C67.8446 189.393 69.0172 188.158 69.0954 186.954C69.1736 185.75 68.1573 184.562 66.0621 183.405L68.47 182.06L65.2021 180.715L62.7942 182.06C60.3081 181.325 57.8845 181.075 55.5235 181.325C53.1624 181.575 50.8796 182.326 48.6437 183.561C48.331 183.702 47.8775 183.968 47.299 184.343Z" fill="white"/>
<path d="M47.299 184.343L54.4133 187.267L55.6642 186.579C56.9932 185.844 57.947 185.39 58.5256 185.234C59.1041 185.078 59.6513 185.109 60.1986 185.328C60.6364 185.5 60.7771 185.734 60.6364 186.031C60.4957 186.313 60.0735 186.657 59.3699 187.048C58.1816 187.704 57.134 188.08 56.2115 188.158C55.3046 188.236 53.0999 188.22 49.6131 188.111C46.6423 188.001 44.5314 188.001 43.2493 188.064C41.9828 188.142 40.5443 188.392 38.9651 188.83C37.3858 189.268 35.7597 189.956 34.071 190.894C31.3817 192.379 29.8806 193.802 29.5679 195.163C29.2552 196.523 30.1308 197.789 32.2104 198.993L29.3646 200.572L32.6325 201.917L35.5721 200.291C37.6673 200.963 40.1065 201.214 42.874 201.057C45.6416 200.885 48.7219 199.869 52.0836 198.008L53.5533 197.195L46.439 194.271L44.594 195.303C42.5613 196.429 41.2323 197.101 40.5912 197.305C39.9501 197.524 39.356 197.508 38.7931 197.273C38.3084 197.07 38.1207 196.836 38.2302 196.538C38.3396 196.257 38.7305 195.929 39.4029 195.553C41.0915 194.615 42.4206 193.99 43.3744 193.677C44.3282 193.364 45.8761 193.239 48.0495 193.302C51.6614 193.396 54.2101 193.411 55.6642 193.364C57.1183 193.302 58.7601 193.052 60.5582 192.614C62.3564 192.161 64.045 191.504 65.593 190.644C67.8446 189.393 69.0172 188.158 69.0954 186.954C69.1736 185.75 68.1573 184.562 66.0621 183.405L68.47 182.06L65.2021 180.715L62.7942 182.06C60.3081 181.325 57.8845 181.075 55.5235 181.325C53.1624 181.575 50.8796 182.326 48.6437 183.561C48.331 183.702 47.8775 183.968 47.299 184.343Z" stroke="#222D4E" stroke-width="0.75" stroke-miterlimit="10" stroke-linejoin="round"/>
<path d="M18.1383 171.24C24.0956 163.595 35.7912 158.388 49.2381 158.388C62.685 158.388 74.3806 163.595 80.3379 171.24H84.325L84.4814 181.763C84.497 182.123 84.5596 182.467 84.5596 182.826C84.5596 196.32 68.7517 207.265 49.2381 207.265C29.7401 207.265 13.9166 196.32 13.9166 182.826V171.24H18.1383Z" fill="#00DEBF"/>
<path d="M49.2381 207.265C29.7306 207.265 13.9166 196.323 13.9166 182.826C13.9166 169.329 29.7306 158.388 49.2381 158.388C68.7456 158.388 84.5596 169.329 84.5596 182.826C84.5596 196.323 68.7456 207.265 49.2381 207.265Z" fill="white"/>
<path d="M18.1383 171.24C24.0956 163.595 35.7912 158.388 49.2381 158.388C62.685 158.388 74.3806 163.595 80.3379 171.24H84.325L84.4814 181.763C84.497 182.123 84.5596 182.467 84.5596 182.826C84.5596 196.32 68.7517 207.265 49.2381 207.265C29.7401 207.265 13.9166 196.32 13.9166 182.826V171.24H18.1383V171.24Z" stroke="#222D4E" stroke-width="0.75" stroke-miterlimit="10" stroke-linejoin="round"/>
<path d="M49.2381 207.265C29.7306 207.265 13.9166 196.323 13.9166 182.826C13.9166 169.329 29.7306 158.388 49.2381 158.388C68.7456 158.388 84.5596 169.329 84.5596 182.826C84.5596 196.323 68.7456 207.265 49.2381 207.265Z" stroke="#222D4E" stroke-width="0.75" stroke-miterlimit="10" stroke-linejoin="round"/>
<path d="M49.2381 195.679C29.7306 195.679 13.9166 184.737 13.9166 171.24C13.9166 157.743 29.7306 146.802 49.2381 146.802C68.7456 146.802 84.5596 157.743 84.5596 171.24C84.5596 184.737 68.7456 195.679 49.2381 195.679Z" fill="white"/>
<path d="M49.2381 195.679C29.7306 195.679 13.9166 184.737 13.9166 171.24C13.9166 157.743 29.7306 146.802 49.2381 146.802C68.7456 146.802 84.5596 157.743 84.5596 171.24C84.5596 184.737 68.7456 195.679 49.2381 195.679Z" stroke="#222D4E" stroke-width="0.75" stroke-miterlimit="10" stroke-linejoin="round"/>
<path d="M49.0505 207.218C49.0661 206.936 49.0505 206.655 49.0192 206.373V195.788" stroke="#222D4E" stroke-width="0.75" stroke-miterlimit="10" stroke-linejoin="round"/>
<path d="M41.373 206.42V195.131" stroke="#222D4E" stroke-width="0.75" stroke-miterlimit="10" stroke-linejoin="round"/>
<path d="M34.0713 204.794V193.505" stroke="#222D4E" stroke-width="0.75" stroke-miterlimit="10" stroke-linejoin="round"/>
<path d="M27.3633 202.074V190.738" stroke="#222D4E" stroke-width="0.75" stroke-miterlimit="10" stroke-linejoin="round"/>
<path d="M21.625 198.259V186.845" stroke="#222D4E" stroke-width="0.75" stroke-miterlimit="10" stroke-linejoin="round"/>
<path d="M16.418 191.832V180.481" stroke="#222D4E" stroke-width="0.75" stroke-miterlimit="10" stroke-linejoin="round"/>
<path d="M56.8682 206.42V195.131" stroke="#222D4E" stroke-width="0.75" stroke-miterlimit="10" stroke-linejoin="round"/>
<path d="M64.1553 204.794V193.505" stroke="#222D4E" stroke-width="0.75" stroke-miterlimit="10" stroke-linejoin="round"/>
<path d="M70.8779 202.074V190.738" stroke="#222D4E" stroke-width="0.75" stroke-miterlimit="10" stroke-linejoin="round"/>
<path d="M76.6006 198.259V186.845" stroke="#222D4E" stroke-width="0.75" stroke-miterlimit="10" stroke-linejoin="round"/>
<path d="M81.8232 191.832V180.481" stroke="#222D4E" stroke-width="0.75" stroke-miterlimit="10" stroke-linejoin="round"/>
<path d="M49.2378 190.128C34.1603 190.128 21.9375 181.672 21.9375 171.24C21.9375 160.809 34.1603 152.353 49.2378 152.353C64.3153 152.353 76.5381 160.809 76.5381 171.24C76.5381 181.672 64.3153 190.128 49.2378 190.128Z" fill="white"/>
<path d="M49.2378 190.128C34.1603 190.128 21.9375 181.672 21.9375 171.24C21.9375 160.809 34.1603 152.353 49.2378 152.353C64.3153 152.353 76.5381 160.809 76.5381 171.24C76.5381 181.672 64.3153 190.128 49.2378 190.128Z" stroke="#222D4E" stroke-width="0.75" stroke-miterlimit="10" stroke-linejoin="round"/>
<path d="M47.299 164.283L54.4133 167.207L55.6642 166.519C56.9932 165.784 57.947 165.33 58.5256 165.174C59.1041 165.018 59.6513 165.049 60.1986 165.268C60.6364 165.44 60.7771 165.674 60.6364 165.971C60.4957 166.253 60.0735 166.597 59.3699 166.988C58.1816 167.644 57.134 168.02 56.2115 168.098C55.3046 168.176 53.0999 168.16 49.6131 168.051C46.6423 167.941 44.5314 167.941 43.2493 168.004C41.9828 168.082 40.5443 168.332 38.9651 168.77C37.3858 169.208 35.7597 169.896 34.071 170.834C31.3817 172.319 29.8806 173.742 29.5679 175.102C29.2552 176.463 30.1308 177.729 32.2104 178.933L29.3646 180.512L32.6325 181.857L35.5721 180.231C37.6673 180.903 40.1065 181.153 42.874 180.997C45.6416 180.825 48.7219 179.809 52.0836 177.948L53.5533 177.135L46.439 174.211L44.594 175.243C42.5613 176.369 41.2323 177.041 40.5912 177.245C39.9501 177.463 39.356 177.448 38.7931 177.213C38.3084 177.01 38.1207 176.776 38.2302 176.478C38.3396 176.197 38.7305 175.869 39.4029 175.493C41.0915 174.555 42.4206 173.93 43.3744 173.617C44.3282 173.304 45.8761 173.179 48.0495 173.242C51.6614 173.336 54.2101 173.351 55.6642 173.304C57.1183 173.242 58.7601 172.992 60.5582 172.554C62.3564 172.1 64.045 171.444 65.593 170.584C67.8446 169.333 69.0172 168.098 69.0954 166.894C69.1736 165.69 68.1573 164.502 66.0621 163.345L68.47 162L65.2021 160.655L62.7942 162C60.3081 161.265 57.8845 161.015 55.5235 161.265C53.1624 161.515 50.8796 162.266 48.6437 163.501C48.331 163.642 47.8775 163.923 47.299 164.283Z" fill="white"/>
<path d="M47.299 164.283L54.4133 167.207L55.6642 166.519C56.9932 165.784 57.947 165.33 58.5256 165.174C59.1041 165.018 59.6513 165.049 60.1986 165.268C60.6364 165.44 60.7771 165.674 60.6364 165.971C60.4957 166.253 60.0735 166.597 59.3699 166.988C58.1816 167.644 57.134 168.02 56.2115 168.098C55.3046 168.176 53.0999 168.16 49.6131 168.051C46.6423 167.941 44.5314 167.941 43.2493 168.004C41.9828 168.082 40.5443 168.332 38.9651 168.77C37.3858 169.208 35.7597 169.896 34.071 170.834C31.3817 172.319 29.8806 173.742 29.5679 175.102C29.2552 176.463 30.1308 177.729 32.2104 178.933L29.3646 180.512L32.6325 181.857L35.5721 180.231C37.6673 180.903 40.1065 181.153 42.874 180.997C45.6416 180.825 48.7219 179.809 52.0836 177.948L53.5533 177.135L46.439 174.211L44.594 175.243C42.5613 176.369 41.2323 177.041 40.5912 177.245C39.9501 177.463 39.356 177.448 38.7931 177.213C38.3084 177.01 38.1207 176.776 38.2302 176.478C38.3396 176.197 38.7305 175.869 39.4029 175.493C41.0915 174.555 42.4206 173.93 43.3744 173.617C44.3282 173.304 45.8761 173.179 48.0495 173.242C51.6614 173.336 54.2101 173.351 55.6642 173.304C57.1183 173.242 58.7601 172.992 60.5582 172.554C62.3564 172.1 64.045 171.444 65.593 170.584C67.8446 169.333 69.0172 168.098 69.0954 166.894C69.1736 165.69 68.1573 164.502 66.0621 163.345L68.47 162L65.2021 160.655L62.7942 162C60.3081 161.265 57.8845 161.015 55.5235 161.265C53.1624 161.515 50.8796 162.266 48.6437 163.501C48.331 163.642 47.8775 163.923 47.299 164.283Z" stroke="#222D4E" stroke-width="0.75" stroke-miterlimit="10" stroke-linejoin="round"/>
<path d="M18.1383 150.977C24.0956 143.331 35.7912 138.124 49.2381 138.124C62.685 138.124 74.3806 143.331 80.3379 150.977H84.325L84.4814 161.499C84.497 161.859 84.5596 162.203 84.5596 162.563C84.5596 176.056 68.7517 187.001 49.2381 187.001C29.7401 187.001 13.9166 176.056 13.9166 162.563V150.977H18.1383Z" fill="#00DEBF"/>
<path d="M49.2381 187.001C29.7306 187.001 13.9166 176.06 13.9166 162.563C13.9166 149.066 29.7306 138.124 49.2381 138.124C68.7456 138.124 84.5596 149.066 84.5596 162.563C84.5596 176.06 68.7456 187.001 49.2381 187.001Z" fill="white"/>
<path d="M18.1383 150.977C24.0956 143.331 35.7912 138.124 49.2381 138.124C62.685 138.124 74.3806 143.331 80.3379 150.977H84.325L84.4814 161.499C84.497 161.859 84.5596 162.203 84.5596 162.563C84.5596 176.056 68.7517 187.001 49.2381 187.001C29.7401 187.001 13.9166 176.056 13.9166 162.563V150.977H18.1383V150.977Z" stroke="#222D4E" stroke-width="0.75" stroke-miterlimit="10" stroke-linejoin="round"/>
<path d="M49.2381 187.001C29.7306 187.001 13.9166 176.06 13.9166 162.563C13.9166 149.066 29.7306 138.124 49.2381 138.124C68.7456 138.124 84.5596 149.066 84.5596 162.563C84.5596 176.06 68.7456 187.001 49.2381 187.001Z" stroke="#222D4E" stroke-width="0.75" stroke-miterlimit="10" stroke-linejoin="round"/>
<path d="M49.2381 175.415C29.7306 175.415 13.9166 164.474 13.9166 150.977C13.9166 137.48 29.7306 126.538 49.2381 126.538C68.7456 126.538 84.5596 137.48 84.5596 150.977C84.5596 164.474 68.7456 175.415 49.2381 175.415Z" fill="white"/>
<path d="M49.2381 175.415C29.7306 175.415 13.9166 164.474 13.9166 150.977C13.9166 137.48 29.7306 126.538 49.2381 126.538C68.7456 126.538 84.5596 137.48 84.5596 150.977C84.5596 164.474 68.7456 175.415 49.2381 175.415Z" stroke="#222D4E" stroke-width="0.75" stroke-miterlimit="10" stroke-linejoin="round"/>
<path d="M49.0505 186.954C49.0661 186.673 49.0505 186.391 49.0192 186.11V175.524" stroke="#222D4E" stroke-width="0.75" stroke-miterlimit="10" stroke-linejoin="round"/>
<path d="M41.373 186.157V174.868" stroke="#222D4E" stroke-width="0.75" stroke-miterlimit="10" stroke-linejoin="round"/>
<path d="M34.0713 184.531V173.242" stroke="#222D4E" stroke-width="0.75" stroke-miterlimit="10" stroke-linejoin="round"/>
<path d="M27.3633 181.81V170.474" stroke="#222D4E" stroke-width="0.75" stroke-miterlimit="10" stroke-linejoin="round"/>
<path d="M21.625 177.995V166.581" stroke="#222D4E" stroke-width="0.75" stroke-miterlimit="10" stroke-linejoin="round"/>
<path d="M16.418 171.569V160.217" stroke="#222D4E" stroke-width="0.75" stroke-miterlimit="10" stroke-linejoin="round"/>
<path d="M56.8682 186.157V174.868" stroke="#222D4E" stroke-width="0.75" stroke-miterlimit="10" stroke-linejoin="round"/>
<path d="M64.1553 184.531V173.242" stroke="#222D4E" stroke-width="0.75" stroke-miterlimit="10" stroke-linejoin="round"/>
<path d="M70.8779 181.81V170.474" stroke="#222D4E" stroke-width="0.75" stroke-miterlimit="10" stroke-linejoin="round"/>
<path d="M76.6006 177.995V166.581" stroke="#222D4E" stroke-width="0.75" stroke-miterlimit="10" stroke-linejoin="round"/>
<path d="M81.8232 171.569V160.217" stroke="#222D4E" stroke-width="0.75" stroke-miterlimit="10" stroke-linejoin="round"/>
<path d="M49.2378 169.864C34.1603 169.864 21.9375 161.408 21.9375 150.977C21.9375 140.545 34.1603 132.089 49.2378 132.089C64.3153 132.089 76.5381 140.545 76.5381 150.977C76.5381 161.408 64.3153 169.864 49.2378 169.864Z" fill="white"/>
<path d="M49.2378 169.864C34.1603 169.864 21.9375 161.408 21.9375 150.977C21.9375 140.545 34.1603 132.089 49.2378 132.089C64.3153 132.089 76.5381 140.545 76.5381 150.977C76.5381 161.408 64.3153 169.864 49.2378 169.864Z" stroke="#222D4E" stroke-width="0.75" stroke-miterlimit="10" stroke-linejoin="round"/>
<path d="M47.299 144.019L54.4133 146.943L55.6642 146.255C56.9932 145.52 57.947 145.066 58.5256 144.91C59.1041 144.754 59.6513 144.785 60.1986 145.004C60.6364 145.176 60.7771 145.41 60.6364 145.707C60.4957 145.989 60.0735 146.333 59.3699 146.724C58.1816 147.38 57.134 147.756 56.2115 147.834C55.3046 147.912 53.0999 147.896 49.6131 147.787C46.6423 147.678 44.5314 147.678 43.2493 147.74C41.9828 147.818 40.5443 148.068 38.9651 148.506C37.3858 148.944 35.7597 149.632 34.071 150.57C31.3817 152.055 29.8806 153.478 29.5679 154.839C29.2552 156.199 30.1308 157.465 32.2104 158.669L29.3646 160.248L32.6325 161.593L35.5721 159.967C37.6673 160.639 40.1065 160.89 42.874 160.733C45.6416 160.561 48.7219 159.545 52.0836 157.684L53.5533 156.871L46.439 153.947L44.594 154.979C42.5613 156.105 41.2323 156.777 40.5912 156.981C39.9501 157.2 39.356 157.184 38.7931 156.949C38.3084 156.746 38.1207 156.512 38.2302 156.215C38.3396 155.933 38.7305 155.605 39.4029 155.229C41.0915 154.291 42.4206 153.666 43.3744 153.353C44.3282 153.04 45.8761 152.915 48.0495 152.978C51.6614 153.072 54.2101 153.087 55.6642 153.04C57.1183 152.978 58.7601 152.728 60.5582 152.29C62.3564 151.837 64.045 151.18 65.593 150.32C67.8446 149.069 69.0172 147.834 69.0954 146.63C69.1736 145.426 68.1573 144.238 66.0621 143.081L68.47 141.736L65.2021 140.391L62.7942 141.736C60.3081 141.001 57.8845 140.751 55.5235 141.001C53.1624 141.251 50.8796 142.002 48.6437 143.237C48.331 143.378 47.8775 143.659 47.299 144.019Z" fill="white"/>
<path d="M47.299 144.019L54.4133 146.943L55.6642 146.255C56.9932 145.52 57.947 145.066 58.5256 144.91C59.1041 144.754 59.6513 144.785 60.1986 145.004C60.6364 145.176 60.7771 145.41 60.6364 145.707C60.4957 145.989 60.0735 146.333 59.3699 146.724C58.1816 147.38 57.134 147.756 56.2115 147.834C55.3046 147.912 53.0999 147.896 49.6131 147.787C46.6423 147.678 44.5314 147.678 43.2493 147.74C41.9828 147.818 40.5443 148.068 38.9651 148.506C37.3858 148.944 35.7597 149.632 34.071 150.57C31.3817 152.055 29.8806 153.478 29.5679 154.839C29.2552 156.199 30.1308 157.465 32.2104 158.669L29.3646 160.248L32.6325 161.593L35.5721 159.967C37.6673 160.639 40.1065 160.89 42.874 160.733C45.6416 160.561 48.7219 159.545 52.0836 157.684L53.5533 156.871L46.439 153.947L44.594 154.979C42.5613 156.105 41.2323 156.777 40.5912 156.981C39.9501 157.2 39.356 157.184 38.7931 156.949C38.3084 156.746 38.1207 156.512 38.2302 156.215C38.3396 155.933 38.7305 155.605 39.4029 155.229C41.0915 154.291 42.4206 153.666 43.3744 153.353C44.3282 153.04 45.8761 152.915 48.0495 152.978C51.6614 153.072 54.2101 153.087 55.6642 153.04C57.1183 152.978 58.7601 152.728 60.5582 152.29C62.3564 151.837 64.045 151.18 65.593 150.32C67.8446 149.069 69.0172 147.834 69.0954 146.63C69.1736 145.426 68.1573 144.238 66.0621 143.081L68.47 141.736L65.2021 140.391L62.7942 141.736C60.3081 141.001 57.8845 140.751 55.5235 141.001C53.1624 141.251 50.8796 142.002 48.6437 143.237C48.331 143.378 47.8775 143.659 47.299 144.019Z" stroke="#222D4E" stroke-width="0.75" stroke-miterlimit="10" stroke-linejoin="round"/>
<path d="M18.1383 128.493C24.0956 120.847 35.7912 115.64 49.2381 115.64C62.685 115.64 74.3806 120.847 80.3379 128.493H84.325L84.4814 139.015C84.497 139.375 84.5596 139.719 84.5596 140.079C84.5596 153.572 68.7517 164.517 49.2381 164.517C29.7401 164.517 13.9166 153.572 13.9166 140.079V128.493H18.1383Z" fill="#00DEBF"/>
<path d="M49.2381 164.517C29.7306 164.517 13.9166 153.576 13.9166 140.079C13.9166 126.582 29.7306 115.64 49.2381 115.64C68.7456 115.64 84.5596 126.582 84.5596 140.079C84.5596 153.576 68.7456 164.517 49.2381 164.517Z" fill="white"/>
<path d="M18.1383 128.493C24.0956 120.847 35.7912 115.64 49.2381 115.64C62.685 115.64 74.3806 120.847 80.3379 128.493H84.325L84.4814 139.015C84.497 139.375 84.5596 139.719 84.5596 140.079C84.5596 153.572 68.7517 164.517 49.2381 164.517C29.7401 164.517 13.9166 153.572 13.9166 140.079V128.493H18.1383V128.493Z" stroke="#222D4E" stroke-width="0.75" stroke-miterlimit="10" stroke-linejoin="round"/>
<path d="M49.2381 164.517C29.7306 164.517 13.9166 153.576 13.9166 140.079C13.9166 126.582 29.7306 115.64 49.2381 115.64C68.7456 115.64 84.5596 126.582 84.5596 140.079C84.5596 153.576 68.7456 164.517 49.2381 164.517Z" stroke="#222D4E" stroke-width="0.75" stroke-miterlimit="10" stroke-linejoin="round"/>
<path d="M49.2381 152.931C29.7306 152.931 13.9166 141.99 13.9166 128.493C13.9166 114.996 29.7306 104.054 49.2381 104.054C68.7456 104.054 84.5596 114.996 84.5596 128.493C84.5596 141.99 68.7456 152.931 49.2381 152.931Z" fill="white"/>
<path d="M49.2381 152.931C29.7306 152.931 13.9166 141.99 13.9166 128.493C13.9166 114.996 29.7306 104.054 49.2381 104.054C68.7456 104.054 84.5596 114.996 84.5596 128.493C84.5596 141.99 68.7456 152.931 49.2381 152.931Z" stroke="#222D4E" stroke-width="0.75" stroke-miterlimit="10" stroke-linejoin="round"/>
<path d="M49.0505 164.47C49.0661 164.189 49.0505 163.907 49.0192 163.626V153.041" stroke="#222D4E" stroke-width="0.75" stroke-miterlimit="10" stroke-linejoin="round"/>
<path d="M41.373 163.673V152.384" stroke="#222D4E" stroke-width="0.75" stroke-miterlimit="10" stroke-linejoin="round"/>
<path d="M34.0713 162.062V150.773" stroke="#222D4E" stroke-width="0.75" stroke-miterlimit="10" stroke-linejoin="round"/>
<path d="M27.3633 159.342V147.99" stroke="#222D4E" stroke-width="0.75" stroke-miterlimit="10" stroke-linejoin="round"/>
<path d="M21.625 155.511V144.113" stroke="#222D4E" stroke-width="0.75" stroke-miterlimit="10" stroke-linejoin="round"/>
<path d="M16.418 149.085V137.749" stroke="#222D4E" stroke-width="0.75" stroke-miterlimit="10" stroke-linejoin="round"/>
<path d="M56.8682 163.673V152.384" stroke="#222D4E" stroke-width="0.75" stroke-miterlimit="10" stroke-linejoin="round"/>
<path d="M64.1553 162.062V150.773" stroke="#222D4E" stroke-width="0.75" stroke-miterlimit="10" stroke-linejoin="round"/>
<path d="M70.8779 159.342V147.99" stroke="#222D4E" stroke-width="0.75" stroke-miterlimit="10" stroke-linejoin="round"/>
<path d="M76.6006 155.511V144.113" stroke="#222D4E" stroke-width="0.75" stroke-miterlimit="10" stroke-linejoin="round"/>
<path d="M81.8232 149.085V137.749" stroke="#222D4E" stroke-width="0.75" stroke-miterlimit="10" stroke-linejoin="round"/>
<path d="M49.2378 147.38C34.1603 147.38 21.9375 138.924 21.9375 128.493C21.9375 118.061 34.1603 109.605 49.2378 109.605C64.3153 109.605 76.5381 118.061 76.5381 128.493C76.5381 138.924 64.3153 147.38 49.2378 147.38Z" fill="white"/>
<path d="M49.2378 147.38C34.1603 147.38 21.9375 138.924 21.9375 128.493C21.9375 118.061 34.1603 109.605 49.2378 109.605C64.3153 109.605 76.5381 118.061 76.5381 128.493C76.5381 138.924 64.3153 147.38 49.2378 147.38Z" stroke="#222D4E" stroke-width="0.75" stroke-miterlimit="10" stroke-linejoin="round"/>
<path d="M47.299 121.551L54.4133 124.474L55.6642 123.786C56.9932 123.052 57.947 122.598 58.5256 122.442C59.1041 122.285 59.6513 122.317 60.1986 122.536C60.6364 122.708 60.7771 122.942 60.6364 123.239C60.4957 123.521 60.0735 123.865 59.3699 124.255C58.1816 124.912 57.134 125.287 56.2115 125.366C55.3046 125.444 53.0999 125.428 49.6131 125.319C46.6423 125.209 44.5314 125.209 43.2493 125.272C41.9828 125.35 40.5443 125.6 38.9651 126.038C37.3858 126.476 35.7597 127.164 34.071 128.102C31.3817 129.587 29.8806 131.01 29.5679 132.37C29.2552 133.731 30.1308 134.997 32.2104 136.201L29.3646 137.78L32.6325 139.125L35.5721 137.499C37.6673 138.171 40.1065 138.421 42.874 138.265C45.6416 138.093 48.7219 137.077 52.0836 135.216L53.5533 134.403L46.439 131.479L44.594 132.511C42.5613 133.637 41.2323 134.309 40.5912 134.512C39.9501 134.731 39.356 134.716 38.7931 134.481C38.3084 134.278 38.1207 134.043 38.2302 133.746C38.3396 133.465 38.7305 133.136 39.4029 132.761C41.0915 131.823 42.4206 131.198 43.3744 130.885C44.3282 130.572 45.8761 130.447 48.0495 130.51C51.6614 130.604 54.2101 130.619 55.6642 130.572C57.1183 130.51 58.7601 130.26 60.5582 129.822C62.3564 129.368 64.045 128.712 65.593 127.852C67.8446 126.601 69.0172 125.366 69.0954 124.162C69.1736 122.958 68.1573 121.769 66.0621 120.612L68.47 119.268L65.2021 117.923L62.7942 119.268C60.3081 118.533 57.8845 118.283 55.5235 118.533C53.1624 118.783 50.8796 119.534 48.6437 120.769C48.331 120.894 47.8775 121.175 47.299 121.551Z" fill="white"/>
<path d="M47.299 121.551L54.4133 124.474L55.6642 123.786C56.9932 123.052 57.947 122.598 58.5256 122.442C59.1041 122.285 59.6513 122.317 60.1986 122.536C60.6364 122.708 60.7771 122.942 60.6364 123.239C60.4957 123.521 60.0735 123.865 59.3699 124.255C58.1816 124.912 57.134 125.287 56.2115 125.366C55.3046 125.444 53.0999 125.428 49.6131 125.319C46.6423 125.209 44.5314 125.209 43.2493 125.272C41.9828 125.35 40.5443 125.6 38.9651 126.038C37.3858 126.476 35.7597 127.164 34.071 128.102C31.3817 129.587 29.8806 131.01 29.5679 132.37C29.2552 133.731 30.1308 134.997 32.2104 136.201L29.3646 137.78L32.6325 139.125L35.5721 137.499C37.6673 138.171 40.1065 138.421 42.874 138.265C45.6416 138.093 48.7219 137.077 52.0836 135.216L53.5533 134.403L46.439 131.479L44.594 132.511C42.5613 133.637 41.2323 134.309 40.5912 134.512C39.9501 134.731 39.356 134.716 38.7931 134.481C38.3084 134.278 38.1207 134.043 38.2302 133.746C38.3396 133.465 38.7305 133.136 39.4029 132.761C41.0915 131.823 42.4206 131.198 43.3744 130.885C44.3282 130.572 45.8761 130.447 48.0495 130.51C51.6614 130.604 54.2101 130.619 55.6642 130.572C57.1183 130.51 58.7601 130.26 60.5582 129.822C62.3564 129.368 64.045 128.712 65.593 127.852C67.8446 126.601 69.0172 125.366 69.0954 124.162C69.1736 122.958 68.1573 121.769 66.0621 120.612L68.47 119.268L65.2021 117.923L62.7942 119.268C60.3081 118.533 57.8845 118.283 55.5235 118.533C53.1624 118.783 50.8796 119.534 48.6437 120.769C48.331 120.894 47.8775 121.175 47.299 121.551Z" stroke="#222D4E" stroke-width="0.75" stroke-miterlimit="10" stroke-linejoin="round"/>
<path d="M0.579437 142.768L13.7449 119.799L26.6445 118.517L37.5114 82.0551L50.3172 81.8675L58.8544 48.9547L74.1776 51.9567L88.0154 0.593994L99.883 12.7584L106.81 33.9289L116.457 50.9248L136.064 63.011L0.579437 142.768Z" fill="white"/>
<path d="M0.579435 142.768L13.7449 119.799L26.6445 118.517L37.5114 82.0551L50.3172 81.8675L58.8544 48.9547L74.1776 51.9567L88.0154 0.593994L99.883 12.7584L106.81 33.9289L116.457 50.9248L136.064 63.011L0.579435 142.768Z" stroke="#222D4E" stroke-width="0.75" stroke-miterlimit="10" stroke-linejoin="round"/>
<path d="M20.9369 154.776L34.0867 131.823L46.9863 130.525L57.8689 94.0632L70.659 93.8755L79.1962 60.9784L94.5194 63.9648L108.373 12.6021L120.225 24.7665L127.167 45.937L136.799 62.9328L156.406 75.0347L20.9369 154.776Z" fill="white"/>
<path d="M20.9369 154.776L34.0867 131.823L46.9863 130.525L57.8689 94.0632L70.659 93.8755L79.1962 60.9784L94.5194 63.9648L108.373 12.6021L120.225 24.7665L127.167 45.937L136.799 62.9328L156.406 75.0347L20.9369 154.776Z" stroke="#222D4E" stroke-width="0.75" stroke-miterlimit="10" stroke-linejoin="round"/>
<path d="M20.9371 154.776L34.0869 131.823L46.9865 130.525L57.8691 94.0632L70.6593 93.8756L79.1965 60.9784L94.5196 63.9648L108.373 12.6021L88.0151 0.593994L74.1774 51.9567L58.8542 48.9547L50.317 81.8675L37.5112 82.0551L26.6442 118.517L13.7446 119.799L0.579208 142.768L20.9371 154.776Z" fill="#3761EA"/>
<path d="M20.9371 154.776L34.0869 131.823L46.9865 130.525L57.8691 94.0632L70.6593 93.8756L79.1965 60.9784L94.5196 63.9648L108.373 12.6021L88.0151 0.593994L74.1774 51.9567L58.8542 48.9547L50.317 81.8675L37.5112 82.0551L26.6442 118.517L13.7446 119.799L0.579211 142.768L20.9371 154.776Z" stroke="#222D4E" stroke-width="0.75" stroke-miterlimit="10" stroke-linejoin="round"/>
</svg>
