<svg width="125" height="238" viewBox="0 0 125 238" fill="none" xmlns="http://www.w3.org/2000/svg">
<path d="M120.852 199.651C108.362 191.762 96.4372 183.065 84.2224 174.765C72.5413 166.815 60.3417 159.657 48.7216 151.631C46.0072 149.757 43.369 147.808 40.7461 145.828C38.0774 143.802 35.424 141.746 32.8011 139.66C35.0123 141.274 34.7835 141.091 32.1149 139.127C26.2743 134.923 20.2203 131.04 14.3645 126.836C9.68289 123.485 5.04705 119.998 0.6247 116.297L0.609451 117.013C0.563702 117.531 0.533203 118.064 0.533203 118.581C0.533203 120.348 0.822943 122.069 1.35668 123.729C0.822943 125.389 0.533203 127.11 0.533203 128.877C0.533203 129.715 0.594201 130.552 0.716197 131.375L0.609451 138.578C0.563702 139.096 0.533203 139.629 0.533203 140.147C0.533203 141.99 0.853442 143.787 1.41767 145.508C0.838193 147.229 0.533203 149.026 0.533203 150.869C0.533203 151.707 0.594201 152.544 0.716197 153.367L0.609451 160.571C0.563702 161.088 0.533203 161.622 0.533203 162.139C0.533203 163.54 0.716197 164.926 1.06694 166.267C0.731446 167.607 0.533203 168.978 0.533203 170.394C0.533203 171.232 0.594201 172.069 0.716197 172.892L0.609451 180.096C0.563702 180.613 0.533203 181.146 0.533203 181.664C0.533203 183.309 0.777195 184.908 1.23468 186.462C1.89041 188.685 3.00362 190.787 4.49807 192.737C4.60482 192.889 4.72681 193.026 4.83356 193.178C6.84649 195.676 9.48465 197.899 12.5955 199.742C12.9005 199.925 13.2055 200.093 13.5258 200.275C19.4121 203.519 26.8691 205.454 34.9818 205.454C42.7438 205.454 49.8958 203.687 55.6601 200.687C55.5686 201.402 55.5076 202.118 55.5076 202.864C55.5076 203.702 55.5686 204.54 55.6906 205.362L55.5838 212.566C55.5381 213.084 55.4923 213.617 55.4923 214.135C55.4923 217.013 56.2243 219.77 57.5815 222.313C57.7798 222.679 57.978 223.044 58.1915 223.395C58.6337 224.11 59.1065 224.796 59.6402 225.481C59.8994 225.816 60.1739 226.151 60.4637 226.471C61.3329 227.446 62.2936 228.39 63.3458 229.273C63.6966 229.563 64.0625 229.852 64.4285 230.142C70.7266 234.924 79.8153 237.939 89.9257 237.939C99.7768 237.939 108.667 235.076 114.935 230.492C115.469 230.096 116.002 229.7 116.49 229.273C117.542 228.39 118.503 227.461 119.372 226.471C119.83 225.953 120.242 225.42 120.638 224.887C121.004 224.4 121.34 223.897 121.645 223.395C121.858 223.044 122.072 222.679 122.255 222.313C123.612 219.755 124.344 217.013 124.344 214.135V202.849C124.344 202.331 124.298 201.829 124.237 201.326C123.109 200.9 121.95 200.336 120.852 199.651Z" fill="#D6D6D6"/>
<path d="M65.3433 164.637C59.5332 157.189 48.1266 152.118 35.012 152.118C21.8975 152.118 10.4909 157.189 4.68084 164.637H0.792219L0.639724 174.887C0.624474 175.237 0.563477 175.572 0.563477 175.922C0.563477 189.066 15.9807 199.727 35.012 199.727C54.0281 199.727 69.4606 189.066 69.4606 175.922V164.637H65.3433Z" fill="#00DEBF"/>
<path d="M35.012 199.727C54.0375 199.727 69.4606 189.069 69.4606 175.922C69.4606 162.775 54.0375 152.118 35.012 152.118C15.9866 152.118 0.563477 162.775 0.563477 175.922C0.563477 189.069 15.9866 199.727 35.012 199.727Z" fill="white"/>
<path d="M65.3433 164.637C59.5332 157.189 48.1266 152.118 35.012 152.118C21.8975 152.118 10.4909 157.189 4.68084 164.637H0.792219L0.639724 174.887C0.624474 175.237 0.563477 175.572 0.563477 175.922C0.563477 189.066 15.9807 199.727 35.012 199.727C54.0281 199.727 69.4606 189.066 69.4606 175.922V164.637H65.3433V164.637Z" stroke="#222D4E" stroke-width="0.75" stroke-miterlimit="10" stroke-linejoin="round"/>
<path d="M35.012 199.727C54.0375 199.727 69.4606 189.069 69.4606 175.922C69.4606 162.775 54.0375 152.118 35.012 152.118C15.9866 152.118 0.563477 162.775 0.563477 175.922C0.563477 189.069 15.9866 199.727 35.012 199.727Z" stroke="#222D4E" stroke-width="0.75" stroke-miterlimit="10" stroke-linejoin="round"/>
<path d="M35.012 188.441C54.0375 188.441 69.4606 177.784 69.4606 164.637C69.4606 151.49 54.0375 140.832 35.012 140.832C15.9866 140.832 0.563477 151.49 0.563477 164.637C0.563477 177.784 15.9866 188.441 35.012 188.441Z" fill="white"/>
<path d="M35.012 188.441C54.0375 188.441 69.4606 177.784 69.4606 164.637C69.4606 151.49 54.0375 140.832 35.012 140.832C15.9866 140.832 0.563477 151.49 0.563477 164.637C0.563477 177.784 15.9866 188.441 35.012 188.441Z" stroke="#222D4E" stroke-width="0.75" stroke-miterlimit="10" stroke-linejoin="round"/>
<path d="M35.2101 199.681C35.1948 199.407 35.2101 199.133 35.2406 198.859V188.548" stroke="#222D4E" stroke-width="0.75" stroke-miterlimit="10" stroke-linejoin="round"/>
<path d="M42.6973 198.904V187.908" stroke="#222D4E" stroke-width="0.75" stroke-miterlimit="10" stroke-linejoin="round"/>
<path d="M49.8037 197.336V186.324" stroke="#222D4E" stroke-width="0.75" stroke-miterlimit="10" stroke-linejoin="round"/>
<path d="M56.3613 194.686V183.629" stroke="#222D4E" stroke-width="0.75" stroke-miterlimit="10" stroke-linejoin="round"/>
<path d="M61.9424 190.954V179.836" stroke="#222D4E" stroke-width="0.75" stroke-miterlimit="10" stroke-linejoin="round"/>
<path d="M67.0361 184.695V173.638" stroke="#222D4E" stroke-width="0.75" stroke-miterlimit="10" stroke-linejoin="round"/>
<path d="M27.585 198.904V187.908" stroke="#222D4E" stroke-width="0.75" stroke-miterlimit="10" stroke-linejoin="round"/>
<path d="M20.4639 197.336V186.324" stroke="#222D4E" stroke-width="0.75" stroke-miterlimit="10" stroke-linejoin="round"/>
<path d="M13.9219 194.686V183.629" stroke="#222D4E" stroke-width="0.75" stroke-miterlimit="10" stroke-linejoin="round"/>
<path d="M8.3252 190.954V179.836" stroke="#222D4E" stroke-width="0.75" stroke-miterlimit="10" stroke-linejoin="round"/>
<path d="M3.24707 184.695V173.638" stroke="#222D4E" stroke-width="0.75" stroke-miterlimit="10" stroke-linejoin="round"/>
<path d="M35.0123 183.035C49.7172 183.035 61.6379 174.798 61.6379 164.637C61.6379 154.476 49.7172 146.239 35.0123 146.239C20.3074 146.239 8.38672 154.476 8.38672 164.637C8.38672 174.798 20.3074 183.035 35.0123 183.035Z" fill="white"/>
<path d="M35.0123 183.035C49.7172 183.035 61.6379 174.798 61.6379 164.637C61.6379 154.476 49.7172 146.239 35.0123 146.239C20.3074 146.239 8.38672 154.476 8.38672 164.637C8.38672 174.798 20.3074 183.035 35.0123 183.035Z" stroke="#222D4E" stroke-width="0.75" stroke-miterlimit="10" stroke-linejoin="round"/>
<path d="M36.9181 157.875L29.9796 160.723L28.7596 160.053C27.4634 159.337 26.5332 158.895 25.969 158.743C25.4048 158.591 24.871 158.621 24.3373 158.834C23.9103 159.002 23.7731 159.23 23.9103 159.52C24.0475 159.794 24.4593 160.129 25.1455 160.509C26.3045 161.149 27.3262 161.515 28.2259 161.591C29.1104 161.667 31.2605 161.652 34.6612 161.545C37.5586 161.439 39.6173 161.439 40.8677 161.499C42.1029 161.576 43.5059 161.819 45.0461 162.246C46.5863 162.672 48.1722 163.342 49.8192 164.256C52.4421 165.703 53.906 167.089 54.211 168.414C54.516 169.739 53.662 170.973 51.6339 172.145L54.4093 173.683L51.2221 174.993L48.3552 173.409C46.3118 174.064 43.9329 174.308 41.2337 174.156C38.5346 173.988 35.5457 173.013 32.2518 171.186L30.8183 170.394L37.7568 167.546L39.5563 168.551C41.5387 169.648 42.8349 170.302 43.4601 170.5C44.0854 170.714 44.6648 170.698 45.2138 170.47C45.6866 170.272 45.8695 170.043 45.7628 169.754C45.6561 169.48 45.2748 169.16 44.6191 168.795C42.9721 167.881 41.6759 167.272 40.7457 166.967C39.8155 166.662 38.3058 166.541 36.1861 166.602C32.6635 166.693 30.1778 166.708 28.7596 166.662C27.3414 166.602 25.7402 166.358 23.9865 165.931C22.2329 165.49 20.5859 164.85 19.0762 164.012C16.8803 162.794 15.7366 161.591 15.6603 160.418C15.5841 159.245 16.5753 158.088 18.6187 156.961L16.2703 155.651L19.4575 154.341L21.8059 155.651C24.2305 154.935 26.5942 154.692 28.8969 154.935C31.1996 155.179 33.426 155.91 35.6066 157.113C35.8964 157.235 36.3386 157.509 36.9181 157.875Z" fill="white"/>
<path d="M36.9181 157.875L29.9796 160.723L28.7596 160.053C27.4634 159.337 26.5332 158.895 25.969 158.743C25.4048 158.591 24.871 158.621 24.3373 158.834C23.9103 159.002 23.7731 159.23 23.9103 159.52C24.0475 159.794 24.4593 160.129 25.1455 160.509C26.3045 161.149 27.3262 161.515 28.2259 161.591C29.1104 161.667 31.2605 161.652 34.6612 161.545C37.5586 161.439 39.6173 161.439 40.8677 161.499C42.1029 161.576 43.5059 161.819 45.0461 162.246C46.5863 162.672 48.1722 163.342 49.8192 164.256C52.4421 165.703 53.906 167.089 54.211 168.414C54.516 169.739 53.662 170.973 51.6339 172.145L54.4093 173.683L51.2221 174.993L48.3552 173.409C46.3118 174.064 43.9329 174.308 41.2337 174.156C38.5346 173.988 35.5457 173.013 32.2518 171.186L30.8183 170.394L37.7568 167.546L39.5563 168.551C41.5387 169.648 42.8349 170.302 43.4601 170.5C44.0854 170.714 44.6648 170.698 45.2138 170.47C45.6866 170.272 45.8695 170.043 45.7628 169.754C45.6561 169.48 45.2748 169.16 44.6191 168.795C42.9721 167.881 41.6759 167.272 40.7457 166.967C39.8155 166.662 38.3058 166.541 36.1861 166.602C32.6635 166.693 30.1778 166.708 28.7596 166.662C27.3414 166.602 25.7402 166.358 23.9865 165.931C22.2329 165.49 20.5859 164.85 19.0762 164.012C16.8803 162.794 15.7366 161.591 15.6603 160.418C15.5841 159.245 16.5753 158.088 18.6187 156.961L16.2703 155.651L19.4575 154.341L21.8059 155.651C24.2305 154.935 26.5942 154.692 28.8969 154.935C31.1996 155.179 33.426 155.91 35.6067 157.113C35.8964 157.235 36.3386 157.509 36.9181 157.875Z" stroke="#222D4E" stroke-width="0.75" stroke-miterlimit="10" stroke-linejoin="round"/>
<path d="M65.3433 145.112C59.5332 137.664 48.1266 132.593 35.012 132.593C21.8975 132.593 10.5061 137.649 4.68084 145.112H0.792219L0.639724 155.346C0.624474 155.697 0.563477 156.032 0.563477 156.382C0.563477 169.526 15.9807 180.187 35.012 180.187C54.0281 180.187 69.4606 169.526 69.4606 156.382V145.097H65.3433V145.112Z" fill="#00DEBF"/>
<path d="M35.012 180.187C54.0375 180.187 69.4606 169.529 69.4606 156.382C69.4606 143.235 54.0375 132.578 35.012 132.578C15.9866 132.578 0.563477 143.235 0.563477 156.382C0.563477 169.529 15.9866 180.187 35.012 180.187Z" fill="white"/>
<path d="M65.3433 145.112C59.5332 137.664 48.1266 132.593 35.012 132.593C21.8975 132.593 10.5061 137.649 4.68084 145.112H0.792219L0.639724 155.346C0.624474 155.697 0.563477 156.032 0.563477 156.382C0.563477 169.526 15.9807 180.187 35.012 180.187C54.0281 180.187 69.4606 169.526 69.4606 156.382V145.097H65.3433V145.112Z" stroke="#222D4E" stroke-width="0.75" stroke-miterlimit="10" stroke-linejoin="round"/>
<path d="M35.012 180.187C54.0375 180.187 69.4606 169.529 69.4606 156.382C69.4606 143.235 54.0375 132.578 35.012 132.578C15.9866 132.578 0.563477 143.235 0.563477 156.382C0.563477 169.529 15.9866 180.187 35.012 180.187Z" stroke="#222D4E" stroke-width="0.75" stroke-miterlimit="10" stroke-linejoin="round"/>
<path d="M35.012 168.917C54.0375 168.917 69.4606 158.259 69.4606 145.112C69.4606 131.965 54.0375 121.307 35.012 121.307C15.9866 121.307 0.563477 131.965 0.563477 145.112C0.563477 158.259 15.9866 168.917 35.012 168.917Z" fill="white"/>
<path d="M35.012 168.917C54.0375 168.917 69.4606 158.259 69.4606 145.112C69.4606 131.965 54.0375 121.307 35.012 121.307C15.9866 121.307 0.563477 131.965 0.563477 145.112C0.563477 158.259 15.9866 168.917 35.012 168.917Z" stroke="#222D4E" stroke-width="0.75" stroke-miterlimit="10" stroke-linejoin="round"/>
<path d="M35.2101 180.141C35.1948 179.867 35.2101 179.593 35.2406 179.319V169.008" stroke="#222D4E" stroke-width="0.75" stroke-miterlimit="10" stroke-linejoin="round"/>
<path d="M42.6973 179.379V168.383" stroke="#222D4E" stroke-width="0.75" stroke-miterlimit="10" stroke-linejoin="round"/>
<path d="M49.8037 177.795V166.799" stroke="#222D4E" stroke-width="0.75" stroke-miterlimit="10" stroke-linejoin="round"/>
<path d="M56.3613 175.145V164.088" stroke="#222D4E" stroke-width="0.75" stroke-miterlimit="10" stroke-linejoin="round"/>
<path d="M61.9424 171.429V160.312" stroke="#222D4E" stroke-width="0.75" stroke-miterlimit="10" stroke-linejoin="round"/>
<path d="M67.0361 165.17V154.113" stroke="#222D4E" stroke-width="0.75" stroke-miterlimit="10" stroke-linejoin="round"/>
<path d="M27.585 179.379V168.383" stroke="#222D4E" stroke-width="0.75" stroke-miterlimit="10" stroke-linejoin="round"/>
<path d="M20.4639 177.795V166.799" stroke="#222D4E" stroke-width="0.75" stroke-miterlimit="10" stroke-linejoin="round"/>
<path d="M13.9219 175.145V164.088" stroke="#222D4E" stroke-width="0.75" stroke-miterlimit="10" stroke-linejoin="round"/>
<path d="M8.3252 171.429V160.312" stroke="#222D4E" stroke-width="0.75" stroke-miterlimit="10" stroke-linejoin="round"/>
<path d="M3.24707 165.17V154.113" stroke="#222D4E" stroke-width="0.75" stroke-miterlimit="10" stroke-linejoin="round"/>
<path d="M35.0123 163.51C49.7172 163.51 61.6379 155.273 61.6379 145.112C61.6379 134.951 49.7172 126.714 35.0123 126.714C20.3074 126.714 8.38672 134.951 8.38672 145.112C8.38672 155.273 20.3074 163.51 35.0123 163.51Z" fill="white"/>
<path d="M35.0123 163.51C49.7172 163.51 61.6379 155.273 61.6379 145.112C61.6379 134.951 49.7172 126.714 35.0123 126.714C20.3074 126.714 8.38672 134.951 8.38672 145.112C8.38672 155.273 20.3074 163.51 35.0123 163.51Z" stroke="#222D4E" stroke-width="0.75" stroke-miterlimit="10" stroke-linejoin="round"/>
<path d="M36.9181 138.335L29.9796 141.183L28.7596 140.513C27.4634 139.797 26.5332 139.355 25.969 139.203C25.4048 139.05 24.871 139.081 24.3373 139.294C23.9103 139.462 23.7731 139.69 23.9103 139.979C24.0475 140.254 24.4593 140.589 25.1455 140.969C26.3045 141.609 27.3262 141.975 28.2259 142.051C29.1104 142.127 31.2605 142.112 34.6612 142.005C37.5586 141.898 39.6173 141.898 40.8677 141.959C42.1029 142.036 43.5059 142.279 45.0461 142.706C46.5863 143.132 48.1722 143.802 49.8192 144.716C52.4421 146.163 53.906 147.549 54.211 148.874C54.516 150.199 53.662 151.432 51.6339 152.605L54.4093 154.143L51.2221 155.453L48.3552 153.869C46.3118 154.524 43.9329 154.768 41.2337 154.616C38.5346 154.448 35.5457 153.473 32.2518 151.646L30.8183 150.854L37.7568 148.006L39.5563 149.011C41.5387 150.107 42.8349 150.762 43.4601 150.96C44.0854 151.174 44.6648 151.158 45.2138 150.93C45.6866 150.732 45.8695 150.503 45.7628 150.214C45.6561 149.94 45.2748 149.62 44.6191 149.255C42.9721 148.341 41.6759 147.732 40.7457 147.427C39.8155 147.122 38.3058 147.001 36.1861 147.061C32.6635 147.153 30.1778 147.168 28.7596 147.122C27.3414 147.061 25.7402 146.818 23.9865 146.391C22.2329 145.95 20.5859 145.31 19.0762 144.472C16.8803 143.254 15.7366 142.051 15.6603 140.878C15.5841 139.705 16.5753 138.548 18.6187 137.421L16.2703 136.111L19.4575 134.801L21.8059 136.111C24.2305 135.395 26.5942 135.152 28.8969 135.395C31.1996 135.639 33.426 136.37 35.6066 137.573C35.8964 137.71 36.3386 137.969 36.9181 138.335Z" fill="white"/>
<path d="M36.9181 138.335L29.9796 141.183L28.7596 140.513C27.4634 139.797 26.5332 139.355 25.969 139.203C25.4048 139.05 24.871 139.081 24.3373 139.294C23.9103 139.462 23.7731 139.69 23.9103 139.979C24.0475 140.254 24.4593 140.589 25.1455 140.969C26.3045 141.609 27.3262 141.975 28.2259 142.051C29.1104 142.127 31.2605 142.112 34.6612 142.005C37.5586 141.898 39.6173 141.898 40.8677 141.959C42.1029 142.036 43.5059 142.279 45.0461 142.706C46.5863 143.132 48.1722 143.802 49.8192 144.716C52.4421 146.163 53.906 147.549 54.211 148.874C54.516 150.199 53.662 151.432 51.6339 152.605L54.4093 154.143L51.2221 155.453L48.3552 153.869C46.3118 154.524 43.9329 154.768 41.2337 154.616C38.5346 154.448 35.5457 153.473 32.2518 151.646L30.8183 150.854L37.7568 148.006L39.5563 149.011C41.5387 150.107 42.8349 150.762 43.4601 150.96C44.0854 151.174 44.6648 151.158 45.2138 150.93C45.6866 150.732 45.8695 150.503 45.7628 150.214C45.6561 149.94 45.2748 149.62 44.6191 149.255C42.9721 148.341 41.6759 147.732 40.7457 147.427C39.8155 147.122 38.3058 147.001 36.1861 147.061C32.6635 147.153 30.1778 147.168 28.7596 147.122C27.3414 147.061 25.7402 146.818 23.9865 146.391C22.2329 145.95 20.5859 145.31 19.0762 144.472C16.8803 143.254 15.7366 142.051 15.6603 140.878C15.5841 139.705 16.5753 138.548 18.6187 137.421L16.2703 136.111L19.4575 134.801L21.8059 136.111C24.2305 135.395 26.5942 135.152 28.8969 135.395C31.1996 135.639 33.426 136.37 35.6067 137.573C35.8964 137.71 36.3386 137.969 36.9181 138.335Z" stroke="#222D4E" stroke-width="0.75" stroke-miterlimit="10" stroke-linejoin="round"/>
<path d="M65.3433 123.105C59.5332 115.657 48.1266 110.585 35.012 110.585C21.8975 110.585 10.5061 115.657 4.68084 123.105H0.792219L0.639724 133.354C0.624474 133.705 0.563477 134.04 0.563477 134.39C0.563477 147.534 15.9807 158.195 35.012 158.195C54.0281 158.195 69.4606 147.534 69.4606 134.39V123.105H65.3433Z" fill="#00DEBF"/>
<path d="M35.012 158.195C54.0375 158.195 69.4606 147.537 69.4606 134.39C69.4606 121.243 54.0375 110.585 35.012 110.585C15.9866 110.585 0.563477 121.243 0.563477 134.39C0.563477 147.537 15.9866 158.195 35.012 158.195Z" fill="white"/>
<path d="M65.3433 123.105C59.5332 115.657 48.1266 110.585 35.012 110.585C21.8975 110.585 10.5061 115.657 4.68084 123.105H0.792219L0.639724 133.354C0.624474 133.705 0.563477 134.04 0.563477 134.39C0.563477 147.534 15.9807 158.195 35.012 158.195C54.0281 158.195 69.4606 147.534 69.4606 134.39V123.105H65.3433V123.105Z" stroke="#222D4E" stroke-width="0.75" stroke-miterlimit="10" stroke-linejoin="round"/>
<path d="M35.012 158.195C54.0375 158.195 69.4606 147.537 69.4606 134.39C69.4606 121.243 54.0375 110.585 35.012 110.585C15.9866 110.585 0.563477 121.243 0.563477 134.39C0.563477 147.537 15.9866 158.195 35.012 158.195Z" stroke="#222D4E" stroke-width="0.75" stroke-miterlimit="10" stroke-linejoin="round"/>
<path d="M35.012 146.909C54.0375 146.909 69.4606 136.252 69.4606 123.105C69.4606 109.958 54.0375 99.3 35.012 99.3C15.9866 99.3 0.563477 109.958 0.563477 123.105C0.563477 136.252 15.9866 146.909 35.012 146.909Z" fill="white"/>
<path d="M35.012 146.909C54.0375 146.909 69.4606 136.252 69.4606 123.105C69.4606 109.958 54.0375 99.3 35.012 99.3C15.9866 99.3 0.563477 109.958 0.563477 123.105C0.563477 136.252 15.9866 146.909 35.012 146.909Z" stroke="#222D4E" stroke-width="0.75" stroke-miterlimit="10" stroke-linejoin="round"/>
<path d="M35.2101 158.149C35.1948 157.875 35.2101 157.601 35.2406 157.327V147.016" stroke="#222D4E" stroke-width="0.75" stroke-miterlimit="10" stroke-linejoin="round"/>
<path d="M42.6973 157.372V146.376" stroke="#222D4E" stroke-width="0.75" stroke-miterlimit="10" stroke-linejoin="round"/>
<path d="M49.8037 155.804V144.792" stroke="#222D4E" stroke-width="0.75" stroke-miterlimit="10" stroke-linejoin="round"/>
<path d="M56.3613 153.154V142.097" stroke="#222D4E" stroke-width="0.75" stroke-miterlimit="10" stroke-linejoin="round"/>
<path d="M61.9424 149.422V138.304" stroke="#222D4E" stroke-width="0.75" stroke-miterlimit="10" stroke-linejoin="round"/>
<path d="M67.0361 143.163V132.106" stroke="#222D4E" stroke-width="0.75" stroke-miterlimit="10" stroke-linejoin="round"/>
<path d="M27.585 157.372V146.376" stroke="#222D4E" stroke-width="0.75" stroke-miterlimit="10" stroke-linejoin="round"/>
<path d="M20.4639 155.804V144.792" stroke="#222D4E" stroke-width="0.75" stroke-miterlimit="10" stroke-linejoin="round"/>
<path d="M13.9219 153.154V142.097" stroke="#222D4E" stroke-width="0.75" stroke-miterlimit="10" stroke-linejoin="round"/>
<path d="M8.3252 149.422V138.304" stroke="#222D4E" stroke-width="0.75" stroke-miterlimit="10" stroke-linejoin="round"/>
<path d="M3.24707 143.163V132.106" stroke="#222D4E" stroke-width="0.75" stroke-miterlimit="10" stroke-linejoin="round"/>
<path d="M35.0123 141.503C49.7172 141.503 61.6379 133.266 61.6379 123.105C61.6379 112.944 49.7172 104.707 35.0123 104.707C20.3074 104.707 8.38672 112.944 8.38672 123.105C8.38672 133.266 20.3074 141.503 35.0123 141.503Z" fill="white"/>
<path d="M35.0123 141.503C49.7172 141.503 61.6379 133.266 61.6379 123.105C61.6379 112.944 49.7172 104.707 35.0123 104.707C20.3074 104.707 8.38672 112.944 8.38672 123.105C8.38672 133.266 20.3074 141.503 35.0123 141.503Z" stroke="#222D4E" stroke-width="0.75" stroke-miterlimit="10" stroke-linejoin="round"/>
<path d="M36.9181 116.342L29.9796 119.19L28.7596 118.52C27.4634 117.805 26.5332 117.363 25.969 117.211C25.4048 117.058 24.871 117.089 24.3373 117.302C23.9103 117.469 23.7731 117.698 23.9103 117.987C24.0475 118.261 24.4593 118.597 25.1455 118.977C26.3045 119.617 27.3262 119.982 28.2259 120.059C29.1104 120.135 31.2605 120.12 34.6612 120.013C37.5586 119.906 39.6173 119.906 40.8677 119.967C42.1029 120.043 43.5059 120.287 45.0461 120.713C46.5863 121.14 48.1722 121.81 49.8192 122.724C52.4421 124.171 53.906 125.557 54.211 126.882C54.516 128.207 53.662 129.44 51.6339 130.613L54.4093 132.151L51.2221 133.461L48.3552 131.877C46.3118 132.532 43.9329 132.776 41.2337 132.623C38.5346 132.456 35.5457 131.466 32.2518 129.654L30.8183 128.862L37.7568 126.014L39.5563 127.019C41.5387 128.115 42.8349 128.77 43.4601 128.968C44.0854 129.181 44.6648 129.166 45.2138 128.938C45.6866 128.74 45.8695 128.511 45.7628 128.222C45.6561 127.948 45.2748 127.628 44.6191 127.262C42.9721 126.349 41.6759 125.739 40.7457 125.435C39.8155 125.13 38.3058 125.008 36.1861 125.069C32.6635 125.161 30.1778 125.176 28.7596 125.13C27.3414 125.069 25.7402 124.826 23.9865 124.399C22.2329 123.957 20.5859 123.318 19.0762 122.48C16.8803 121.262 15.7366 120.059 15.6603 118.886C15.5841 117.713 16.5753 116.556 18.6187 115.429L16.2703 114.119L19.4575 112.809L21.8059 114.119C24.2305 113.403 26.5942 113.159 28.8969 113.403C31.1996 113.647 33.426 114.378 35.6066 115.581C35.8964 115.703 36.3386 115.977 36.9181 116.342Z" fill="white"/>
<path d="M36.9181 116.342L29.9796 119.19L28.7596 118.52C27.4634 117.805 26.5332 117.363 25.969 117.211C25.4048 117.058 24.871 117.089 24.3373 117.302C23.9103 117.469 23.7731 117.698 23.9103 117.987C24.0475 118.261 24.4593 118.597 25.1455 118.977C26.3045 119.617 27.3262 119.982 28.2259 120.059C29.1104 120.135 31.2605 120.12 34.6612 120.013C37.5586 119.906 39.6173 119.906 40.8677 119.967C42.1029 120.043 43.5059 120.287 45.0461 120.713C46.5863 121.14 48.1722 121.81 49.8192 122.724C52.4421 124.171 53.906 125.557 54.211 126.882C54.516 128.207 53.662 129.44 51.6339 130.613L54.4093 132.151L51.2221 133.461L48.3552 131.877C46.3118 132.532 43.9329 132.776 41.2337 132.623C38.5346 132.456 35.5457 131.466 32.2518 129.654L30.8183 128.862L37.7568 126.014L39.5563 127.019C41.5387 128.115 42.8349 128.77 43.4601 128.968C44.0854 129.181 44.6648 129.166 45.2138 128.938C45.6866 128.74 45.8695 128.511 45.7628 128.222C45.6561 127.948 45.2748 127.628 44.6191 127.262C42.9721 126.349 41.6759 125.739 40.7457 125.435C39.8155 125.13 38.3058 125.008 36.1861 125.069C32.6635 125.161 30.1778 125.176 28.7596 125.13C27.3414 125.069 25.7402 124.826 23.9865 124.399C22.2329 123.957 20.5859 123.318 19.0762 122.48C16.8803 121.262 15.7366 120.059 15.6603 118.886C15.5841 117.713 16.5753 116.556 18.6187 115.429L16.2703 114.119L19.4575 112.809L21.8059 114.119C24.2305 113.403 26.5942 113.159 28.8969 113.403C31.1996 113.647 33.426 114.378 35.6067 115.581C35.8964 115.703 36.3386 115.977 36.9181 116.342Z" stroke="#222D4E" stroke-width="0.75" stroke-miterlimit="10" stroke-linejoin="round"/>
<path d="M120.318 197.123C114.493 189.675 103.101 184.604 89.9867 184.604C76.8721 184.604 65.4655 189.675 59.6554 197.123H55.7668L55.6143 207.373C55.5991 207.723 55.5381 208.058 55.5381 208.408C55.5381 221.552 70.9553 232.213 89.9867 232.213C109.003 232.213 124.435 221.552 124.435 208.408V197.123H120.318Z" fill="#00DEBF"/>
<path d="M89.9867 232.213C109.012 232.213 124.435 221.555 124.435 208.408C124.435 195.261 109.012 184.604 89.9867 184.604C70.9612 184.604 55.5381 195.261 55.5381 208.408C55.5381 221.555 70.9612 232.213 89.9867 232.213Z" fill="white"/>
<path d="M120.318 197.123C114.493 189.675 103.101 184.604 89.9867 184.604C76.8721 184.604 65.4655 189.675 59.6554 197.123H55.7668L55.6143 207.373C55.5991 207.723 55.5381 208.058 55.5381 208.408C55.5381 221.552 70.9553 232.213 89.9867 232.213C109.003 232.213 124.435 221.552 124.435 208.408V197.123H120.318Z" stroke="#222D4E" stroke-width="0.75" stroke-miterlimit="10" stroke-linejoin="round"/>
<path d="M89.9867 232.213C109.012 232.213 124.435 221.555 124.435 208.408C124.435 195.261 109.012 184.604 89.9867 184.604C70.9612 184.604 55.5381 195.261 55.5381 208.408C55.5381 221.555 70.9612 232.213 89.9867 232.213Z" stroke="#222D4E" stroke-width="0.75" stroke-miterlimit="10" stroke-linejoin="round"/>
<path d="M89.9867 220.928C109.012 220.928 124.435 210.27 124.435 197.123C124.435 183.976 109.012 173.318 89.9867 173.318C70.9612 173.318 55.5381 183.976 55.5381 197.123C55.5381 210.27 70.9612 220.928 89.9867 220.928Z" fill="white"/>
<path d="M89.9867 220.928C109.012 220.928 124.435 210.27 124.435 197.123C124.435 183.976 109.012 173.318 89.9867 173.318C70.9612 173.318 55.5381 183.976 55.5381 197.123C55.5381 210.27 70.9612 220.928 89.9867 220.928Z" stroke="#222D4E" stroke-width="0.75" stroke-miterlimit="10" stroke-linejoin="round"/>
<path d="M90.17 232.167C90.1548 231.893 90.17 231.619 90.2005 231.345V221.034" stroke="#222D4E" stroke-width="0.75" stroke-miterlimit="10" stroke-linejoin="round"/>
<path d="M97.6572 231.391V220.395" stroke="#222D4E" stroke-width="0.75" stroke-miterlimit="10" stroke-linejoin="round"/>
<path d="M104.779 229.822V218.811" stroke="#222D4E" stroke-width="0.75" stroke-miterlimit="10" stroke-linejoin="round"/>
<path d="M111.321 227.172V216.115" stroke="#222D4E" stroke-width="0.75" stroke-miterlimit="10" stroke-linejoin="round"/>
<path d="M116.918 223.44V212.323" stroke="#222D4E" stroke-width="0.75" stroke-miterlimit="10" stroke-linejoin="round"/>
<path d="M121.996 217.181V206.124" stroke="#222D4E" stroke-width="0.75" stroke-miterlimit="10" stroke-linejoin="round"/>
<path d="M82.5449 231.391V220.395" stroke="#222D4E" stroke-width="0.75" stroke-miterlimit="10" stroke-linejoin="round"/>
<path d="M75.4395 229.822V218.811" stroke="#222D4E" stroke-width="0.75" stroke-miterlimit="10" stroke-linejoin="round"/>
<path d="M68.8818 227.172V216.115" stroke="#222D4E" stroke-width="0.75" stroke-miterlimit="10" stroke-linejoin="round"/>
<path d="M63.3008 223.44V212.323" stroke="#222D4E" stroke-width="0.75" stroke-miterlimit="10" stroke-linejoin="round"/>
<path d="M58.207 217.181V206.124" stroke="#222D4E" stroke-width="0.75" stroke-miterlimit="10" stroke-linejoin="round"/>
<path d="M89.9869 215.521C104.692 215.521 116.613 207.284 116.613 197.123C116.613 186.962 104.692 178.725 89.9869 178.725C75.282 178.725 63.3613 186.962 63.3613 197.123C63.3613 207.284 75.282 215.521 89.9869 215.521Z" fill="white"/>
<path d="M89.9869 215.521C104.692 215.521 116.613 207.284 116.613 197.123C116.613 186.962 104.692 178.725 89.9869 178.725C75.282 178.725 63.3613 186.962 63.3613 197.123C63.3613 207.284 75.282 215.521 89.9869 215.521Z" stroke="#222D4E" stroke-width="0.75" stroke-miterlimit="10" stroke-linejoin="round"/>
<path d="M91.8781 190.361L84.9396 193.209L83.7196 192.539C82.4234 191.823 81.4932 191.381 80.9289 191.229C80.3647 191.077 79.831 191.107 79.2972 191.32C78.8703 191.488 78.733 191.716 78.8703 192.006C79.0075 192.28 79.4192 192.615 80.1055 192.996C81.2644 193.635 82.2861 194.001 83.1859 194.077C84.0703 194.153 86.2205 194.138 89.6211 194.031C92.5185 193.94 94.5772 193.925 95.8277 193.986C97.0629 194.062 98.4658 194.305 100.006 194.732C101.546 195.158 103.132 195.828 104.779 196.742C107.402 198.189 108.866 199.575 109.171 200.9C109.476 202.225 108.622 203.459 106.594 204.631L109.369 206.17L106.182 207.479L103.315 205.895C101.272 206.55 98.8928 206.794 96.1937 206.642C93.4945 206.474 90.4904 205.484 87.2117 203.672L85.7783 202.88L92.7168 200.032L94.5162 201.037C96.4987 202.134 97.7949 202.788 98.4201 202.986C99.0453 203.2 99.6248 203.184 100.174 202.956C100.647 202.758 100.83 202.53 100.723 202.24C100.616 201.966 100.235 201.646 99.5791 201.281C97.9321 200.367 96.6359 199.758 95.7057 199.453C94.7755 199.149 93.2658 199.027 91.1461 199.088C87.6235 199.179 85.1378 199.194 83.7196 199.148C82.3014 199.088 80.7002 198.844 78.9465 198.417C77.1928 197.976 75.5459 197.336 74.0362 196.498C71.8403 195.28 70.6965 194.077 70.6203 192.904C70.544 191.731 71.5353 190.574 73.5787 189.447L71.2303 188.137L74.4174 186.827L76.7658 188.137C79.1905 187.421 81.5542 187.178 83.8568 187.421C86.1595 187.665 88.3859 188.396 90.5666 189.599C90.8716 189.721 91.3138 189.995 91.8781 190.361Z" fill="white"/>
<path d="M91.8781 190.361L84.9396 193.209L83.7196 192.539C82.4234 191.823 81.4932 191.381 80.9289 191.229C80.3647 191.077 79.831 191.107 79.2972 191.32C78.8703 191.488 78.733 191.716 78.8703 192.006C79.0075 192.28 79.4192 192.615 80.1055 192.996C81.2644 193.635 82.2861 194.001 83.1859 194.077C84.0703 194.153 86.2205 194.138 89.6211 194.031C92.5185 193.94 94.5772 193.925 95.8277 193.986C97.0629 194.062 98.4658 194.305 100.006 194.732C101.546 195.158 103.132 195.828 104.779 196.742C107.402 198.189 108.866 199.575 109.171 200.9C109.476 202.225 108.622 203.459 106.594 204.631L109.369 206.17L106.182 207.479L103.315 205.895C101.272 206.55 98.8928 206.794 96.1937 206.642C93.4945 206.474 90.4904 205.484 87.2117 203.672L85.7783 202.88L92.7168 200.032L94.5162 201.037C96.4987 202.134 97.7949 202.788 98.4201 202.986C99.0453 203.2 99.6248 203.184 100.174 202.956C100.647 202.758 100.83 202.53 100.723 202.24C100.616 201.966 100.235 201.646 99.5791 201.281C97.9321 200.367 96.6359 199.758 95.7057 199.453C94.7755 199.149 93.2658 199.027 91.1461 199.088C87.6235 199.179 85.1378 199.194 83.7196 199.148C82.3014 199.088 80.7002 198.844 78.9465 198.417C77.1928 197.976 75.5459 197.336 74.0362 196.498C71.8403 195.28 70.6965 194.077 70.6203 192.904C70.544 191.731 71.5353 190.574 73.5787 189.447L71.2303 188.137L74.4174 186.827L76.7658 188.137C79.1905 187.421 81.5542 187.178 83.8568 187.421C86.1595 187.665 88.3859 188.396 90.5666 189.599C90.8716 189.721 91.3138 189.995 91.8781 190.361Z" stroke="#222D4E" stroke-width="0.75" stroke-miterlimit="10" stroke-linejoin="round"/>
<path d="M120.318 177.598C114.493 170.15 103.101 165.079 89.9867 165.079C76.8721 165.079 65.4655 170.15 59.6554 177.598H55.7668L55.6143 187.848C55.5991 188.198 55.5381 188.533 55.5381 188.883C55.5381 202.027 70.9553 212.688 89.9867 212.688C109.003 212.688 124.435 202.027 124.435 188.883V177.598H120.318Z" fill="#00DEBF"/>
<path d="M89.9867 212.673C109.012 212.673 124.435 202.015 124.435 188.868C124.435 175.721 109.012 165.064 89.9867 165.064C70.9612 165.064 55.5381 175.721 55.5381 188.868C55.5381 202.015 70.9612 212.673 89.9867 212.673Z" fill="white"/>
<path d="M120.318 177.598C114.493 170.15 103.101 165.079 89.9867 165.079C76.8721 165.079 65.4655 170.15 59.6554 177.598H55.7668L55.6143 187.848C55.5991 188.198 55.5381 188.533 55.5381 188.883C55.5381 202.027 70.9553 212.688 89.9867 212.688C109.003 212.688 124.435 202.027 124.435 188.883V177.598H120.318V177.598Z" stroke="#222D4E" stroke-width="0.75" stroke-miterlimit="10" stroke-linejoin="round"/>
<path d="M89.9867 212.673C109.012 212.673 124.435 202.015 124.435 188.868C124.435 175.721 109.012 165.064 89.9867 165.064C70.9612 165.064 55.5381 175.721 55.5381 188.868C55.5381 202.015 70.9612 212.673 89.9867 212.673Z" stroke="#222D4E" stroke-width="0.75" stroke-miterlimit="10" stroke-linejoin="round"/>
<path d="M89.9867 201.403C109.012 201.403 124.435 190.745 124.435 177.598C124.435 164.451 109.012 153.793 89.9867 153.793C70.9612 153.793 55.5381 164.451 55.5381 177.598C55.5381 190.745 70.9612 201.403 89.9867 201.403Z" fill="white"/>
<path d="M89.9867 201.403C109.012 201.403 124.435 190.745 124.435 177.598C124.435 164.451 109.012 153.793 89.9867 153.793C70.9612 153.793 55.5381 164.451 55.5381 177.598C55.5381 190.745 70.9612 201.403 89.9867 201.403Z" stroke="#222D4E" stroke-width="0.75" stroke-miterlimit="10" stroke-linejoin="round"/>
<path d="M90.17 212.627C90.1548 212.353 90.17 212.079 90.2005 211.805V201.494" stroke="#222D4E" stroke-width="0.75" stroke-miterlimit="10" stroke-linejoin="round"/>
<path d="M97.6572 211.866V200.87" stroke="#222D4E" stroke-width="0.75" stroke-miterlimit="10" stroke-linejoin="round"/>
<path d="M104.779 210.282V199.286" stroke="#222D4E" stroke-width="0.75" stroke-miterlimit="10" stroke-linejoin="round"/>
<path d="M111.321 207.632V196.575" stroke="#222D4E" stroke-width="0.75" stroke-miterlimit="10" stroke-linejoin="round"/>
<path d="M116.918 203.916V192.798" stroke="#222D4E" stroke-width="0.75" stroke-miterlimit="10" stroke-linejoin="round"/>
<path d="M121.996 197.656V186.599" stroke="#222D4E" stroke-width="0.75" stroke-miterlimit="10" stroke-linejoin="round"/>
<path d="M82.5449 211.866V200.87" stroke="#222D4E" stroke-width="0.75" stroke-miterlimit="10" stroke-linejoin="round"/>
<path d="M75.4395 210.282V199.286" stroke="#222D4E" stroke-width="0.75" stroke-miterlimit="10" stroke-linejoin="round"/>
<path d="M68.8818 207.632V196.575" stroke="#222D4E" stroke-width="0.75" stroke-miterlimit="10" stroke-linejoin="round"/>
<path d="M63.3008 203.916V192.798" stroke="#222D4E" stroke-width="0.75" stroke-miterlimit="10" stroke-linejoin="round"/>
<path d="M58.207 197.656V186.599" stroke="#222D4E" stroke-width="0.75" stroke-miterlimit="10" stroke-linejoin="round"/>
<path d="M89.9869 195.996C104.692 195.996 116.613 187.759 116.613 177.598C116.613 167.437 104.692 159.2 89.9869 159.2C75.282 159.2 63.3613 167.437 63.3613 177.598C63.3613 187.759 75.282 195.996 89.9869 195.996Z" fill="white"/>
<path d="M89.9869 195.996C104.692 195.996 116.613 187.759 116.613 177.598C116.613 167.437 104.692 159.2 89.9869 159.2C75.282 159.2 63.3613 167.437 63.3613 177.598C63.3613 187.759 75.282 195.996 89.9869 195.996Z" stroke="#222D4E" stroke-width="0.75" stroke-miterlimit="10" stroke-linejoin="round"/>
<path d="M91.8781 170.821L84.9396 173.669L83.7196 172.999C82.4234 172.283 81.4932 171.841 80.9289 171.689C80.3647 171.537 79.831 171.567 79.2972 171.78C78.8703 171.948 78.733 172.176 78.8703 172.466C79.0075 172.74 79.4192 173.075 80.1055 173.456C81.2644 174.095 82.2861 174.461 83.1859 174.537C84.0703 174.613 86.2205 174.598 89.6211 174.491C92.5185 174.385 94.5772 174.385 95.8277 174.445C97.0629 174.522 98.4658 174.765 100.006 175.192C101.546 175.618 103.132 176.288 104.779 177.202C107.402 178.649 108.866 180.035 109.171 181.36C109.476 182.685 108.622 183.919 106.594 185.091L109.369 186.63L106.182 187.939L103.315 186.355C101.272 187.01 98.8928 187.254 96.1937 187.102C93.4945 186.934 90.4904 185.944 87.2117 184.132L85.7783 183.34L92.7168 180.492L94.5162 181.497C96.4987 182.594 97.7949 183.248 98.4201 183.446C99.0453 183.66 99.6248 183.644 100.174 183.416C100.647 183.218 100.83 182.99 100.723 182.7C100.616 182.426 100.235 182.106 99.5791 181.741C97.9321 180.827 96.6359 180.218 95.7057 179.913C94.7755 179.608 93.2658 179.487 91.1461 179.548C87.6235 179.639 85.1378 179.654 83.7196 179.608C82.3014 179.548 80.7002 179.304 78.9465 178.877C77.1928 178.436 75.5459 177.796 74.0362 176.958C71.8403 175.74 70.6965 174.537 70.6203 173.364C70.544 172.191 71.5353 171.034 73.5787 169.907L71.2303 168.597L74.4174 167.287L76.7658 168.597C79.1905 167.881 81.5542 167.638 83.8568 167.881C86.1595 168.125 88.3859 168.856 90.5666 170.059C90.8716 170.196 91.3138 170.455 91.8781 170.821Z" fill="white"/>
<path d="M91.8781 170.821L84.9396 173.669L83.7196 172.999C82.4234 172.283 81.4932 171.841 80.9289 171.689C80.3647 171.537 79.831 171.567 79.2972 171.78C78.8703 171.948 78.733 172.176 78.8703 172.466C79.0075 172.74 79.4192 173.075 80.1055 173.456C81.2644 174.095 82.2861 174.461 83.1859 174.537C84.0703 174.613 86.2205 174.598 89.6211 174.491C92.5185 174.385 94.5772 174.385 95.8277 174.445C97.0629 174.522 98.4658 174.765 100.006 175.192C101.546 175.618 103.132 176.288 104.779 177.202C107.402 178.649 108.866 180.035 109.171 181.36C109.476 182.685 108.622 183.919 106.594 185.091L109.369 186.63L106.182 187.939L103.315 186.355C101.272 187.01 98.8928 187.254 96.1937 187.102C93.4945 186.934 90.4904 185.944 87.2117 184.132L85.7783 183.34L92.7168 180.492L94.5162 181.497C96.4987 182.594 97.7949 183.248 98.4201 183.446C99.0453 183.66 99.6248 183.644 100.174 183.416C100.647 183.218 100.83 182.99 100.723 182.7C100.616 182.426 100.235 182.106 99.5791 181.741C97.9321 180.827 96.6359 180.218 95.7057 179.913C94.7755 179.608 93.2658 179.487 91.1461 179.548C87.6235 179.639 85.1378 179.654 83.7196 179.608C82.3014 179.548 80.7002 179.304 78.9465 178.877C77.1928 178.436 75.5459 177.796 74.0362 176.958C71.8403 175.74 70.6965 174.537 70.6203 173.364C70.544 172.191 71.5353 171.034 73.5787 169.907L71.2303 168.597L74.4174 167.287L76.7658 168.597C79.1905 167.881 81.5542 167.638 83.8568 167.881C86.1595 168.125 88.3859 168.856 90.5666 170.059C90.8716 170.196 91.3138 170.455 91.8781 170.821Z" stroke="#222D4E" stroke-width="0.75" stroke-miterlimit="10" stroke-linejoin="round"/>
<path d="M120.318 157.86C114.493 150.412 103.101 145.341 89.9867 145.341C76.8721 145.341 65.4655 150.412 59.6554 157.86H55.7668L55.6143 168.11C55.5991 168.46 55.5381 168.795 55.5381 169.145C55.5381 182.289 70.9553 192.95 89.9867 192.95C109.003 192.95 124.435 182.289 124.435 169.145V157.86H120.318Z" fill="#00DEBF"/>
<path d="M89.9867 192.935C109.012 192.935 124.435 182.277 124.435 169.13C124.435 155.983 109.012 145.325 89.9867 145.325C70.9612 145.325 55.5381 155.983 55.5381 169.13C55.5381 182.277 70.9612 192.935 89.9867 192.935Z" fill="white"/>
<path d="M120.318 157.86C114.493 150.412 103.101 145.341 89.9867 145.341C76.8721 145.341 65.4655 150.412 59.6554 157.86H55.7668L55.6143 168.11C55.5991 168.46 55.5381 168.795 55.5381 169.145C55.5381 182.289 70.9553 192.95 89.9867 192.95C109.003 192.95 124.435 182.289 124.435 169.145V157.86H120.318V157.86Z" stroke="#222D4E" stroke-width="0.75" stroke-miterlimit="10" stroke-linejoin="round"/>
<path d="M89.9867 192.935C109.012 192.935 124.435 182.277 124.435 169.13C124.435 155.983 109.012 145.325 89.9867 145.325C70.9612 145.325 55.5381 155.983 55.5381 169.13C55.5381 182.277 70.9612 192.935 89.9867 192.935Z" stroke="#222D4E" stroke-width="0.75" stroke-miterlimit="10" stroke-linejoin="round"/>
<path d="M89.9867 181.664C109.012 181.664 124.435 171.007 124.435 157.86C124.435 144.713 109.012 134.055 89.9867 134.055C70.9612 134.055 55.5381 144.713 55.5381 157.86C55.5381 171.007 70.9612 181.664 89.9867 181.664Z" fill="white"/>
<path d="M89.9867 181.664C109.012 181.664 124.435 171.007 124.435 157.86C124.435 144.713 109.012 134.055 89.9867 134.055C70.9612 134.055 55.5381 144.713 55.5381 157.86C55.5381 171.007 70.9612 181.664 89.9867 181.664Z" stroke="#222D4E" stroke-width="0.75" stroke-miterlimit="10" stroke-linejoin="round"/>
<path d="M90.17 192.889C90.1548 192.615 90.17 192.341 90.2005 192.067V181.756" stroke="#222D4E" stroke-width="0.75" stroke-miterlimit="10" stroke-linejoin="round"/>
<path d="M97.6572 192.127V181.131" stroke="#222D4E" stroke-width="0.75" stroke-miterlimit="10" stroke-linejoin="round"/>
<path d="M104.779 190.544V179.548" stroke="#222D4E" stroke-width="0.75" stroke-miterlimit="10" stroke-linejoin="round"/>
<path d="M111.321 187.894V176.837" stroke="#222D4E" stroke-width="0.75" stroke-miterlimit="10" stroke-linejoin="round"/>
<path d="M116.918 184.178V173.06" stroke="#222D4E" stroke-width="0.75" stroke-miterlimit="10" stroke-linejoin="round"/>
<path d="M121.996 177.918V166.861" stroke="#222D4E" stroke-width="0.75" stroke-miterlimit="10" stroke-linejoin="round"/>
<path d="M82.5449 192.127V181.131" stroke="#222D4E" stroke-width="0.75" stroke-miterlimit="10" stroke-linejoin="round"/>
<path d="M75.4395 190.544V179.548" stroke="#222D4E" stroke-width="0.75" stroke-miterlimit="10" stroke-linejoin="round"/>
<path d="M68.8818 187.894V176.837" stroke="#222D4E" stroke-width="0.75" stroke-miterlimit="10" stroke-linejoin="round"/>
<path d="M63.3008 184.178V173.06" stroke="#222D4E" stroke-width="0.75" stroke-miterlimit="10" stroke-linejoin="round"/>
<path d="M58.207 177.918V166.861" stroke="#222D4E" stroke-width="0.75" stroke-miterlimit="10" stroke-linejoin="round"/>
<path d="M89.9869 176.258C104.692 176.258 116.613 168.021 116.613 157.86C116.613 147.699 104.692 139.462 89.9869 139.462C75.282 139.462 63.3613 147.699 63.3613 157.86C63.3613 168.021 75.282 176.258 89.9869 176.258Z" fill="white"/>
<path d="M89.9869 176.258C104.692 176.258 116.613 168.021 116.613 157.86C116.613 147.699 104.692 139.462 89.9869 139.462C75.282 139.462 63.3613 147.699 63.3613 157.86C63.3613 168.021 75.282 176.258 89.9869 176.258Z" stroke="#222D4E" stroke-width="0.75" stroke-miterlimit="10" stroke-linejoin="round"/>
<path d="M91.8781 151.082L84.9395 153.93L83.7196 153.26C82.4234 152.545 81.4932 152.103 80.9289 151.951C80.3647 151.798 79.831 151.829 79.2972 152.042C78.8703 152.209 78.733 152.438 78.8703 152.727C79.0075 153.001 79.4192 153.336 80.1055 153.717C81.2644 154.357 82.2861 154.722 83.1859 154.799C84.0703 154.875 86.2205 154.859 89.6211 154.753C92.5185 154.646 94.5772 154.646 95.8277 154.707C97.0629 154.783 98.4658 155.027 100.006 155.453C101.546 155.88 103.132 156.55 104.779 157.464C107.402 158.911 108.866 160.297 109.171 161.622C109.476 162.947 108.622 164.18 106.594 165.353L109.369 166.891L106.182 168.201L103.315 166.617C101.272 167.272 98.8928 167.516 96.1937 167.363C93.4945 167.196 90.4904 166.206 87.2117 164.394L85.7783 163.602L92.7168 160.754L94.5162 161.759C96.4986 162.855 97.7949 163.51 98.4201 163.708C99.0453 163.921 99.6248 163.906 100.174 163.678C100.647 163.48 100.83 163.251 100.723 162.962C100.616 162.688 100.235 162.368 99.579 162.002C97.9321 161.089 96.6359 160.479 95.7057 160.175C94.7755 159.87 93.2658 159.748 91.1461 159.809C87.6235 159.901 85.1378 159.916 83.7196 159.87C82.3014 159.809 80.7002 159.566 78.9465 159.139C77.1928 158.697 75.5459 158.058 74.0362 157.22C71.8403 156.002 70.6965 154.799 70.6203 153.626C70.544 152.453 71.5353 151.296 73.5787 150.169L71.2303 148.859L74.4174 147.549L76.7658 148.859C79.1905 148.143 81.5542 147.899 83.8568 148.143C86.1595 148.387 88.3859 149.118 90.5666 150.321C90.8716 150.458 91.3138 150.717 91.8781 151.082Z" fill="white"/>
<path d="M91.8781 151.082L84.9395 153.93L83.7196 153.26C82.4234 152.545 81.4932 152.103 80.9289 151.951C80.3647 151.798 79.831 151.829 79.2972 152.042C78.8703 152.209 78.733 152.438 78.8703 152.727C79.0075 153.001 79.4192 153.336 80.1055 153.717C81.2644 154.357 82.2861 154.722 83.1859 154.799C84.0703 154.875 86.2205 154.859 89.6211 154.753C92.5185 154.646 94.5772 154.646 95.8277 154.707C97.0629 154.783 98.4658 155.027 100.006 155.453C101.546 155.88 103.132 156.55 104.779 157.464C107.402 158.911 108.866 160.297 109.171 161.622C109.476 162.947 108.622 164.18 106.594 165.353L109.369 166.891L106.182 168.201L103.315 166.617C101.272 167.272 98.8928 167.516 96.1937 167.363C93.4945 167.196 90.4904 166.206 87.2117 164.394L85.7783 163.602L92.7168 160.754L94.5162 161.759C96.4986 162.855 97.7949 163.51 98.4201 163.708C99.0453 163.921 99.6248 163.906 100.174 163.678C100.647 163.48 100.83 163.251 100.723 162.962C100.616 162.688 100.235 162.368 99.579 162.002C97.9321 161.089 96.6359 160.479 95.7057 160.175C94.7755 159.87 93.2658 159.748 91.1461 159.809C87.6235 159.901 85.1378 159.916 83.7196 159.87C82.3014 159.809 80.7002 159.566 78.9465 159.139C77.1928 158.697 75.5459 158.058 74.0362 157.22C71.8403 156.002 70.6965 154.799 70.6203 153.626C70.544 152.453 71.5353 151.296 73.5787 150.169L71.2303 148.859L74.4174 147.549L76.7658 148.859C79.1905 148.143 81.5542 147.899 83.8568 148.143C86.1595 148.387 88.3859 149.118 90.5666 150.321C90.8716 150.458 91.3138 150.717 91.8781 151.082Z" stroke="#222D4E" stroke-width="0.75" stroke-miterlimit="10" stroke-linejoin="round"/>
<path d="M18.405 72.7693C14.7451 72.7693 11.7715 75.7392 11.7715 79.3944V132.821C11.7715 150.808 32.8768 165.383 58.9076 165.383C84.9385 165.383 106.044 150.808 106.044 132.821V79.7903C106.044 75.9067 102.902 72.7693 99.0138 72.7693H18.405Z" fill="white"/>
<path d="M18.3288 72.7693C14.7146 72.7693 11.7715 75.6935 11.7715 79.3182V132.821C11.7715 150.808 32.8768 165.383 58.9076 165.383C84.9385 165.383 106.044 150.808 106.044 132.821V78.9984C106.044 75.5564 103.253 72.7693 99.8067 72.7693H18.3288Z" stroke="#222D4E" stroke-width="0.75" stroke-miterlimit="10" stroke-linejoin="round"/>
<path d="M58.9076 166.541C84.9402 166.541 106.044 151.962 106.044 133.979C106.044 115.995 84.9402 101.417 58.9076 101.417C32.8751 101.417 11.7715 115.995 11.7715 133.979C11.7715 151.962 32.8751 166.541 58.9076 166.541Z" stroke="#222D4E" stroke-width="0.75" stroke-miterlimit="10" stroke-linejoin="round"/>
<path d="M58.908 96.4674C76.8723 96.4674 91.4352 86.403 91.4352 73.9879C91.4352 61.5727 76.8723 51.5083 58.908 51.5083C40.9438 51.5083 26.3809 61.5727 26.3809 73.9879C26.3809 86.403 40.9438 96.4674 58.908 96.4674Z" fill="white"/>
<path d="M58.907 106.565C83.8363 106.565 104.045 92.6002 104.045 75.3738C104.045 58.1474 83.8363 44.1826 58.907 44.1826C33.9777 44.1826 13.7686 58.1474 13.7686 75.3738C13.7686 92.6002 33.9777 106.565 58.907 106.565Z" fill="white"/>
<path d="M58.907 106.565C83.8363 106.565 104.045 92.6002 104.045 75.3738C104.045 58.1474 83.8363 44.1826 58.907 44.1826C33.9777 44.1826 13.7686 58.1474 13.7686 75.3738C13.7686 92.6002 33.9777 106.565 58.907 106.565Z" stroke="#222D4E" stroke-width="0.75" stroke-miterlimit="10" stroke-linejoin="round"/>
<path d="M58.907 96.2998C83.8363 96.2998 104.045 82.335 104.045 65.1086C104.045 47.8822 83.8363 33.9175 58.907 33.9175C33.9777 33.9175 13.7686 47.8822 13.7686 65.1086C13.7686 82.335 33.9777 96.2998 58.907 96.2998Z" fill="white"/>
<path d="M58.907 96.2998C83.8363 96.2998 104.045 82.335 104.045 65.1086C104.045 47.8822 83.8363 33.9175 58.907 33.9175C33.9777 33.9175 13.7686 47.8822 13.7686 65.1086C13.7686 82.335 33.9777 96.2998 58.907 96.2998Z" stroke="#222D4E" stroke-width="0.75" stroke-miterlimit="10" stroke-linejoin="round"/>
<path d="M58.9064 88.106C78.1761 88.106 93.7973 77.312 93.7973 63.9969C93.7973 50.6817 78.1761 39.8877 58.9064 39.8877C39.6368 39.8877 24.0156 50.6817 24.0156 63.9969C24.0156 77.312 39.6368 88.106 58.9064 88.106Z" fill="white"/>
<path d="M98.7539 50.6401C91.2817 41.0604 76.6422 34.5571 59.7915 34.5571C42.9408 34.5571 28.3013 41.0604 20.8291 50.6401H15.8425L15.6442 63.7988C15.6137 64.2405 15.5527 64.6822 15.5527 65.1238C15.5527 82.014 35.3618 95.7058 59.8067 95.7058C84.2516 95.7058 104.061 82.014 104.061 65.1238V50.6401H98.7539Z" fill="#00DEBF"/>
<path d="M59.7765 95.721C84.2173 95.721 104.03 82.029 104.03 65.1391C104.03 48.2491 84.2173 34.5571 59.7765 34.5571C35.3356 34.5571 15.5225 48.2491 15.5225 65.1391C15.5225 82.029 35.3356 95.721 59.7765 95.721Z" fill="#3761EA"/>
<path d="M98.7539 50.6401C91.2817 41.0604 76.6421 34.5571 59.7915 34.5571C42.9408 34.5571 28.3013 41.0604 20.8291 50.6401H15.8425L15.6442 63.7988C15.6137 64.2405 15.5527 64.6822 15.5527 65.1238C15.5527 82.014 35.3618 95.7058 59.8067 95.7058C84.2516 95.7058 104.061 82.014 104.061 65.1238V50.6401H98.7539Z" stroke="#222D4E" stroke-width="0.75" stroke-miterlimit="10" stroke-linejoin="round"/>
<path d="M59.7765 95.721C84.2173 95.721 104.03 82.029 104.03 65.1391C104.03 48.2491 84.2173 34.5571 59.7765 34.5571C35.3356 34.5571 15.5225 48.2491 15.5225 65.1391C15.5225 82.029 35.3356 95.721 59.7765 95.721Z" stroke="#222D4E" stroke-width="0.75" stroke-miterlimit="10" stroke-linejoin="round"/>
<path d="M59.7765 81.222C84.2173 81.222 104.03 67.53 104.03 50.64C104.03 33.7501 84.2173 20.0581 59.7765 20.0581C35.3356 20.0581 15.5225 33.7501 15.5225 50.64C15.5225 67.53 35.3356 81.222 59.7765 81.222Z" fill="#3761EA"/>
<path d="M59.7765 81.222C84.2173 81.222 104.03 67.53 104.03 50.64C104.03 33.7501 84.2173 20.0581 59.7765 20.0581C35.3356 20.0581 15.5225 33.7501 15.5225 50.64C15.5225 67.53 35.3356 81.222 59.7765 81.222Z" fill="#3761EA" stroke="#222D4E" stroke-width="0.75" stroke-miterlimit="10" stroke-linejoin="round"/>
<path d="M60.0194 95.6602C60.0041 95.3099 60.0194 94.9443 60.0651 94.5941V81.3591" stroke="#222D4E" stroke-width="0.75" stroke-miterlimit="10" stroke-linejoin="round"/>
<path d="M69.6416 94.6701V80.5366" stroke="#222D4E" stroke-width="0.75" stroke-miterlimit="10" stroke-linejoin="round"/>
<path d="M78.791 92.6445V78.511" stroke="#222D4E" stroke-width="0.75" stroke-miterlimit="10" stroke-linejoin="round"/>
<path d="M87.1943 89.233V75.0386" stroke="#222D4E" stroke-width="0.75" stroke-miterlimit="10" stroke-linejoin="round"/>
<path d="M94.377 84.4507V70.1802" stroke="#222D4E" stroke-width="0.75" stroke-miterlimit="10" stroke-linejoin="round"/>
<path d="M100.903 76.4092V62.2148" stroke="#222D4E" stroke-width="0.75" stroke-miterlimit="10" stroke-linejoin="round"/>
<path d="M50.2295 94.6701V80.5366" stroke="#222D4E" stroke-width="0.75" stroke-miterlimit="10" stroke-linejoin="round"/>
<path d="M41.0801 92.6445V78.511" stroke="#222D4E" stroke-width="0.75" stroke-miterlimit="10" stroke-linejoin="round"/>
<path d="M32.6621 89.233V75.0386" stroke="#222D4E" stroke-width="0.75" stroke-miterlimit="10" stroke-linejoin="round"/>
<path d="M25.4951 84.4507V70.1802" stroke="#222D4E" stroke-width="0.75" stroke-miterlimit="10" stroke-linejoin="round"/>
<path d="M18.9531 76.4092V62.2148" stroke="#222D4E" stroke-width="0.75" stroke-miterlimit="10" stroke-linejoin="round"/>
<path d="M59.7769 74.277C78.6675 74.277 93.9814 63.6943 93.9814 50.64C93.9814 37.5856 78.6675 27.0029 59.7769 27.0029C40.8862 27.0029 25.5723 37.5856 25.5723 50.64C25.5723 63.6943 40.8862 74.277 59.7769 74.277Z" fill="#3761EA"/>
<path d="M59.7769 74.277C78.6675 74.277 93.9814 63.6943 93.9814 50.64C93.9814 37.5856 78.6675 27.0029 59.7769 27.0029C40.8862 27.0029 25.5723 37.5856 25.5723 50.64C25.5723 63.6943 40.8862 74.277 59.7769 74.277Z" stroke="#222D4E" stroke-width="0.75" stroke-miterlimit="10" stroke-linejoin="round"/>
<path d="M44.207 41.4412L74.9957 57.5393" stroke="#222D4E" stroke-width="4" stroke-miterlimit="10" stroke-linecap="round" stroke-linejoin="round"/>
<path d="M79.9062 136.157C75.8041 130.903 67.7524 127.323 58.5112 127.323C49.2547 127.323 41.2183 130.903 37.1162 136.157H34.3712L34.2645 143.391C34.2492 143.635 34.2188 143.879 34.2188 144.122C34.2188 153.397 45.1069 160.921 58.5264 160.921C71.946 160.921 82.8341 153.397 82.8341 144.122V136.157H79.9062Z" fill="#00DEBF"/>
<path d="M58.5108 160.921C71.9356 160.921 82.8185 153.4 82.8185 144.122C82.8185 134.845 71.9356 127.323 58.5108 127.323C45.086 127.323 34.2031 134.845 34.2031 144.122C34.2031 153.4 45.086 160.921 58.5108 160.921Z" fill="#3761EA"/>
<path d="M79.9062 136.157C75.8041 130.903 67.7524 127.323 58.5112 127.323C49.2547 127.323 41.2183 130.903 37.1162 136.157H34.3712L34.2645 143.391C34.2492 143.635 34.2188 143.879 34.2188 144.122C34.2188 153.397 45.1069 160.921 58.5264 160.921C71.946 160.921 82.8341 153.397 82.8341 144.122V136.157H79.9062Z" stroke="#222D4E" stroke-width="0.75" stroke-miterlimit="10" stroke-linejoin="round"/>
<path d="M58.5108 160.921C71.9356 160.921 82.8185 153.4 82.8185 144.122C82.8185 134.845 71.9356 127.323 58.5108 127.323C45.086 127.323 34.2031 134.845 34.2031 144.122C34.2031 153.4 45.086 160.921 58.5108 160.921Z" stroke="#222D4E" stroke-width="0.75" stroke-miterlimit="10" stroke-linejoin="round"/>
<path d="M58.5108 152.956C71.9356 152.956 82.8185 145.435 82.8185 136.157C82.8185 126.879 71.9356 119.358 58.5108 119.358C45.086 119.358 34.2031 126.879 34.2031 136.157C34.2031 145.435 45.086 152.956 58.5108 152.956Z" fill="#3761EA"/>
<path d="M58.5108 152.956C71.9356 152.956 82.8185 145.435 82.8185 136.157C82.8185 126.879 71.9356 119.358 58.5108 119.358C45.086 119.358 34.2031 126.879 34.2031 136.157C34.2031 145.435 45.086 152.956 58.5108 152.956Z" stroke="#222D4E" stroke-width="0.75" stroke-miterlimit="10" stroke-linejoin="round"/>
<path d="M58.6329 160.89C58.6177 160.692 58.6329 160.494 58.6634 160.312V153.032" stroke="#222D4E" stroke-width="0.75" stroke-miterlimit="10" stroke-linejoin="round"/>
<path d="M63.9248 160.342V152.575" stroke="#222D4E" stroke-width="0.75" stroke-miterlimit="10" stroke-linejoin="round"/>
<path d="M68.9414 159.23V151.463" stroke="#222D4E" stroke-width="0.75" stroke-miterlimit="10" stroke-linejoin="round"/>
<path d="M73.5625 157.357V149.559" stroke="#222D4E" stroke-width="0.75" stroke-miterlimit="10" stroke-linejoin="round"/>
<path d="M77.5117 154.722V146.894" stroke="#222D4E" stroke-width="0.75" stroke-miterlimit="10" stroke-linejoin="round"/>
<path d="M81.0957 150.306V142.508" stroke="#222D4E" stroke-width="0.75" stroke-miterlimit="10" stroke-linejoin="round"/>
<path d="M53.2656 160.342V152.575" stroke="#222D4E" stroke-width="0.75" stroke-miterlimit="10" stroke-linejoin="round"/>
<path d="M48.2324 159.23V151.463" stroke="#222D4E" stroke-width="0.75" stroke-miterlimit="10" stroke-linejoin="round"/>
<path d="M43.6123 157.357V149.559" stroke="#222D4E" stroke-width="0.75" stroke-miterlimit="10" stroke-linejoin="round"/>
<path d="M39.6777 154.722V146.894" stroke="#222D4E" stroke-width="0.75" stroke-miterlimit="10" stroke-linejoin="round"/>
<path d="M36.0791 150.306V142.508" stroke="#222D4E" stroke-width="0.75" stroke-miterlimit="10" stroke-linejoin="round"/>
<path d="M58.511 149.133C68.887 149.133 77.2984 143.323 77.2984 136.157C77.2984 128.99 68.887 123.181 58.511 123.181C48.135 123.181 39.7236 128.99 39.7236 136.157C39.7236 143.323 48.135 149.133 58.511 149.133Z" fill="white"/>
<path d="M58.511 149.133C68.887 149.133 77.2984 143.323 77.2984 136.157C77.2984 128.99 68.887 123.181 58.511 123.181C48.135 123.181 39.7236 128.99 39.7236 136.157C39.7236 143.323 48.135 149.133 58.511 149.133Z" stroke="#222D4E" stroke-width="0.75" stroke-miterlimit="10" stroke-linejoin="round"/>
<path d="M59.8379 131.375L54.9428 133.385L54.0736 132.913C53.1586 132.41 52.5029 132.09 52.1064 131.984C51.7099 131.877 51.3287 131.892 50.9627 132.045C50.6577 132.167 50.5662 132.334 50.6577 132.517C50.7492 132.715 51.0389 132.943 51.5269 133.217C52.3351 133.674 53.0671 133.918 53.6923 133.979C54.3176 134.04 55.8273 134.025 58.2367 133.948C60.2801 133.872 61.7288 133.872 62.6133 133.918C63.4825 133.964 64.4737 134.146 65.5564 134.451C66.6392 134.756 67.7676 135.228 68.9266 135.867C70.7718 136.888 71.8087 137.878 72.0222 138.807C72.2357 139.736 71.6257 140.619 70.2075 141.442L72.1595 142.523L69.9025 143.452L67.8896 142.34C66.4409 142.797 64.7635 142.98 62.8573 142.858C60.9511 142.751 58.8314 142.051 56.5287 140.772L55.507 140.208L60.4021 138.198L61.6831 138.898C63.086 139.675 64.001 140.132 64.4432 140.284C64.8855 140.436 65.2972 140.421 65.6784 140.269C66.0139 140.132 66.1359 139.964 66.0597 139.766C65.9834 139.568 65.7242 139.34 65.2514 139.081C64.0925 138.441 63.1775 138 62.5218 137.786C61.8661 137.573 60.7986 137.482 59.3041 137.528C56.8185 137.588 55.0648 137.604 54.0583 137.573C53.0519 137.543 51.9386 137.36 50.6882 137.055C49.453 136.751 48.294 136.294 47.2266 135.7C45.6711 134.847 44.8629 133.994 44.8171 133.172C44.7561 132.349 45.4576 131.527 46.9063 130.735L45.2441 129.821L47.501 128.892L49.1632 129.806C50.8712 129.303 52.5486 129.136 54.1651 129.303C55.7815 129.471 57.3675 129.989 58.9077 130.842C59.1364 130.933 59.4414 131.131 59.8379 131.375Z" fill="#00DEBF"/>
<path d="M59.8379 131.375L54.9428 133.385L54.0736 132.913C53.1586 132.41 52.5029 132.09 52.1064 131.984C51.7099 131.877 51.3287 131.892 50.9627 132.045C50.6577 132.167 50.5662 132.334 50.6577 132.517C50.7492 132.715 51.0389 132.943 51.5269 133.217C52.3351 133.674 53.0671 133.918 53.6923 133.979C54.3176 134.04 55.8273 134.025 58.2367 133.948C60.2801 133.872 61.7288 133.872 62.6133 133.918C63.4825 133.964 64.4737 134.146 65.5564 134.451C66.6392 134.756 67.7676 135.228 68.9266 135.867C70.7718 136.888 71.8087 137.878 72.0222 138.807C72.2357 139.736 71.6257 140.619 70.2075 141.442L72.1595 142.523L69.9025 143.452L67.8896 142.34C66.4409 142.797 64.7635 142.98 62.8573 142.858C60.9511 142.751 58.8314 142.051 56.5287 140.772L55.507 140.208L60.4021 138.198L61.6831 138.898C63.086 139.675 64.001 140.132 64.4432 140.284C64.8855 140.436 65.2972 140.421 65.6784 140.269C66.0139 140.132 66.1359 139.964 66.0597 139.766C65.9834 139.568 65.7242 139.34 65.2514 139.081C64.0925 138.441 63.1775 138 62.5218 137.786C61.8661 137.573 60.7986 137.482 59.3041 137.528C56.8185 137.588 55.0648 137.604 54.0583 137.573C53.0519 137.543 51.9386 137.36 50.6882 137.055C49.453 136.751 48.294 136.294 47.2266 135.7C45.6711 134.847 44.8629 133.994 44.8171 133.172C44.7561 132.349 45.4576 131.527 46.9063 130.735L45.2441 129.821L47.501 128.892L49.1632 129.806C50.8712 129.303 52.5486 129.136 54.1651 129.303C55.7815 129.471 57.3675 129.989 58.9077 130.842C59.1364 130.933 59.4414 131.131 59.8379 131.375Z" stroke="#222D4E" stroke-width="0.75" stroke-miterlimit="10" stroke-linejoin="round"/>
<path d="M99.9443 123.318C95.8422 118.063 87.7904 114.484 78.5493 114.484C69.2928 114.484 61.2563 118.063 57.1542 123.318H54.4093L54.3026 130.552C54.2873 130.796 54.2568 131.039 54.2568 131.283C54.2568 140.558 65.145 148.082 78.5645 148.082C91.9841 148.082 102.872 140.558 102.872 131.283V123.318H99.9443Z" fill="#00DEBF"/>
<path d="M78.5489 148.082C91.9736 148.082 102.857 140.561 102.857 131.283C102.857 122.005 91.9736 114.484 78.5489 114.484C65.1241 114.484 54.2412 122.005 54.2412 131.283C54.2412 140.561 65.1241 148.082 78.5489 148.082Z" fill="#3761EA"/>
<path d="M99.9443 123.318C95.8422 118.063 87.7904 114.484 78.5493 114.484C69.2928 114.484 61.2563 118.063 57.1542 123.318H54.4093L54.3026 130.552C54.2873 130.796 54.2568 131.039 54.2568 131.283C54.2568 140.558 65.145 148.082 78.5645 148.082C91.9841 148.082 102.872 140.558 102.872 131.283V123.318H99.9443Z" stroke="#222D4E" stroke-width="0.75" stroke-miterlimit="10" stroke-linejoin="round"/>
<path d="M78.5489 148.082C91.9736 148.082 102.857 140.561 102.857 131.283C102.857 122.005 91.9736 114.484 78.5489 114.484C65.1241 114.484 54.2412 122.005 54.2412 131.283C54.2412 140.561 65.1241 148.082 78.5489 148.082Z" stroke="#222D4E" stroke-width="0.75" stroke-miterlimit="10" stroke-linejoin="round"/>
<path d="M78.5489 140.117C91.9736 140.117 102.857 132.595 102.857 123.318C102.857 114.04 91.9736 106.519 78.5489 106.519C65.1241 106.519 54.2412 114.04 54.2412 123.318C54.2412 132.595 65.1241 140.117 78.5489 140.117Z" fill="#3761EA"/>
<path d="M78.5489 140.117C91.9736 140.117 102.857 132.595 102.857 123.318C102.857 114.04 91.9736 106.519 78.5489 106.519C65.1241 106.519 54.2412 114.04 54.2412 123.318C54.2412 132.595 65.1241 140.117 78.5489 140.117Z" stroke="#222D4E" stroke-width="0.75" stroke-miterlimit="10" stroke-linejoin="round"/>
<path d="M78.6857 148.051C78.6704 147.853 78.6857 147.655 78.7162 147.473V140.193" stroke="#222D4E" stroke-width="0.75" stroke-miterlimit="10" stroke-linejoin="round"/>
<path d="M83.9619 147.503V139.736" stroke="#222D4E" stroke-width="0.75" stroke-miterlimit="10" stroke-linejoin="round"/>
<path d="M88.9941 146.391V138.624" stroke="#222D4E" stroke-width="0.75" stroke-miterlimit="10" stroke-linejoin="round"/>
<path d="M93.6152 144.518V136.72" stroke="#222D4E" stroke-width="0.75" stroke-miterlimit="10" stroke-linejoin="round"/>
<path d="M97.5498 141.883V134.055" stroke="#222D4E" stroke-width="0.75" stroke-miterlimit="10" stroke-linejoin="round"/>
<path d="M101.133 137.466V129.669" stroke="#222D4E" stroke-width="0.75" stroke-miterlimit="10" stroke-linejoin="round"/>
<path d="M73.3027 147.503V139.736" stroke="#222D4E" stroke-width="0.75" stroke-miterlimit="10" stroke-linejoin="round"/>
<path d="M68.2852 146.391V138.624" stroke="#222D4E" stroke-width="0.75" stroke-miterlimit="10" stroke-linejoin="round"/>
<path d="M63.665 144.518V136.72" stroke="#222D4E" stroke-width="0.75" stroke-miterlimit="10" stroke-linejoin="round"/>
<path d="M59.7158 141.883V134.055" stroke="#222D4E" stroke-width="0.75" stroke-miterlimit="10" stroke-linejoin="round"/>
<path d="M56.1318 137.466V129.669" stroke="#222D4E" stroke-width="0.75" stroke-miterlimit="10" stroke-linejoin="round"/>
<path d="M78.5491 136.294C88.9251 136.294 97.3364 130.484 97.3364 123.318C97.3364 116.151 88.9251 110.342 78.5491 110.342C68.1731 110.342 59.7617 116.151 59.7617 123.318C59.7617 130.484 68.1731 136.294 78.5491 136.294Z" fill="white"/>
<path d="M78.5491 136.294C88.9251 136.294 97.3364 130.484 97.3364 123.318C97.3364 116.151 88.9251 110.342 78.5491 110.342C68.1731 110.342 59.7617 116.151 59.7617 123.318C59.7617 130.484 68.1731 136.294 78.5491 136.294Z" stroke="#222D4E" stroke-width="0.75" stroke-miterlimit="10" stroke-linejoin="round"/>
<path d="M79.891 118.536L74.9959 120.546L74.1267 120.074C73.2117 119.571 72.556 119.252 72.1595 119.145C71.763 119.038 71.3818 119.054 71.0158 119.206C70.7108 119.328 70.6193 119.495 70.7108 119.678C70.8023 119.876 71.092 120.104 71.58 120.379C72.3882 120.835 73.1202 121.079 73.7454 121.14C74.3707 121.201 75.8804 121.186 78.2898 121.11C80.3332 121.033 81.7819 121.033 82.6664 121.079C83.5356 121.125 84.5268 121.308 85.6095 121.612C86.6922 121.917 87.8207 122.389 88.9797 123.029C90.8249 124.049 91.8618 125.039 92.0753 125.968C92.2888 126.897 91.6788 127.78 90.2606 128.603L92.2126 129.684L89.9709 130.613L87.958 129.501C86.5093 129.958 84.8318 130.141 82.9256 130.019C81.0194 129.913 78.8998 129.212 76.5971 127.933L75.5754 127.369L80.4705 125.359L81.7514 126.059C83.1544 126.836 84.0693 127.293 84.5116 127.445C84.9538 127.598 85.3655 127.582 85.7468 127.43C86.0823 127.293 86.2043 127.125 86.128 126.927C86.0518 126.729 85.7773 126.501 85.3198 126.242C84.1608 125.602 83.2459 125.161 82.5901 124.948C81.9344 124.734 80.8669 124.643 79.3725 124.689C76.8868 124.75 75.1331 124.765 74.1267 124.734C73.1202 124.704 72.007 124.521 70.7565 124.217C69.5213 123.912 68.3624 123.455 67.2949 122.861C65.7395 122.008 64.9312 121.155 64.8855 120.333C64.8245 119.51 65.526 118.688 66.9747 117.896L65.3125 116.982L67.5694 116.053L69.2316 116.967C70.9395 116.464 72.617 116.297 74.2334 116.464C75.8499 116.632 77.4358 117.15 78.976 118.003C79.1743 118.094 79.4792 118.292 79.891 118.536Z" fill="#3761EA"/>
<path d="M79.891 118.536L74.9959 120.546L74.1267 120.074C73.2117 119.571 72.556 119.252 72.1595 119.145C71.763 119.038 71.3818 119.054 71.0158 119.206C70.7108 119.328 70.6193 119.495 70.7108 119.678C70.8023 119.876 71.092 120.104 71.58 120.379C72.3882 120.835 73.1202 121.079 73.7454 121.14C74.3707 121.201 75.8804 121.186 78.2898 121.11C80.3332 121.033 81.7819 121.033 82.6664 121.079C83.5356 121.125 84.5268 121.308 85.6095 121.612C86.6922 121.917 87.8207 122.389 88.9797 123.029C90.8249 124.049 91.8618 125.039 92.0753 125.968C92.2888 126.897 91.6788 127.78 90.2606 128.603L92.2126 129.684L89.9709 130.613L87.958 129.501C86.5093 129.958 84.8318 130.141 82.9256 130.019C81.0194 129.913 78.8998 129.212 76.5971 127.933L75.5754 127.369L80.4705 125.359L81.7514 126.059C83.1544 126.836 84.0693 127.293 84.5116 127.445C84.9538 127.598 85.3655 127.582 85.7468 127.43C86.0823 127.293 86.2043 127.125 86.128 126.927C86.0518 126.729 85.7773 126.501 85.3198 126.242C84.1608 125.602 83.2459 125.161 82.5901 124.948C81.9344 124.734 80.8669 124.643 79.3725 124.689C76.8868 124.75 75.1331 124.765 74.1267 124.734C73.1202 124.704 72.007 124.521 70.7565 124.217C69.5213 123.912 68.3624 123.455 67.2949 122.861C65.7395 122.008 64.9312 121.155 64.8855 120.333C64.8245 119.51 65.526 118.688 66.9747 117.896L65.3125 116.982L67.5694 116.053L69.2316 116.967C70.9395 116.464 72.617 116.297 74.2334 116.464C75.8499 116.632 77.4358 117.15 78.976 118.003C79.1743 118.094 79.4792 118.292 79.891 118.536Z" fill="#3761EA" stroke="#222D4E" stroke-width="0.75" stroke-miterlimit="10" stroke-linejoin="round"/>
<path d="M62.4761 124.414C58.374 119.16 50.3223 115.581 41.0811 115.581C31.8399 115.581 23.7882 119.16 19.6861 124.414H16.9412L16.8344 131.649C16.8039 131.877 16.7734 132.121 16.7734 132.365C16.7734 141.64 27.6616 149.163 41.0811 149.163C54.5007 149.163 65.3735 141.64 65.3735 132.365V124.399H62.4761V124.414Z" fill="#00DEBF"/>
<path d="M41.0655 149.163C54.4902 149.163 65.3732 141.642 65.3732 132.364C65.3732 123.087 54.4902 115.566 41.0655 115.566C27.6407 115.566 16.7578 123.087 16.7578 132.364C16.7578 141.642 27.6407 149.163 41.0655 149.163Z" fill="#3761EA"/>
<path d="M62.4761 124.414C58.374 119.16 50.3223 115.581 41.0811 115.581C31.8399 115.581 23.7882 119.16 19.6861 124.414H16.9412L16.8344 131.649C16.8039 131.877 16.7734 132.121 16.7734 132.365C16.7734 141.64 27.6616 149.163 41.0811 149.163C54.5007 149.163 65.3735 141.64 65.3735 132.365V124.399H62.4761V124.414Z" stroke="#222D4E" stroke-width="0.75" stroke-miterlimit="10" stroke-linejoin="round"/>
<path d="M41.0655 149.163C54.4902 149.163 65.3732 141.642 65.3732 132.364C65.3732 123.087 54.4902 115.566 41.0655 115.566C27.6407 115.566 16.7578 123.087 16.7578 132.364C16.7578 141.642 27.6407 149.163 41.0655 149.163Z" stroke="#222D4E" stroke-width="0.75" stroke-miterlimit="10" stroke-linejoin="round"/>
<path d="M41.0655 141.213C54.4902 141.213 65.3732 133.692 65.3732 124.414C65.3732 115.137 54.4902 107.616 41.0655 107.616C27.6407 107.616 16.7578 115.137 16.7578 124.414C16.7578 133.692 27.6407 141.213 41.0655 141.213Z" fill="#3761EA"/>
<path d="M41.0655 141.213C54.4902 141.213 65.3732 133.692 65.3732 124.414C65.3732 115.137 54.4902 107.616 41.0655 107.616C27.6407 107.616 16.7578 115.137 16.7578 124.414C16.7578 133.692 27.6407 141.213 41.0655 141.213Z" stroke="#222D4E" stroke-width="0.75" stroke-miterlimit="10" stroke-linejoin="round"/>
<path d="M41.2023 149.133C41.187 148.935 41.2023 148.737 41.2328 148.554V141.274" stroke="#222D4E" stroke-width="0.75" stroke-miterlimit="10" stroke-linejoin="round"/>
<path d="M46.4941 148.585V140.833" stroke="#222D4E" stroke-width="0.75" stroke-miterlimit="10" stroke-linejoin="round"/>
<path d="M51.5107 147.473V139.721" stroke="#222D4E" stroke-width="0.75" stroke-miterlimit="10" stroke-linejoin="round"/>
<path d="M56.1318 145.6V137.802" stroke="#222D4E" stroke-width="0.75" stroke-miterlimit="10" stroke-linejoin="round"/>
<path d="M60.0811 142.98V135.136" stroke="#222D4E" stroke-width="0.75" stroke-miterlimit="10" stroke-linejoin="round"/>
<path d="M63.665 138.563V130.765" stroke="#222D4E" stroke-width="0.75" stroke-miterlimit="10" stroke-linejoin="round"/>
<path d="M35.8193 148.585V140.833" stroke="#222D4E" stroke-width="0.75" stroke-miterlimit="10" stroke-linejoin="round"/>
<path d="M30.8018 147.473V139.721" stroke="#222D4E" stroke-width="0.75" stroke-miterlimit="10" stroke-linejoin="round"/>
<path d="M26.1816 145.6V137.802" stroke="#222D4E" stroke-width="0.75" stroke-miterlimit="10" stroke-linejoin="round"/>
<path d="M22.2471 142.98V135.136" stroke="#222D4E" stroke-width="0.75" stroke-miterlimit="10" stroke-linejoin="round"/>
<path d="M18.6484 138.563V130.765" stroke="#222D4E" stroke-width="0.75" stroke-miterlimit="10" stroke-linejoin="round"/>
<path d="M41.0657 137.39C51.4417 137.39 59.853 131.581 59.853 124.414C59.853 117.248 51.4417 111.438 41.0657 111.438C30.6897 111.438 22.2783 117.248 22.2783 124.414C22.2783 131.581 30.6897 137.39 41.0657 137.39Z" fill="white"/>
<path d="M41.0657 137.39C51.4417 137.39 59.853 131.581 59.853 124.414C59.853 117.248 51.4417 111.438 41.0657 111.438C30.6897 111.438 22.2783 117.248 22.2783 124.414C22.2783 131.581 30.6897 137.39 41.0657 137.39Z" stroke="#222D4E" stroke-width="0.75" stroke-miterlimit="10" stroke-linejoin="round"/>
<path d="M42.4076 119.632L37.5126 121.643L36.6433 121.17C35.7284 120.668 35.0726 120.348 34.6762 120.241C34.2797 120.135 33.8984 120.15 33.5325 120.302C33.2275 120.424 33.136 120.592 33.2275 120.774C33.319 120.972 33.6087 121.201 34.0967 121.475C34.9049 121.932 35.6369 122.176 36.2621 122.236C36.8873 122.297 38.397 122.282 40.8065 122.206C42.8499 122.13 44.2986 122.13 45.1831 122.176C46.0523 122.221 47.0435 122.404 48.1262 122.709C49.2089 123.013 50.3374 123.485 51.4963 124.125C53.3415 125.145 54.3785 126.135 54.592 127.064C54.8055 127.993 54.1955 128.877 52.7773 129.699L54.7292 130.781L52.4723 131.71L50.4594 130.598C49.0107 131.055 47.3332 131.237 45.427 131.116C43.5209 131.009 41.4012 130.308 39.0985 129.029L38.0768 128.466L42.9719 126.455L44.2528 127.156C45.6558 127.933 46.5708 128.389 47.013 128.542C47.4552 128.694 47.867 128.679 48.2482 128.527C48.5837 128.389 48.7057 128.222 48.6294 128.024C48.5532 127.826 48.2787 127.597 47.8212 127.339C46.6623 126.699 45.7473 126.257 45.0916 126.044C44.4358 125.831 43.3684 125.739 41.8739 125.785C39.3883 125.846 37.6346 125.861 36.6281 125.831C35.6216 125.8 34.5084 125.618 33.258 125.313C32.0228 125.008 30.8638 124.551 29.7963 123.957C28.2409 123.105 27.4327 122.252 27.3869 121.429C27.3412 120.607 28.0274 119.784 29.4761 118.992L27.8139 118.079L30.0708 117.15L31.733 118.063C33.441 117.561 35.1184 117.393 36.7348 117.561C38.3513 117.728 39.9372 118.246 41.4774 119.099C41.6909 119.19 42.0112 119.373 42.4076 119.632Z" fill="#3761EA"/>
<path d="M42.4076 119.632L37.5126 121.643L36.6433 121.17C35.7284 120.668 35.0726 120.348 34.6762 120.241C34.2797 120.135 33.8984 120.15 33.5325 120.302C33.2275 120.424 33.136 120.592 33.2275 120.774C33.319 120.972 33.6087 121.201 34.0967 121.475C34.9049 121.932 35.6369 122.176 36.2621 122.236C36.8873 122.297 38.397 122.282 40.8065 122.206C42.8499 122.13 44.2986 122.13 45.1831 122.176C46.0523 122.221 47.0435 122.404 48.1262 122.709C49.2089 123.013 50.3374 123.485 51.4963 124.125C53.3415 125.145 54.3785 126.135 54.592 127.064C54.8055 127.993 54.1955 128.877 52.7773 129.699L54.7292 130.781L52.4723 131.71L50.4594 130.598C49.0107 131.055 47.3332 131.237 45.427 131.116C43.5209 131.009 41.4012 130.308 39.0985 129.029L38.0768 128.466L42.9719 126.455L44.2528 127.156C45.6558 127.933 46.5708 128.389 47.013 128.542C47.4552 128.694 47.867 128.679 48.2482 128.527C48.5837 128.389 48.7057 128.222 48.6294 128.024C48.5532 127.826 48.2787 127.597 47.8212 127.339C46.6623 126.699 45.7473 126.257 45.0916 126.044C44.4358 125.831 43.3684 125.739 41.8739 125.785C39.3883 125.846 37.6346 125.861 36.6281 125.831C35.6216 125.8 34.5084 125.618 33.258 125.313C32.0228 125.008 30.8638 124.551 29.7963 123.957C28.2409 123.105 27.4327 122.252 27.3869 121.429C27.3412 120.607 28.0274 119.784 29.4761 118.992L27.8139 118.079L30.0708 117.15L31.733 118.063C33.441 117.561 35.1184 117.393 36.7348 117.561C38.3513 117.728 39.9372 118.246 41.4774 119.099C41.6909 119.19 42.0112 119.373 42.4076 119.632Z" fill="#3761EA" stroke="#222D4E" stroke-width="0.75" stroke-miterlimit="10" stroke-linejoin="round"/>
<path d="M49.987 8.66602C47.1048 15.0779 47.7301 24.3377 52.2897 32.9579C56.8493 41.5782 64.1538 47.3047 71.0923 48.5383L72.4495 51.0969L79.2507 47.6245C79.4795 47.5179 79.7235 47.4417 79.9522 47.3199C88.6139 42.7509 90.2609 28.9068 83.6426 16.4029C77.0396 3.89902 64.657 -2.52806 55.9953 2.04095L48.5688 5.9703L49.987 8.66602Z" fill="white"/>
<path d="M79.9624 47.3072C88.6211 42.7339 90.2748 28.8939 83.6562 16.3947C77.0376 3.8954 64.6529 -2.5299 55.9943 2.04336C47.3356 6.61662 45.6819 20.4566 52.3005 32.9559C58.9191 45.4552 71.3038 51.8804 79.9624 47.3072Z" fill="#3761EA"/>
<path d="M49.987 8.66602C47.1048 15.0779 47.7301 24.3377 52.2897 32.9579C56.8493 41.5782 64.1537 47.3047 71.0923 48.5383L72.4495 51.0969L79.2507 47.6245C79.4795 47.5179 79.7235 47.4417 79.9522 47.3199C88.6139 42.7509 90.2609 28.9068 83.6426 16.4029C77.0396 3.89902 64.657 -2.52806 55.9953 2.04095L48.5688 5.9703L49.987 8.66602Z" stroke="#222D4E" stroke-width="0.75" stroke-miterlimit="10" stroke-linejoin="round"/>
<path d="M79.9624 47.3072C88.6211 42.7339 90.2748 28.8939 83.6562 16.3947C77.0376 3.8954 64.6529 -2.5299 55.9943 2.04336C47.3356 6.61662 45.6819 20.4566 52.3005 32.9559C58.9191 45.4552 71.3038 51.8804 79.9624 47.3072Z" stroke="#222D4E" stroke-width="0.75" stroke-miterlimit="10" stroke-linejoin="round"/>
<path d="M72.5239 51.2405C81.1826 46.6673 82.8364 32.8273 76.2177 20.328C69.5991 7.82875 57.2144 1.40345 48.5558 5.97671C39.8972 10.55 38.2434 24.39 44.862 36.8892C51.4806 49.3885 63.8653 55.8138 72.5239 51.2405Z" fill="#3761EA"/>
<path d="M72.5239 51.2405C81.1826 46.6673 82.8364 32.8273 76.2177 20.328C69.5991 7.82875 57.2144 1.40345 48.5558 5.97671C39.8972 10.55 38.2434 24.39 44.862 36.8892C51.4806 49.3885 63.8653 55.8138 72.5239 51.2405Z" stroke="#222D4E" stroke-width="0.75" stroke-miterlimit="10" stroke-linejoin="round"/>
<path d="M83.5671 16.281C83.3841 16.3876 83.2011 16.479 83.0028 16.5399L76.2168 20.1342" stroke="#222D4E" stroke-width="0.75" stroke-miterlimit="10" stroke-linejoin="round"/>
<path d="M80.4554 11.6357L73.2119 15.4585" stroke="#222D4E" stroke-width="0.75" stroke-miterlimit="10" stroke-linejoin="round"/>
<path d="M76.933 7.50854L69.6895 11.3313" stroke="#222D4E" stroke-width="0.75" stroke-miterlimit="10" stroke-linejoin="round"/>
<path d="M72.9078 4.12744L65.6338 7.96541" stroke="#222D4E" stroke-width="0.75" stroke-miterlimit="10" stroke-linejoin="round"/>
<path d="M68.5151 1.75171L61.1953 5.62014" stroke="#222D4E" stroke-width="0.75" stroke-miterlimit="10" stroke-linejoin="round"/>
<path d="M62.6139 0.578857L55.3398 4.43206" stroke="#222D4E" stroke-width="0.75" stroke-miterlimit="10" stroke-linejoin="round"/>
<path d="M85.7162 21.5659L78.4727 25.3887" stroke="#222D4E" stroke-width="0.75" stroke-miterlimit="10" stroke-linejoin="round"/>
<path d="M87.1497 26.7898L79.9062 30.6125" stroke="#222D4E" stroke-width="0.75" stroke-miterlimit="10" stroke-linejoin="round"/>
<path d="M87.6838 32.0137L80.3945 35.8669" stroke="#222D4E" stroke-width="0.75" stroke-miterlimit="10" stroke-linejoin="round"/>
<path d="M87.1645 36.9788L79.8447 40.8472" stroke="#222D4E" stroke-width="0.75" stroke-miterlimit="10" stroke-linejoin="round"/>
<path d="M84.8166 42.5073L77.5273 46.3453" stroke="#222D4E" stroke-width="0.75" stroke-miterlimit="10" stroke-linejoin="round"/>
<path d="M69.8007 46.0979C76.4938 42.5628 77.7735 31.8669 72.6589 22.2081C67.5444 12.5492 57.9723 7.58494 51.2792 11.1201C44.586 14.6552 43.3063 25.351 48.4209 35.0099C53.5355 44.6688 63.1075 49.633 69.8007 46.0979Z" fill="white"/>
<path d="M69.8007 46.0979C76.4938 42.5628 77.7735 31.8669 72.6589 22.2081C67.5444 12.5492 57.9723 7.58494 51.2792 11.1201C44.586 14.6552 43.3063 25.351 48.4209 35.0099C53.5355 44.6688 63.1075 49.633 69.8007 46.0979Z" stroke="#222D4E" stroke-width="0.75" stroke-miterlimit="10" stroke-linejoin="round"/>
<path d="M55.4305 29.714L59.7157 33.2779L59.7004 34.3135C59.6852 35.4253 59.7157 36.1868 59.8071 36.6132C59.8986 37.0397 60.1121 37.39 60.4324 37.6489C60.6916 37.8621 60.8899 37.8773 61.0271 37.6946C61.1644 37.5118 61.2406 37.1158 61.2558 36.5371C61.2711 35.5624 61.1491 34.7552 60.8899 34.146C60.6306 33.5368 59.8834 32.1356 58.6177 29.9272C57.5502 28.0539 56.8182 26.7137 56.437 25.8608C56.0558 25.0232 55.7355 24.018 55.4763 22.8605C55.2171 21.703 55.1103 20.4237 55.1408 19.0225C55.1866 16.7837 55.583 15.3521 56.3455 14.682C57.108 14.0271 58.2212 14.1489 59.7004 15.0779L59.7461 12.7173L61.7286 14.3621L61.6828 16.7989C62.8265 17.9107 63.8178 19.388 64.6565 21.2309C65.4952 23.0585 65.8764 25.3735 65.8307 28.1606L65.8002 29.379L61.5151 25.8151L61.5456 24.2769C61.5761 22.5864 61.5608 21.505 61.4693 21.0329C61.3931 20.5455 61.1796 20.1648 60.8441 19.8906C60.5544 19.647 60.3409 19.6165 60.1884 19.784C60.0359 19.9516 59.9596 20.3171 59.9444 20.8654C59.9139 22.2665 59.9596 23.3326 60.0816 24.0484C60.2036 24.7643 60.6459 25.7999 61.4236 27.1706C62.7045 29.4551 63.589 31.0695 64.0465 32.029C64.504 32.9885 64.9005 34.1155 65.2207 35.4253C65.541 36.7351 65.6934 38.0296 65.663 39.3242C65.6325 41.1975 65.236 42.355 64.4887 42.8271C63.7415 43.284 62.6435 43.0403 61.1796 42.0808L61.1339 44.076L59.1514 42.4311L59.1972 40.436C57.8705 39.0957 56.8945 37.6184 56.254 36.0193C55.6135 34.4201 55.3085 32.6991 55.3543 30.8563C55.3695 30.5974 55.3848 30.2166 55.4305 29.714Z" fill="#3761EA"/>
<path d="M55.4305 29.714L59.7157 33.2779L59.7004 34.3135C59.6852 35.4253 59.7157 36.1868 59.8071 36.6132C59.8986 37.0397 60.1121 37.39 60.4324 37.6489C60.6916 37.8621 60.8899 37.8773 61.0271 37.6946C61.1644 37.5118 61.2406 37.1158 61.2558 36.5371C61.2711 35.5624 61.1491 34.7552 60.8899 34.146C60.6306 33.5368 59.8834 32.1356 58.6177 29.9272C57.5502 28.0539 56.8182 26.7137 56.437 25.8608C56.0558 25.0232 55.7355 24.018 55.4763 22.8605C55.2171 21.703 55.1103 20.4237 55.1408 19.0225C55.1866 16.7837 55.583 15.3521 56.3455 14.682C57.108 14.0271 58.2212 14.1489 59.7004 15.0779L59.7461 12.7173L61.7286 14.3621L61.6828 16.7989C62.8265 17.9107 63.8178 19.388 64.6565 21.2309C65.4952 23.0585 65.8764 25.3735 65.8307 28.1606L65.8002 29.379L61.5151 25.8151L61.5456 24.2769C61.5761 22.5864 61.5608 21.505 61.4693 21.0329C61.3931 20.5455 61.1796 20.1648 60.8441 19.8906C60.5544 19.647 60.3409 19.6165 60.1884 19.784C60.0359 19.9516 59.9596 20.3171 59.9444 20.8654C59.9139 22.2665 59.9596 23.3326 60.0816 24.0484C60.2036 24.7643 60.6459 25.7999 61.4236 27.1706C62.7045 29.4551 63.589 31.0695 64.0465 32.029C64.504 32.9885 64.9005 34.1155 65.2207 35.4253C65.541 36.7351 65.6935 38.0296 65.663 39.3242C65.6325 41.1975 65.236 42.355 64.4887 42.8271C63.7415 43.284 62.6435 43.0403 61.1796 42.0808L61.1339 44.076L59.1514 42.4311L59.1972 40.436C57.8705 39.0957 56.8945 37.6184 56.254 36.0193C55.6135 34.4201 55.3085 32.6991 55.3543 30.8563C55.3695 30.5974 55.3848 30.2166 55.4305 29.714Z" stroke="#222D4E" stroke-width="0.75" stroke-miterlimit="10" stroke-linejoin="round"/>
</svg>
