<svg width="16" height="16" viewBox="0 0 16 16" fill="none" xmlns="http://www.w3.org/2000/svg">
<g clip-path="url(#clip0)">
<path d="M13.4499 6.76789C13.4683 4.60609 11.627 2.62428 9.34548 2.35023C9.3001 2.34485 9.25067 2.33666 9.19833 2.32799C9.08538 2.30928 8.96857 2.29004 8.85071 2.29004C8.3831 2.29004 8.2581 2.61851 8.22519 2.81442C8.19319 3.0049 8.22371 3.16485 8.31576 3.29004C8.47062 3.50061 8.7431 3.53799 8.96195 3.56794C9.0261 3.5768 9.08662 3.58504 9.13729 3.59642C11.1872 4.05447 11.8774 4.77461 12.2148 6.80708C12.223 6.85675 12.2267 6.91794 12.2307 6.98285C12.2454 7.2258 12.276 7.73127 12.8195 7.73127H12.8195C12.8648 7.73127 12.9134 7.72737 12.964 7.71966C13.47 7.64275 13.4542 7.1807 13.4466 6.9587C13.4444 6.89618 13.4424 6.83704 13.4477 6.7977C13.4491 6.7878 13.4498 6.77785 13.4499 6.76789Z" fill="white"/>
<path d="M8.71731 1.55649C8.77802 1.56087 8.8355 1.56506 8.88335 1.57239C12.2495 2.09006 13.7975 3.68492 14.2265 7.07739C14.2338 7.13506 14.235 7.20539 14.2362 7.27987C14.2405 7.54492 14.2493 8.0963 14.8414 8.10773L14.8598 8.10792C15.0455 8.10792 15.1932 8.05192 15.2989 7.94135C15.4832 7.74854 15.4704 7.46211 15.46 7.23192C15.4575 7.17544 15.455 7.12225 15.4556 7.07568C15.4985 3.60606 12.4951 0.459823 9.02859 0.342823C9.01421 0.342347 9.0005 0.343109 8.98664 0.345061C8.97983 0.346061 8.96721 0.3473 8.94559 0.3473C8.91102 0.3473 8.8685 0.3443 8.8234 0.341252C8.76888 0.337538 8.70707 0.333252 8.6444 0.333252C8.09235 0.333252 7.9874 0.725633 7.97397 0.959538C7.94302 1.50011 8.46597 1.53816 8.71731 1.55649Z" fill="white"/>
<path d="M14.0647 11.4625C13.9931 11.4079 13.9191 11.3513 13.8499 11.2955C13.4823 10.9997 13.0913 10.7271 12.7132 10.4634C12.6347 10.4088 12.5562 10.354 12.478 10.2992C11.9937 9.95895 11.5582 9.79362 11.1468 9.79362C10.5926 9.79362 10.1095 10.0998 9.71071 10.7036C9.53404 10.9712 9.31971 11.1014 9.05557 11.1014C8.89937 11.1014 8.7219 11.0568 8.52814 10.9689C6.96466 10.2599 5.84823 9.17281 5.2098 7.7379C4.90119 7.04438 5.00123 6.59105 5.54438 6.2221C5.8528 6.01276 6.4269 5.62305 6.38623 4.87676C6.34019 4.02929 4.47028 1.47933 3.68242 1.18972C3.34885 1.06705 2.99838 1.06591 2.63885 1.18686C1.73314 1.49133 1.08319 2.02605 0.759091 2.7331C0.4459 3.41629 0.460043 4.21848 0.799996 5.05295C1.78276 7.46562 3.16447 9.56914 4.9069 11.305C6.61242 13.0042 8.70866 14.3961 11.1373 15.4419C11.3562 15.5361 11.5859 15.5875 11.7535 15.625C11.8107 15.6378 11.86 15.6488 11.8959 15.6586C11.9157 15.664 11.9361 15.6669 11.9565 15.6671L11.9757 15.6672C11.9758 15.6672 11.9757 15.6672 11.9758 15.6672C13.1181 15.6672 14.4897 14.6234 14.9109 13.4334C15.2799 12.3914 14.6061 11.8763 14.0647 11.4625Z" fill="white"/>
<path d="M9.22276 4.31243C9.02719 4.31738 8.62019 4.32748 8.47738 4.742C8.41057 4.93571 8.41857 5.1039 8.50119 5.2419C8.62243 5.44438 8.85472 5.50643 9.066 5.54048C9.83224 5.66343 10.2258 6.08714 10.3045 6.87381C10.341 7.24062 10.588 7.49676 10.9052 7.49676H10.9052C10.9287 7.49676 10.9526 7.49538 10.9765 7.49248C11.3579 7.4471 11.5428 7.16686 11.5261 6.65962C11.5322 6.13024 11.2551 5.52924 10.784 5.05052C10.3111 4.57033 9.74119 4.2999 9.22276 4.31243Z" fill="white"/>
</g>
<defs>
<clipPath id="clip0">
<rect width="15.3333" height="15.3333" fill="white" transform="translate(0.333008 0.333252)"/>
</clipPath>
</defs>
</svg>
