<svg width="293" height="184" viewBox="0 0 293 184" fill="none" xmlns="http://www.w3.org/2000/svg">
<path d="M292.414 20.2383C292.482 19.7812 292.536 19.3241 292.536 18.8536C292.536 11.9569 284.424 6.37769 274.424 6.37769C264.423 6.37769 256.312 11.9703 256.312 18.8536V110.635C256.312 117.532 264.423 123.111 274.424 123.111C284.424 123.111 292.536 117.518 292.536 110.635C292.536 110.447 292.509 110.272 292.495 110.097L292.414 20.2383Z" fill="#D6D6D6"/>
<path d="M234.285 22.2683C224.284 22.2683 216.173 27.861 216.173 34.7442V87.9954C216.173 94.8921 224.284 100.471 234.285 100.471C244.286 100.471 252.397 94.8787 252.397 87.9954C252.397 87.8072 252.37 87.6324 252.356 87.4576L252.275 36.1289C252.343 35.6719 252.397 35.2148 252.397 34.7442C252.397 27.8475 244.286 22.2683 234.285 22.2683Z" fill="#D6D6D6"/>
<path d="M196.9 34.3813C186.899 34.3813 178.788 39.974 178.788 46.8573V65.4367C178.788 72.3334 186.899 77.9126 196.9 77.9126C206.901 77.9126 215.012 72.32 215.012 65.4367C215.012 65.2485 214.985 65.0737 214.972 64.8989L214.904 48.2285C214.972 47.7849 215.012 47.3278 215.012 46.8707C215.012 39.974 206.901 34.3813 196.9 34.3813Z" fill="#D6D6D6"/>
<path d="M258.457 13.4759C261.521 9.56372 267.513 6.91528 274.41 6.91528C281.306 6.91528 287.299 9.57717 290.362 13.4759H292.4L292.481 104.706C292.495 104.881 292.522 105.069 292.522 105.244C292.522 112.14 284.411 117.72 274.41 117.72C264.409 117.72 256.298 112.127 256.298 105.244V13.4759H258.457Z" fill="white"/>
<path d="M258.457 13.4759C261.521 9.56373 267.513 6.91528 274.41 6.91528C281.306 6.91528 287.299 9.57717 290.362 13.4759H292.4L292.481 104.706C292.495 104.881 292.522 105.069 292.522 105.244C292.522 112.14 284.411 117.72 274.41 117.72C264.409 117.72 256.298 112.127 256.298 105.244V13.4759H258.457Z" stroke="#222D4E" stroke-width="0.75" stroke-miterlimit="10" stroke-linejoin="round"/>
<path d="M274.41 25.9518C284.413 25.9518 292.522 20.3662 292.522 13.4759C292.522 6.58566 284.413 1 274.41 1C264.407 1 256.298 6.58566 256.298 13.4759C256.298 20.3662 264.407 25.9518 274.41 25.9518Z" fill="white"/>
<path d="M274.41 25.9518C284.413 25.9518 292.522 20.3662 292.522 13.4759C292.522 6.58566 284.413 1 274.41 1C264.407 1 256.298 6.58566 256.298 13.4759C256.298 20.3662 264.407 25.9518 274.41 25.9518Z" stroke="#222D4E" stroke-width="0.75" stroke-miterlimit="10" stroke-linejoin="round"/>
<path d="M218.333 29.3665C221.397 25.4543 227.389 22.8059 234.286 22.8059C241.182 22.8059 247.175 25.4678 250.238 29.3665H252.276L252.357 82.0799C252.371 82.2547 252.398 82.4429 252.398 82.6177C252.398 89.5144 244.287 95.0936 234.286 95.0936C224.285 95.0936 216.174 89.501 216.174 82.6177V29.3665H218.333Z" fill="white"/>
<path d="M218.333 29.3665C221.397 25.4543 227.389 22.8059 234.286 22.8059C241.182 22.8059 247.175 25.4678 250.238 29.3665H252.276L252.357 82.0799C252.371 82.2547 252.398 82.4429 252.398 82.6177C252.398 89.5144 244.287 95.0936 234.286 95.0936C224.285 95.0936 216.174 89.501 216.174 82.6177V29.3665H218.333Z" stroke="#222D4E" stroke-width="0.75" stroke-miterlimit="10" stroke-linejoin="round"/>
<path d="M234.286 41.8425C244.289 41.8425 252.398 36.2568 252.398 29.3665C252.398 22.4763 244.289 16.8906 234.286 16.8906C224.283 16.8906 216.174 22.4763 216.174 29.3665C216.174 36.2568 224.283 41.8425 234.286 41.8425Z" fill="white"/>
<path d="M234.286 41.8425C244.289 41.8425 252.398 36.2568 252.398 29.3665C252.398 22.4763 244.289 16.8906 234.286 16.8906C224.283 16.8906 216.174 22.4763 216.174 29.3665C216.174 36.2568 224.283 41.8425 234.286 41.8425Z" stroke="#222D4E" stroke-width="0.75" stroke-miterlimit="10" stroke-linejoin="round"/>
<path d="M180.949 41.493C184.013 37.5808 190.005 34.9324 196.902 34.9324C203.799 34.9324 209.791 37.5943 212.855 41.493H214.893L214.974 59.5347C214.987 59.7094 215.014 59.8976 215.014 60.0724C215.014 66.9691 206.903 72.5483 196.902 72.5483C186.901 72.5483 178.79 66.9557 178.79 60.0724V41.493H180.949Z" fill="white"/>
<path d="M180.949 41.493C184.013 37.5808 190.005 34.9324 196.902 34.9324C203.799 34.9324 209.791 37.5943 212.855 41.493H214.893L214.974 59.5347C214.987 59.7094 215.014 59.8976 215.014 60.0724C215.014 66.9691 206.903 72.5483 196.902 72.5483C186.901 72.5483 178.79 66.9557 178.79 60.0724V41.493H180.949Z" stroke="#222D4E" stroke-width="0.75" stroke-miterlimit="10" stroke-linejoin="round"/>
<path d="M196.901 53.9689C206.904 53.9689 215.013 48.3833 215.013 41.493C215.013 34.6027 206.904 29.0171 196.901 29.0171C186.898 29.0171 178.789 34.6027 178.789 41.493C178.789 48.3833 186.898 53.9689 196.901 53.9689Z" fill="white"/>
<path d="M196.901 53.9689C206.904 53.9689 215.013 48.3833 215.013 41.493C215.013 34.6027 206.904 29.0171 196.901 29.0171C186.898 29.0171 178.789 34.6027 178.789 41.493C178.789 48.3833 186.898 53.9689 196.901 53.9689Z" stroke="#222D4E" stroke-width="0.75" stroke-miterlimit="10" stroke-linejoin="round"/>
<path d="M243.544 127.937L156.574 77.7104C154.698 76.6214 152.39 76.6349 150.514 77.7104L87.9997 113.968C86.947 114.573 86.6501 115.797 87.0684 116.792C86.6635 117.773 86.9605 119.01 87.9997 119.615L90.8474 121.269L83.2085 125.705C82.1558 126.31 81.8589 127.533 82.2773 128.528C81.8724 129.51 82.1693 130.746 83.2085 131.351L171.083 182.357C173.269 183.635 175.982 183.621 178.182 182.344L238.78 146.946C240.13 146.153 240.615 144.634 240.251 143.303C240.615 141.972 240.13 140.439 238.766 139.66L237.363 138.853L243.585 135.223C244.934 134.43 245.42 132.911 245.056 131.58C245.393 130.249 244.907 128.716 243.544 127.937Z" fill="#D6D6D6"/>
<path d="M238.766 140.224L178.168 175.622C175.982 176.899 173.269 176.899 171.069 175.636L83.2085 124.63C81.7104 123.756 81.7104 121.591 83.2085 120.731L145.723 84.4727C147.599 83.3838 149.907 83.3838 151.783 84.4727L238.753 134.699C240.885 135.909 240.885 138.988 238.766 140.224Z" fill="#3761EA"/>
<path d="M238.766 140.224L178.168 175.622C175.982 176.899 173.269 176.899 171.069 175.636L83.2085 124.63C81.7104 123.756 81.7104 121.591 83.2085 120.731L145.723 84.4727C147.599 83.3838 149.907 83.3838 151.783 84.4727L238.753 134.699C240.885 135.909 240.885 138.988 238.766 140.224Z" fill="#3761EA" stroke="#222D4E" stroke-width="0.75" stroke-miterlimit="10" stroke-linejoin="round"/>
<path d="M238.766 138.49L178.168 173.888C175.982 175.165 173.269 175.165 171.069 173.901L83.2085 122.882C81.7104 122.008 81.7104 119.843 83.2085 118.983L145.723 82.7249C147.599 81.636 149.907 81.636 151.783 82.7249L238.753 132.951C240.885 134.175 240.885 137.24 238.766 138.49Z" fill="#3761EA"/>
<path d="M238.766 138.49L178.168 173.888C175.982 175.165 173.269 175.165 171.069 173.901L83.2085 122.882C81.7104 122.008 81.7104 119.843 83.2085 118.983L145.723 82.7249C147.599 81.636 149.907 81.636 151.783 82.7249L238.753 132.951C240.885 134.175 240.885 137.24 238.766 138.49Z" stroke="#222D4E" stroke-width="0.75" stroke-miterlimit="10" stroke-linejoin="round"/>
<path d="M190.975 150.186L122.063 110.218" stroke="#222D4E" stroke-width="0.75" stroke-miterlimit="10" stroke-linecap="round" stroke-linejoin="round"/>
<path d="M185.739 153.655L116.841 113.687" stroke="#222D4E" stroke-width="0.75" stroke-miterlimit="10" stroke-linecap="round" stroke-linejoin="round"/>
<path d="M178.762 157.137L109.863 117.168" stroke="#222D4E" stroke-width="0.75" stroke-miterlimit="10" stroke-linecap="round" stroke-linejoin="round"/>
<path d="M221.829 134.954L207.293 143.182C206.551 143.599 205.647 143.585 204.918 143.155L190.625 134.565C190.032 134.202 190.032 133.341 190.639 132.992L205.161 124.509C205.944 124.051 206.902 124.051 207.685 124.509L221.842 132.763C222.692 133.234 222.679 134.47 221.829 134.954Z" fill="white"/>
<path d="M221.829 134.954L207.293 143.182C206.551 143.599 205.647 143.585 204.918 143.155L190.625 134.565C190.032 134.202 190.032 133.341 190.639 132.992L205.161 124.509C205.944 124.051 206.902 124.051 207.685 124.509L221.842 132.763C222.692 133.234 222.679 134.47 221.829 134.954Z" stroke="#222D4E" stroke-width="0.75" stroke-miterlimit="10" stroke-linejoin="round"/>
<path d="M219.723 136.245L202.718 126.256" stroke="#222D4E" stroke-width="0.75" stroke-miterlimit="10" stroke-linejoin="round"/>
<path d="M210.897 141.031L193.878 131.029" stroke="#222D4E" stroke-width="0.75" stroke-miterlimit="10" stroke-linejoin="round"/>
<path d="M219.682 131.284L202.528 141.569" stroke="#222D4E" stroke-width="0.75" stroke-miterlimit="10" stroke-linejoin="round"/>
<path d="M212.53 131.97L204.055 137.052" stroke="#222D4E" stroke-width="0.75" stroke-miterlimit="10" stroke-linejoin="round"/>
<path d="M208.656 129.469L200.181 134.551" stroke="#222D4E" stroke-width="0.75" stroke-miterlimit="10" stroke-linejoin="round"/>
<path d="M209.075 125.423C208.926 125.638 192.218 135.559 192.218 135.559" stroke="#222D4E" stroke-width="0.75" stroke-miterlimit="10" stroke-linejoin="round"/>
<path d="M243.558 128.501L182.96 163.899C180.774 165.176 178.061 165.176 175.861 163.912L88.0005 112.893C86.5024 112.019 86.5024 109.855 88.0005 108.994L150.515 72.7361C152.391 71.6472 154.699 71.6472 156.575 72.7361L243.545 122.962C245.677 124.186 245.691 127.251 243.558 128.501Z" fill="white"/>
<path d="M243.558 128.501L182.96 163.899C180.774 165.176 178.061 165.176 175.861 163.912L88.0005 112.893C86.5024 112.019 86.5024 109.855 88.0005 108.994L150.515 72.7361C152.391 71.6472 154.699 71.6472 156.575 72.7361L243.545 122.962C245.677 124.186 245.691 127.251 243.558 128.501Z" stroke="#222D4E" stroke-width="0.75" stroke-miterlimit="10" stroke-linejoin="round"/>
<path d="M243.558 126.754L182.96 162.151C180.774 163.429 178.061 163.429 175.861 162.165L88.0005 111.159C86.5024 110.285 86.5024 108.121 88.0005 107.26L150.515 71.002C152.391 69.9131 154.699 69.9131 156.575 71.002L243.545 121.228C245.677 122.452 245.691 125.517 243.558 126.754Z" fill="white"/>
<path d="M243.558 126.754L182.96 162.151C180.774 163.429 178.061 163.429 175.861 162.165L88.0005 111.159C86.5024 110.285 86.5024 108.121 88.0005 107.26L150.515 71.002C152.391 69.9131 154.699 69.9131 156.575 71.002L243.545 121.228C245.677 122.452 245.691 125.517 243.558 126.754Z" stroke="#222D4E" stroke-width="0.75" stroke-miterlimit="10" stroke-linejoin="round"/>
<path d="M195.782 138.45L126.87 98.4946" stroke="#222D4E" stroke-width="0.75" stroke-miterlimit="10" stroke-linecap="round" stroke-linejoin="round"/>
<path d="M190.545 141.932L121.633 101.963" stroke="#222D4E" stroke-width="0.75" stroke-miterlimit="10" stroke-linecap="round" stroke-linejoin="round"/>
<path d="M183.567 145.4L114.655 105.445" stroke="#222D4E" stroke-width="0.75" stroke-miterlimit="10" stroke-linecap="round" stroke-linejoin="round"/>
<path d="M226.62 123.218L212.084 131.446C211.342 131.863 210.438 131.849 209.709 131.419L195.416 122.828C194.823 122.465 194.823 121.605 195.43 121.255L209.952 112.772C210.735 112.315 211.693 112.315 212.476 112.772L226.633 121.027C227.483 121.511 227.483 122.734 226.62 123.218Z" fill="white"/>
<path d="M226.62 123.218L212.084 131.446C211.342 131.863 210.438 131.849 209.709 131.419L195.416 122.828C194.823 122.465 194.823 121.605 195.43 121.255L209.952 112.772C210.735 112.315 211.693 112.315 212.476 112.772L226.633 121.027C227.483 121.511 227.483 122.734 226.62 123.218Z" stroke="#222D4E" stroke-width="0.75" stroke-miterlimit="10" stroke-linejoin="round"/>
<path d="M224.529 124.522L207.51 114.52" stroke="#222D4E" stroke-width="0.75" stroke-miterlimit="10" stroke-linejoin="round"/>
<path d="M215.689 129.294L198.684 119.306" stroke="#222D4E" stroke-width="0.75" stroke-miterlimit="10" stroke-linejoin="round"/>
<path d="M224.489 119.561L207.335 129.832" stroke="#222D4E" stroke-width="0.75" stroke-miterlimit="10" stroke-linejoin="round"/>
<path d="M217.322 120.233L208.847 125.315" stroke="#222D4E" stroke-width="0.75" stroke-miterlimit="10" stroke-linejoin="round"/>
<path d="M213.448 117.746L204.973 122.828" stroke="#222D4E" stroke-width="0.75" stroke-miterlimit="10" stroke-linejoin="round"/>
<path d="M213.88 113.686C213.732 113.901 197.023 123.823 197.023 123.823" stroke="#222D4E" stroke-width="0.75" stroke-miterlimit="10" stroke-linejoin="round"/>
<path d="M55.4888 106.763C49.213 94.9591 38.2136 88.1297 29.2385 89.7698C27.8619 90.0252 26.5258 90.4554 25.2571 91.1276L17.1459 95.4028C7.685 100.39 5.8765 115.474 13.1105 129.093C20.3445 142.712 33.8813 149.716 43.3421 144.728C43.9495 144.406 44.5163 144.043 45.0562 143.653L50.6841 140.789C50.9405 140.668 51.2105 140.588 51.4534 140.453C54.7735 138.705 57.1353 135.694 58.5119 131.943C59.3352 129.698 59.8211 127.184 59.9155 124.509C60.091 118.97 58.6604 112.732 55.4888 106.763Z" fill="#D6D6D6"/>
<path d="M18.711 95.8869C15.5529 102.878 16.2412 112.961 21.2348 122.358C26.2284 131.755 34.2047 137.993 41.7761 139.337L43.2472 142.12L50.6836 138.343C50.9401 138.222 51.21 138.141 51.4529 138.007C60.9138 133.019 62.7223 117.935 55.4883 104.316C48.2543 90.6975 34.7175 83.6933 25.2567 88.681L17.1319 92.9561L18.711 95.8869Z" fill="white"/>
<path d="M51.4555 137.999C60.9175 133.014 62.7236 117.928 55.4895 104.302C48.2554 90.6757 34.7205 83.6704 25.2585 88.6549C15.7965 93.6394 13.9904 108.726 21.2245 122.352C28.4586 135.978 41.9935 142.983 51.4555 137.999Z" fill="#3761EA"/>
<path d="M18.711 95.8869C15.5529 102.878 16.2412 112.961 21.2348 122.358C26.2284 131.755 34.2047 137.993 41.7761 139.337L43.2472 142.12L50.6836 138.343C50.9401 138.222 51.21 138.141 51.4529 138.007C60.9138 133.019 62.7223 117.935 55.4883 104.316C48.2543 90.6975 34.7175 83.6933 25.2567 88.681L17.1319 92.9561L18.711 95.8869Z" stroke="#222D4E" stroke-width="0.75" stroke-miterlimit="10" stroke-linejoin="round"/>
<path d="M51.4555 137.999C60.9175 133.014 62.7236 117.928 55.4895 104.302C48.2554 90.6757 34.7205 83.6704 25.2585 88.6549C15.7965 93.6394 13.9904 108.726 21.2245 122.352C28.4586 135.978 41.9935 142.983 51.4555 137.999Z" stroke="#222D4E" stroke-width="0.75" stroke-miterlimit="10" stroke-linejoin="round"/>
<path d="M43.3295 142.277C52.7916 137.293 54.5976 122.206 47.3635 108.58C40.1294 94.954 26.5945 87.9487 17.1325 92.9332C7.67047 97.9177 5.86441 113.005 13.0985 126.63C20.3327 140.256 33.8675 147.262 43.3295 142.277Z" fill="#3761EA"/>
<path d="M43.3295 142.277C52.7916 137.293 54.5976 122.206 47.3635 108.58C40.1294 94.954 26.5945 87.9487 17.1325 92.9332C7.67047 97.9177 5.86441 113.005 13.0985 126.63C20.3327 140.256 33.8675 147.262 43.3295 142.277Z" stroke="#222D4E" stroke-width="0.75" stroke-miterlimit="10" stroke-linejoin="round"/>
<path d="M55.3936 104.182C55.2046 104.303 55.0022 104.397 54.7862 104.464L47.3633 108.376" stroke="#222D4E" stroke-width="0.75" stroke-miterlimit="10" stroke-linejoin="round"/>
<path d="M51.9926 99.1133L44.0703 103.281" stroke="#222D4E" stroke-width="0.75" stroke-miterlimit="10" stroke-linejoin="round"/>
<path d="M48.1459 94.6096L40.2236 98.7772" stroke="#222D4E" stroke-width="0.75" stroke-miterlimit="10" stroke-linejoin="round"/>
<path d="M43.7462 90.926L35.7969 95.1205" stroke="#222D4E" stroke-width="0.75" stroke-miterlimit="10" stroke-linejoin="round"/>
<path d="M38.9418 88.3313L30.9385 92.5527" stroke="#222D4E" stroke-width="0.75" stroke-miterlimit="10" stroke-linejoin="round"/>
<path d="M32.503 87.0676L24.5537 91.2621" stroke="#222D4E" stroke-width="0.75" stroke-miterlimit="10" stroke-linejoin="round"/>
<path d="M57.7407 109.936L49.8184 114.103" stroke="#222D4E" stroke-width="0.75" stroke-miterlimit="10" stroke-linejoin="round"/>
<path d="M59.3061 115.622L51.3838 119.79" stroke="#222D4E" stroke-width="0.75" stroke-miterlimit="10" stroke-linejoin="round"/>
<path d="M59.8856 121.323L51.9229 125.517" stroke="#222D4E" stroke-width="0.75" stroke-miterlimit="10" stroke-linejoin="round"/>
<path d="M59.3324 126.74L51.3291 130.948" stroke="#222D4E" stroke-width="0.75" stroke-miterlimit="10" stroke-linejoin="round"/>
<path d="M56.755 132.75L48.8057 136.944" stroke="#222D4E" stroke-width="0.75" stroke-miterlimit="10" stroke-linejoin="round"/>
<path d="M40.3521 136.667C47.6661 132.814 49.0641 121.156 43.4748 110.628C37.8854 100.1 27.4252 94.689 20.1112 98.5419C12.7973 102.395 11.3992 114.053 16.9886 124.581C22.578 135.109 33.0382 140.52 40.3521 136.667Z" fill="white"/>
<path d="M40.3521 136.667C47.6661 132.814 49.0641 121.156 43.4748 110.628C37.8854 100.1 27.4252 94.689 20.1112 98.5419C12.7973 102.395 11.3992 114.053 16.9886 124.581C22.578 135.109 33.0382 140.52 40.3521 136.667Z" stroke="#222D4E" stroke-width="0.75" stroke-miterlimit="10" stroke-linejoin="round"/>
<path d="M24.6497 118.809L29.3329 122.694L29.3059 123.823C29.2789 125.033 29.3194 125.867 29.4273 126.324C29.5218 126.781 29.7513 127.157 30.1157 127.453C30.3991 127.695 30.615 127.708 30.7635 127.507C30.9119 127.305 30.9929 126.888 31.0064 126.243C31.0334 125.168 30.8984 124.307 30.615 123.635C30.3316 122.976 29.5083 121.444 28.1317 119.037C26.9575 117.007 26.1613 115.528 25.7429 114.614C25.3245 113.7 24.9736 112.611 24.6902 111.347C24.4067 110.084 24.2853 108.685 24.3123 107.166C24.3662 104.733 24.7981 103.16 25.6349 102.447C26.4717 101.735 27.6863 101.869 29.3059 102.878L29.3599 100.31L31.5193 102.098L31.4653 104.746C32.7204 105.97 33.8001 107.57 34.7044 109.573C35.6221 111.576 36.0405 114.09 35.9865 117.128L35.9595 118.459L31.2628 114.574L31.2898 112.907C31.3303 111.078 31.3033 109.895 31.2089 109.371C31.1144 108.847 30.8849 108.43 30.5205 108.121C30.1966 107.852 29.9672 107.811 29.8052 108C29.6433 108.174 29.5623 108.578 29.5488 109.183C29.5218 110.715 29.5758 111.872 29.6973 112.651C29.8322 113.431 30.3181 114.56 31.1684 116.053C32.572 118.54 33.5302 120.314 34.0296 121.349C34.5289 122.385 34.9608 123.621 35.3117 125.047C35.6626 126.472 35.8246 127.883 35.7976 129.295C35.7571 131.338 35.3252 132.602 34.5154 133.113C33.7057 133.61 32.491 133.341 30.8984 132.306L30.858 134.484L28.6986 132.696L28.739 130.518C27.2949 129.053 26.2287 127.453 25.5269 125.705C24.8251 123.971 24.5012 122.089 24.5417 120.072C24.5822 119.777 24.6092 119.36 24.6497 118.809Z" fill="#3761EA"/>
<path d="M24.6497 118.809L29.3329 122.694L29.3059 123.823C29.2789 125.033 29.3194 125.867 29.4273 126.324C29.5218 126.781 29.7513 127.157 30.1157 127.453C30.3991 127.695 30.615 127.708 30.7635 127.507C30.9119 127.305 30.9929 126.888 31.0064 126.243C31.0334 125.168 30.8984 124.307 30.615 123.635C30.3316 122.976 29.5083 121.444 28.1317 119.037C26.9575 117.007 26.1613 115.528 25.7429 114.614C25.3245 113.7 24.9736 112.611 24.6902 111.347C24.4067 110.084 24.2853 108.685 24.3123 107.166C24.3662 104.733 24.7981 103.16 25.6349 102.447C26.4717 101.735 27.6863 101.869 29.3059 102.878L29.3599 100.31L31.5193 102.098L31.4653 104.746C32.7204 105.97 33.8001 107.57 34.7044 109.573C35.6221 111.576 36.0405 114.09 35.9865 117.128L35.9595 118.459L31.2628 114.574L31.2898 112.907C31.3303 111.078 31.3033 109.895 31.2089 109.371C31.1144 108.847 30.8849 108.43 30.5205 108.121C30.1966 107.852 29.9672 107.811 29.8052 108C29.6433 108.174 29.5623 108.578 29.5488 109.183C29.5218 110.715 29.5758 111.872 29.6973 112.651C29.8322 113.431 30.3181 114.56 31.1684 116.053C32.572 118.54 33.5302 120.314 34.0296 121.349C34.5289 122.385 34.9608 123.621 35.3117 125.047C35.6626 126.472 35.8246 127.883 35.7976 129.295C35.7571 131.338 35.3252 132.602 34.5154 133.113C33.7057 133.61 32.491 133.341 30.8984 132.306L30.858 134.484L28.6986 132.696L28.739 130.518C27.2949 129.053 26.2287 127.453 25.5269 125.705C24.8251 123.971 24.5012 122.089 24.5417 120.072C24.5822 119.777 24.6092 119.36 24.6497 118.809Z" stroke="#222D4E" stroke-width="0.75" stroke-miterlimit="10" stroke-linejoin="round"/>
</svg>
