<svg width="24" height="24" viewBox="0 0 24 24" fill="none" xmlns="http://www.w3.org/2000/svg">
<path fill-rule="evenodd" clip-rule="evenodd" d="M12.1417 8.86279L13.8418 13.7662L16.119 10.4676L16.6888 14.921L19.3398 13.1139L17.0542 17.6436L16.9149 17.6312C12.3827 17.2262 11.4184 17.171 7.3713 17.6307L7.22875 17.6469L4.94153 13.1139L7.59238 14.921L8.16207 10.4679L10.4412 13.7664L11.0543 11.9983C11.4401 10.8855 11.8497 9.70433 11.9446 9.43086L12.1417 8.86279Z" fill="#A0A5AA"/>
<path d="M4.47708 11.6553L3.72205 11.4645L3.52889 12.2103L4.28393 12.4011L4.47708 11.6553Z" fill="#A0A5AA"/>
<path d="M20.2384 11.4516L19.4941 11.6802L19.7255 12.4153L20.4697 12.1867L20.2384 11.4516Z" fill="#A0A5AA"/>
<path d="M7.94294 8.80043L6.90137 8.53723L6.6349 9.56604L7.67648 9.82924L7.94294 8.80043Z" fill="#A0A5AA"/>
<path d="M17.2364 9.3778L16.6989 8.45813L15.7678 8.9891L16.3053 9.90877L17.2364 9.3778Z" fill="#A0A5AA"/>
<path d="M12.9369 7.28615L11.9921 6.35291L11.0472 7.28615L11.9921 8.2194L12.9369 7.28615Z" fill="#A0A5AA"/>
<circle cx="12" cy="12" r="11.5" stroke="#A0A5AA"/>
</svg>
